<svg width="27" height="12" viewBox="0 0 27 12" fill="currentColor" xmlns="http://www.w3.org/2000/svg">
<path d="M4 0.796875V12H2.39844V2.39844H0.476562V0.796875H4ZM8.49219 2.39844V3.84375H6.89062V2.39844C6.89062 2.17969 6.93229 1.97396 7.01562 1.78125C7.09896 1.58333 7.21354 1.41406 7.35938 1.27344C7.50521 1.1276 7.67448 1.01302 7.86719 0.929688C8.0651 0.841146 8.27344 0.796875 8.49219 0.796875H13.5625C13.7812 0.796875 13.987 0.841146 14.1797 0.929688C14.3776 1.01302 14.5469 1.1276 14.6875 1.27344C14.8333 1.41406 14.9479 1.58333 15.0312 1.78125C15.1198 1.97396 15.1641 2.17969 15.1641 2.39844V4.44531C15.1641 4.66406 15.1432 4.85938 15.1016 5.03125C15.0599 5.20312 14.9922 5.35938 14.8984 5.5C14.8099 5.63542 14.6953 5.75781 14.5547 5.86719C14.4141 5.97656 14.2422 6.08073 14.0391 6.17969L8.49219 8.78125V10.3984H13.7656V8.96094H15.3672V12H6.89062V9.05469C6.89062 8.83594 6.91146 8.64062 6.95312 8.46875C7 8.29688 7.06771 8.14323 7.15625 8.00781C7.24479 7.8724 7.35938 7.75 7.5 7.64062C7.64583 7.52604 7.8151 7.42188 8.00781 7.32812L13.5625 4.71875V2.39844H8.49219ZM17.4531 8.60938H19.0234V9.20312C19.0234 9.625 19.1172 9.9349 19.3047 10.1328C19.4922 10.3307 19.7995 10.4297 20.2266 10.4297H23.4531C23.8802 10.4297 24.1875 10.3307 24.375 10.1328C24.5625 9.9349 24.6562 9.625 24.6562 9.20312V8.33594C24.6562 7.90885 24.5625 7.59896 24.375 7.40625C24.1875 7.21354 23.8802 7.11719 23.4531 7.11719H20.1406V5.55469H23.4062C23.7969 5.53906 24.0755 5.4349 24.2422 5.24219C24.4141 5.04427 24.5 4.74219 24.5 4.33594V3.60156C24.5 3.17448 24.4036 2.86198 24.2109 2.66406C24.0234 2.46615 23.7188 2.36719 23.2969 2.36719H20.3828C19.9609 2.36719 19.6562 2.46615 19.4688 2.66406C19.2812 2.86198 19.1875 3.17448 19.1875 3.60156V4.19531H17.6172V3.52344C17.6172 1.70573 18.5234 0.796875 20.3359 0.796875H23.3438C24.2656 0.796875 24.9479 1.02083 25.3906 1.46875C25.8385 1.91667 26.0625 2.60156 26.0625 3.52344V3.72656C26.0625 4.35677 25.9505 4.8776 25.7266 5.28906C25.5078 5.69531 25.1875 5.9974 24.7656 6.19531C25.2396 6.33594 25.6016 6.61719 25.8516 7.03906C26.1016 7.46094 26.2266 8.02083 26.2266 8.71875V9.28125C26.2266 11.0938 25.3203 12 23.5078 12H20.1797C18.362 12 17.4531 11.0938 17.4531 9.28125V8.60938Z" fill="currentColor"/>
</svg>
