<svg id="Calque_1" xmlns="http://www.w3.org/2000/svg" xmlns:xlink="http://www.w3.org/1999/xlink"
     viewBox="0 0 64.03 52">
  <defs>
    <clipPath id="clip-path">
      <rect class="cls-1" x="6.94" width="51.87" height="51.87" fill="none"/>
    </clipPath>
  </defs>
  <title>averagebyteamhorloge</title>
  <g class="cls-2" clip-path="url(#clip-path)">
    <ellipse class="cls-1" cx="48.13" cy="35.68" rx="11.42" ry="11.41" fill="none"/>
  </g>
  <path class="cls-3"
        fill="currentColor"
        d="M52.42,37.41l-3.5-2V30.77H46.47v6.05l1.63.94,3.59,2.07.73-1.26.5-.87Zm0,0-3.5-2V30.77H46.47v6.05l1.63.94,3.59,2.07.73-1.26.5-.87Zm0,0-3.5-2V30.77H46.47v6.05l1.63.94,3.59,2.07.73-1.26.5-.87Zm0,0-3.5-2V30.77H46.47v6.05l1.63.94,3.59,2.07.73-1.26.5-.87Zm0,0-3.5-2V30.77H46.47v6.05l1.63.94,3.59,2.07.73-1.26.5-.87Zm0,0-3.5-2V30.77H46.47v6.05l1.63.94,3.59,2.07.73-1.26.5-.87Zm-12.5-1.76a22.47,22.47,0,0,0-3.24-.87,9.1,9.1,0,0,0,0,.91,8.25,8.25,0,0,0,0,.86H40a8.11,8.11,0,0,1,0-.86Zm16.29-8.07a11.42,11.42,0,0,0-4.35-2.72,11.63,11.63,0,0,0-3.76-.63,11.48,11.48,0,0,0-5.47,1.38,0,0,0,0,1,0,0,11.58,11.58,0,0,0-4.14,3.85,7.23,7.23,0,0,0-.67,1.13,11,11,0,0,0-.71,1.81h0a10.8,10.8,0,0,0-.44,2.37,9.1,9.1,0,0,0,0,.91,8.25,8.25,0,0,0,0,.86v0c0,.3.06.6.11.9a11.68,11.68,0,0,0,1,3.11c0,.09.09.18.14.27a11.46,11.46,0,0,0,18.33,2.92,11.67,11.67,0,0,0,2.12-2.92,11.17,11.17,0,0,0,.57-1.32,11.46,11.46,0,0,0-2.69-12ZM53.89,41.47a8.15,8.15,0,0,1-11.57,0c-.19-.19-.37-.39-.55-.6a8.32,8.32,0,0,1-1.85-5.18v0A8.2,8.2,0,0,1,48.1,27.5a7.32,7.32,0,0,1,.81,0h0a8.19,8.19,0,0,1,7.09,6,7.84,7.84,0,0,1,.28,2.11,8.17,8.17,0,0,1-1.85,5.18C54.26,41.08,54.08,41.28,53.89,41.47Zm-5-6.08V30.77H46.47v6.05l1.63.94,3.59,2.07.73-1.26.5-.87-.5-.29Zm-9,.3v0a22.47,22.47,0,0,0-3.24-.87,9.1,9.1,0,0,0,0,.91,8.25,8.25,0,0,0,0,.86H40A8.11,8.11,0,0,1,39.92,35.69Zm12.5,1.72-3.5-2V30.77H46.47v6.05l1.63.94,3.59,2.07.73-1.26.5-.87Zm0,0-3.5-2V30.77H46.47v6.05l1.63.94,3.59,2.07.73-1.26.5-.87Z"/>
  <path class="cls-3"
        fill="currentColor"
        d="M38.32,12.83a7.56,7.56,0,1,0,2.22,5.35A7.56,7.56,0,0,0,38.32,12.83Zm-3.06,7.64a3.24,3.24,0,1,1,1-2.29A3.21,3.21,0,0,1,35.26,20.47ZM21.09,18.18v-.61a5.18,5.18,0,0,0-2.17-.47,5.39,5.39,0,0,0-2.61,10.11,5.3,5.3,0,0,0,5.23,0,5.63,5.63,0,0,0,2-1.88A11.65,11.65,0,0,1,21.09,18.18ZM40,36.55H23.83A22.45,22.45,0,0,1,33,34.39a19.56,19.56,0,0,1,3.71.39,22.47,22.47,0,0,1,3.24.87,8.14,8.14,0,0,1,1.18-4.18,28,28,0,0,0-3.29-.87A25.42,25.42,0,0,0,33,30.06c-5.06,0-15.13,2.53-15.13,7.57v3.24H41.77A8.08,8.08,0,0,1,40,36.55ZM7,37.63v3.24h6.48V36.7c0-2.18,1.49-4,3.7-5.45C13.05,31.75,7,33.87,7,37.63Zm41.69-6.38.19.13v-.1Z"/>
</svg>
