<svg width="49" height="49" viewBox="0 0 49 49" fill="none" xmlns="http://www.w3.org/2000/svg">
<path d="M32.1512 18.085C44.2078 18.085 44.2078 26.1228 44.2078 26.1228V30.1416H32.1512V26.1228C32.1512 26.1228 32.1512 22.7268 29.8403 19.6926C29.4987 19.2304 29.0767 18.7883 28.6346 18.3663C29.6796 18.2056 30.8249 18.085 32.1512 18.085ZM16.0757 22.1039C23.1087 22.1039 23.9928 25.2386 24.1134 26.1228H8.03792C8.15848 25.2386 9.04264 22.1039 16.0757 22.1039ZM16.0757 18.085C4.01904 18.085 4.01904 26.1228 4.01904 26.1228V30.1416H28.1323V26.1228C28.1323 26.1228 28.1323 18.085 16.0757 18.085ZM18.0851 34.1605V38.1794H30.1417V34.1605L36.17 40.1888L30.1417 46.2171V42.1983H18.0851V46.2171L12.0568 40.1888L18.0851 34.1605ZM16.0757 6.0284C17.1809 6.0284 18.0851 6.93264 18.0851 8.03783C18.0851 9.14302 17.1809 10.0473 16.0757 10.0473C14.9705 10.0473 14.0662 9.14302 14.0662 8.03783C14.0662 6.93264 14.9705 6.0284 16.0757 6.0284ZM16.0757 2.00952C12.74 2.00952 10.0474 4.70217 10.0474 8.03783C10.0474 11.3735 12.74 14.0661 16.0757 14.0661C19.4113 14.0661 22.104 11.3735 22.104 8.03783C22.104 4.70217 19.4113 2.00952 16.0757 2.00952ZM32.1512 2.00952C28.8155 2.00952 26.1229 4.70217 26.1229 8.03783C26.1229 11.3735 28.8155 14.0661 32.1512 14.0661C35.4868 14.0661 38.1795 11.3735 38.1795 8.03783C38.1795 4.70217 35.4868 2.00952 32.1512 2.00952Z" fill="currentColor"/>
</svg>
