<?xml version="1.0" encoding="utf-8"?>
<!-- Generator: Adobe Illustrator 24.0.3, SVG Export Plug-In . SVG Version: 6.00 Build 0)  -->
<svg version="1.1" id="Calque_1" xmlns="http://www.w3.org/2000/svg" xmlns:xlink="http://www.w3.org/1999/xlink" x="0px" y="0px"
	 viewBox="0 0 44 38" style="enable-background:new 0 0 44 38;" xml:space="preserve">
<path class="st0" fill="currentColor" d="M28.3,18.6h2.8v5.2l4.5,2.6l-1.4,2.4l-5.9-3.4V18.6z M30.2,14.9c-2.5,0-4.8,1-6.6,2.7c-1.7,1.7-2.7,4.1-2.7,6.6
	c0,2.5,1,4.8,2.7,6.6c1.7,1.7,4.1,2.7,6.6,2.7s4.8-1,6.6-2.7s2.7-4.1,2.7-6.6c0-2.5-1-4.8-2.7-6.6S32.6,14.9,30.2,14.9z M30.2,11.2
	c3.4,0,6.8,1.4,9.2,3.8c2.4,2.4,3.8,5.7,3.8,9.2s-1.4,6.8-3.8,9.2c-2.4,2.4-5.7,3.8-9.2,3.8c-5.2,0-9.7-3-11.8-7.4h-18v-5.6
	c0-4.9,9.9-7.4,14.9-7.4c1.1,0,2.5,0.1,3.9,0.4c1.2-1.8,2.8-3.3,4.7-4.4C25.9,11.8,28,11.2,30.2,11.2z M17.2,24.2
	c0-1.3,0.2-2.6,0.5-3.7c-0.8-0.1-1.6-0.2-2.4-0.2C9.8,20.3,4,23,4,24.2v2h13.4C17.2,25.6,17.2,24.9,17.2,24.2z M15.3,0.1
	c2,0,3.9,0.8,5.3,2.2c1.4,1.4,2.2,3.3,2.2,5.3c0,2-0.8,3.9-2.2,5.3c-1.4,1.4-3.3,2.2-5.3,2.2c-2,0-3.9-0.8-5.3-2.2
	c-1.4-1.4-2.2-3.3-2.2-5.3c0-2,0.8-3.9,2.2-5.3C11.5,0.9,13.3,0.1,15.3,0.1z M15.3,3.6c-1,0-2,0.4-2.8,1.1s-1.1,1.7-1.1,2.8
	c0,1,0.4,2,1.1,2.8c0.7,0.7,1.7,1.1,2.8,1.1s2-0.4,2.8-1.1c0.7-0.7,1.1-1.7,1.1-2.8c0-1-0.4-2-1.1-2.8C17.3,4,16.3,3.6,15.3,3.6z"/>
</svg>
