<svg viewBox="0 0 66 66" fill="none" xmlns="http://www.w3.org/2000/svg">
  <path d="M52.1667 14H13.8333C11.7442 14.0778 10.0767 15.7694 10 17.8889V45.1111C10.0767 47.2306 11.7442 48.9222 13.8333 49H52.1667C54.2558 48.9222 55.9233 47.2306 56 45.1111V17.8889C55.9647 16.8689 55.5495 15.9004 54.8381 15.1787C54.1268 14.457 53.1721 14.0358 52.1667 14ZM52.1667 45.1111H13.8333V17.8889H52.1667V45.1111ZM36.8333 41.2222V38.7917C36.8333 35.5639 30.4317 33.9306 27.25 33.9306C24.0683 33.9306 17.6667 35.5639 17.6667 38.7917V41.2222H36.8333ZM27.25 21.7778C25.9792 21.7778 24.7604 22.2899 23.8618 23.2016C22.9632 24.1132 22.4583 25.3496 22.4583 26.6389C22.4583 27.2773 22.5823 27.9094 22.8231 28.4992C23.0639 29.0889 23.4168 29.6248 23.8618 30.0762C24.7604 30.9878 25.9792 31.5 27.25 31.5C27.8792 31.5 28.5023 31.3743 29.0837 31.13C29.665 30.8857 30.1933 30.5276 30.6382 30.0762C31.0832 29.6248 31.4361 29.0889 31.6769 28.4992C31.9177 27.9094 32.0417 27.2773 32.0417 26.6389C32.0417 26.0005 31.9177 25.3684 31.6769 24.7786C31.4361 24.1888 31.0832 23.653 30.6382 23.2016C30.1933 22.7502 29.665 22.3921 29.0837 22.1478C28.5023 21.9035 27.8792 21.7778 27.25 21.7778ZM36.8333 21.7778V23.7222H48.3333V21.7778H36.8333ZM36.8333 25.6667V27.6111H48.3333V25.6667H36.8333ZM36.8333 29.5556V31.5H44.5V29.5556H36.8333Z" fill="currentColor"/>
</svg>
