<svg viewBox="0 0 27 27" fill="currentColor" xmlns="http://www.w3.org/2000/svg">
<path d="M25.2329 9.52436C26.7434 8.01395 26.0546 6.24978 25.2329 5.39186L21.6079 1.76687C20.0854 0.256449 18.3334 0.945199 17.4754 1.76687L15.4213 3.83312H12.2917C9.99586 3.83312 8.66669 5.04145 7.99003 6.43103L2.62503 11.796V16.6294L1.76711 17.4752C0.256693 18.9977 0.945443 20.7498 1.76711 21.6077L5.39211 25.2327C6.04461 25.8852 6.74544 26.1269 7.41003 26.1269C8.26794 26.1269 9.05336 25.7039 9.52461 25.2327L12.7871 21.9581H17.125C19.1792 21.9581 20.2184 20.6773 20.5929 19.4206C21.9584 19.0581 22.7075 18.0189 23.0096 17.0039C24.8825 16.5206 25.5834 14.7444 25.5834 13.4998V9.87478H24.8704L25.2329 9.52436ZM23.1667 13.4998C23.1667 14.0435 22.9371 14.7081 21.9584 14.7081H20.75V15.9164C20.75 16.4602 20.5204 17.1248 19.5417 17.1248H18.3334V18.3331C18.3334 18.8769 18.1038 19.5414 17.125 19.5414H11.7963L7.83294 23.5048C7.45836 23.8552 7.24086 23.6498 7.10794 23.5169L3.49503 19.916C3.14461 19.5414 3.35003 19.3239 3.48294 19.191L5.04169 17.6202V12.7869L7.45836 10.3702V12.2914C7.45836 13.7535 8.42503 15.9164 11.0834 15.9164C13.7417 15.9164 14.7084 13.7535 14.7084 12.2914H23.1667V13.4998ZM23.5171 7.80853L21.4629 9.87478H12.2917V12.2914C12.2917 12.8352 12.0621 13.4998 11.0834 13.4998C10.1046 13.4998 9.87503 12.8352 9.87503 12.2914V8.66645C9.87503 8.11061 10.0804 6.24978 12.2917 6.24978H16.4121L19.1671 3.49478C19.5417 3.14437 19.7592 3.34978 19.8921 3.4827L23.505 7.08353C23.8554 7.45812 23.65 7.67561 23.5171 7.80853Z" fill="currentColor"/>
</svg>
