<svg viewBox="0 0 48 48" fill="none" xmlns="http://www.w3.org/2000/svg">
<circle cx="24" cy="24" r="24" fill="white"/>
<path d="M34.88 32.536C35.008 32.8133 35.072 33.0907 35.072 33.368C35.072 33.8587 34.8693 34.2747 34.464 34.616C34.08 34.9573 33.632 35.128 33.12 35.128C32.7787 35.128 32.4587 35.0427 32.16 34.872C31.8613 34.68 31.6267 34.392 31.456 34.008L29.536 29.72H18.272L16.352 34.008C16.1813 34.392 15.9467 34.68 15.648 34.872C15.3493 35.0427 15.0187 35.128 14.656 35.128C14.1653 35.128 13.7173 34.9573 13.312 34.616C12.9067 34.2747 12.704 33.8587 12.704 33.368C12.704 33.0907 12.768 32.8133 12.896 32.536L21.728 13.56C21.92 13.1333 22.208 12.8133 22.592 12.6C22.9973 12.3653 23.424 12.248 23.872 12.248C24.32 12.248 24.736 12.3653 25.12 12.6C25.5253 12.8133 25.824 13.1333 26.016 13.56L34.88 32.536ZM28.128 26.52L23.904 17.016L19.68 26.52H28.128Z" fill="#663C00"/>
</svg>
