<svg viewBox="0 -2 22 22" fill="currentColor" xmlns="http://www.w3.org/2000/svg">
<path d="M18.0587 10.8252L12.8337 16.0502H10.7253V13.9418L15.9503 8.71683L18.0587 10.8252ZM21.1753 10.0918C21.1753 10.3668 20.9003 10.6418 20.6253 10.9168L18.3337 13.2085L17.5087 12.3835L19.892 10.0002L19.342 9.45016L18.7003 10.0918L16.592 7.9835L18.6087 6.0585C18.792 5.87516 19.1587 5.87516 19.4337 6.0585L20.717 7.34183C20.9003 7.52516 20.9003 7.89183 20.717 8.16683C20.5337 8.35016 20.3503 8.5335 20.3503 8.71683C20.3503 8.90016 20.5337 9.0835 20.717 9.26683C20.992 9.54183 21.267 9.81683 21.1753 10.0918ZM2.75033 17.3335V2.66683H9.16699V7.25016H13.7503V8.62516L15.5837 6.79183V6.3335L10.0837 0.833496H2.75033C1.74199 0.833496 0.916992 1.6585 0.916992 2.66683V17.3335C0.916992 18.3418 1.74199 19.1668 2.75033 19.1668H13.7503C14.7587 19.1668 15.5837 18.3418 15.5837 17.3335H2.75033ZM10.0837 14.6752C9.90033 14.6752 9.71699 14.7668 9.62533 14.7668L9.16699 12.7502H7.79199L5.86699 14.3085L6.41699 11.8335H5.04199L4.12533 16.4168H5.50033L8.15866 14.0335L8.70866 16.1418H9.62533L10.0837 16.0502V14.6752Z"/>
</svg>
