<svg width="22" height="17" viewBox="0 0 22 17" fill="currentColor" xmlns="http://www.w3.org/2000/svg">
<path d="M7.73774 4.00781C8.7268 4.00781 9.52828 4.81563 9.52828 5.8125C9.52828 6.80938 8.7268 7.61719 7.73774 7.61719C6.74869 7.61719 5.94721 6.80938 5.94721 5.8125C5.94721 4.81563 6.74869 4.00781 7.73774 4.00781ZM7.73774 11.7422C10.2701 11.7422 12.9388 12.9969 12.9388 13.5469V14.4922H2.53667V13.5469C2.53667 12.9969 5.20542 11.7422 7.73774 11.7422ZM7.73774 2.375C5.85342 2.375 4.32721 3.91328 4.32721 5.8125C4.32721 7.71172 5.85342 9.25001 7.73774 9.25001C9.62207 9.25001 11.1483 7.71172 11.1483 5.8125C11.1483 3.91328 9.62207 2.375 7.73774 2.375ZM7.73774 10.1094C5.46121 10.1094 0.916666 11.2609 0.916666 13.5469V16.125H14.5588V13.5469C14.5588 11.2609 10.0143 10.1094 7.73774 10.1094Z" fill="currentColor"/>
<rect x="14" y="0.772736" width="8" height="1.90909" fill="currentColor"/>
<rect x="14" y="4.59091" width="8" height="1.90909" fill="currentColor"/>
<rect x="14" y="8.40909" width="8" height="1.90909" fill="currentColor"/>
</svg>
