<svg width="38" height="38" viewBox="0 0 38 38" fill="none" xmlns="http://www.w3.org/2000/svg">
<path d="M6.21783 3.10889C5.39328 3.10889 4.60251 3.43643 4.01947 4.01947C3.43643 4.60251 3.10889 5.39329 3.10889 6.21783V31.0894C3.10889 31.9139 3.43643 32.7047 4.01947 33.2877C4.60251 33.8707 5.39328 34.1983 6.21783 34.1983H19.2909C20.9765 35.2112 22.905 35.7484 24.8715 35.7528C27.7574 35.7528 30.5251 34.6063 32.5657 32.5657C34.6063 30.5251 35.7528 27.7574 35.7528 24.8715C35.75 22.5304 34.9923 20.2525 33.5921 18.3763C32.1919 16.5 30.2239 15.1254 27.9804 14.4565V12.4357L18.6536 3.10889H6.21783ZM6.21783 6.21783H17.0991V13.9902H24.8715C21.9856 13.9902 19.2179 15.1366 17.1772 17.1772C15.1366 19.2179 13.9902 21.9856 13.9902 24.8715C13.9923 27.0956 14.6758 29.2656 15.9488 31.0894H6.21783V6.21783ZM24.8715 17.0991C26.9328 17.0991 28.9097 17.918 30.3673 19.3756C31.8249 20.8332 32.6438 22.8101 32.6438 24.8715C32.6438 26.9328 31.8249 28.9098 30.3673 30.3674C28.9097 31.825 26.9328 32.6438 24.8715 32.6438C22.8101 32.6438 20.8332 31.825 19.3756 30.3674C17.918 28.9098 17.0991 26.9328 17.0991 24.8715C17.0991 22.8101 17.918 20.8332 19.3756 19.3756C20.8332 17.918 22.8101 17.0991 24.8715 17.0991ZM23.317 18.6536V26.4259L28.9286 29.7836L30.0945 27.8871L25.6487 25.2601V18.6536H23.317Z" fill="currentColor"/>
</svg>
