<svg width="37" height="37" viewBox="0 0 37 37" fill="none" xmlns="http://www.w3.org/2000/svg">
<path d="M18.1986 12.1325C19.8075 12.1325 21.3505 12.7717 22.4881 13.9093C23.6257 15.0469 24.2649 16.5899 24.2649 18.1988C24.2649 19.8076 23.6257 21.3506 22.4881 22.4882C21.3505 23.6259 19.8075 24.265 18.1986 24.265C16.5898 24.265 15.0468 23.6259 13.9092 22.4882C12.7715 21.3506 12.1324 19.8076 12.1324 18.1988C12.1324 16.5899 12.7715 15.0469 13.9092 13.9093C15.0468 12.7717 16.5898 12.1325 18.1986 12.1325ZM18.1986 15.1657C17.3942 15.1657 16.6227 15.4852 16.0539 16.054C15.4851 16.6229 15.1655 17.3943 15.1655 18.1988C15.1655 19.0032 15.4851 19.7747 16.0539 20.3435C16.6227 20.9123 17.3942 21.2319 18.1986 21.2319C19.0031 21.2319 19.7746 20.9123 20.3434 20.3435C20.9122 19.7747 21.2318 19.0032 21.2318 18.1988C21.2318 17.3943 20.9122 16.6229 20.3434 16.054C19.7746 15.4852 19.0031 15.1657 18.1986 15.1657ZM15.1655 33.3643C14.7864 33.3643 14.4679 33.0914 14.4072 32.7274L13.8461 28.7085C12.8907 28.3294 12.0718 27.8137 11.2831 27.2071L7.50692 28.7388C7.17327 28.8602 6.7638 28.7388 6.58182 28.4052L3.5487 23.1579C3.45588 23.0016 3.42316 22.8169 3.45666 22.6383C3.49015 22.4597 3.58757 22.2993 3.73069 22.1873L6.93062 19.6698L6.82447 18.1988L6.93062 16.6822L3.73069 14.2102C3.58757 14.0982 3.49015 13.9379 3.45666 13.7592C3.42316 13.5806 3.45588 13.3959 3.5487 13.2396L6.58182 7.99234C6.7638 7.6587 7.17327 7.52221 7.50692 7.6587L11.2831 9.17526C12.0718 8.5838 12.8907 8.06817 13.8461 7.68903L14.4072 3.67016C14.4679 3.30618 14.7864 3.0332 15.1655 3.0332H21.2318C21.6109 3.0332 21.9294 3.30618 21.99 3.67016L22.5512 7.68903C23.5066 8.06817 24.3255 8.5838 25.1141 9.17526L28.8904 7.6587C29.224 7.52221 29.6335 7.6587 29.8155 7.99234L32.8486 13.2396C33.0457 13.5733 32.9547 13.9827 32.6666 14.2102L29.4667 16.6822L29.5728 18.1988L29.4667 19.7153L32.6666 22.1873C32.9547 22.4148 33.0457 22.8243 32.8486 23.1579L29.8155 28.4052C29.6335 28.7388 29.224 28.8753 28.8904 28.7388L25.1141 27.2223C24.3255 27.8137 23.5066 28.3294 22.5512 28.7085L21.99 32.7274C21.9294 33.0914 21.6109 33.3643 21.2318 33.3643H15.1655ZM17.0612 6.06632L16.5001 10.0245C14.6802 10.4037 13.0727 11.3743 11.9049 12.724L8.25003 11.1468L7.11261 13.1183L10.3125 15.469C9.70592 17.2383 9.70592 19.1593 10.3125 20.9286L7.09745 23.2944L8.23486 25.2659L11.9201 23.6887C13.0878 25.0233 14.6802 25.9939 16.4849 26.3578L17.0461 30.3312H19.3512L19.9123 26.373C21.717 25.9939 23.3094 25.0233 24.4772 23.6887L28.1624 25.2659L29.2998 23.2944L26.0847 20.9437C26.6914 19.1694 26.6914 17.2433 26.0847 15.469L29.2847 13.1183L28.1472 11.1468L24.4923 12.724C23.3007 11.3444 21.6842 10.4001 19.8972 10.0397L19.3361 6.06632H17.0612Z" fill="currentColor"/>
</svg>
