<svg width="26" height="26" viewBox="0 0 26 26" fill="currentColor" xmlns="http://www.w3.org/2000/svg">
<path d="M14.0532 21.5623L10.5007 19.4719L6.94817 21.5623L7.89067 17.5265L4.76108 14.8198L8.8815 14.4694L10.5007 10.6873L12.1198 14.4694L16.2402 14.8198L13.1107 17.5265L14.0532 21.5623ZM20.1673 0.416504H0.833999V2.83317L6.7065 7.2315C4.65766 8.10584 2.97366 9.66095 1.9393 11.6338C0.904946 13.6067 0.583707 15.8763 1.02992 18.0588C1.47613 20.2412 2.6624 22.2026 4.38811 23.6112C6.11383 25.0198 8.27307 25.7891 10.5007 25.7891C12.7283 25.7891 14.8875 25.0198 16.6132 23.6112C18.3389 22.2026 19.5252 20.2412 19.9714 18.0588C20.4176 15.8763 20.0964 13.6067 19.062 11.6338C18.0277 9.66095 16.3437 8.10584 14.2948 7.2315L20.1673 2.83317V0.416504ZM17.7507 16.1248C17.7513 17.4978 17.3621 18.8428 16.6282 20.0032C15.8944 21.1637 14.8461 22.0919 13.6054 22.6798C12.3647 23.2678 10.9825 23.4914 9.61964 23.3245C8.25682 23.1577 6.96939 22.6073 5.90714 21.7373C4.84489 20.8674 4.0515 19.7138 3.61928 18.4106C3.18705 17.1074 3.13377 15.7082 3.46561 14.3759C3.79746 13.0437 4.50081 11.833 5.49381 10.8848C6.48681 9.93659 7.72865 9.28986 9.07483 9.01984C10.0156 8.82645 10.9858 8.82645 11.9265 9.01984C13.5685 9.3492 15.0459 10.2369 16.1076 11.5321C17.1693 12.8273 17.7499 14.4501 17.7507 16.1248ZM11.2619 6.45817H9.73942L4.90608 2.83317H16.1919L11.2619 6.45817Z" />
</svg>
