<svg
  xmlns="http://www.w3.org/2000/svg"
  viewBox="0 -60 220 220">
  <g transform="matrix(1.25,0,0,-1.25,-890.66124,463.799)">
    <g transform="matrix(2.2189778,0,0,2.2189778,-868.55704,-354.9127)">
      <path
        d="m 781.8381,294.2927 0,0.8418 0.6181,0 c 0.4112,0 0.5225,-0.1269 0.5225,-0.373 0,-0.252 -0.1113,-0.4551 -0.5957,-0.4688 l -0.5449,0 z m 0.4336,-0.5137 c 0.1776,-0.0156 0.3486,0 0.4775,-0.1347 0.1475,-0.1563 0.1475,-0.418 0.1846,-0.7012 0.0234,-0.1934 0.0752,-0.4023 0.1123,-0.5879 l 0.6562,0 c -0.1123,0.2969 -0.1494,0.6406 -0.1943,0.9531 -0.0527,0.3575 -0.1036,0.5586 -0.5586,0.6485 l 0,0.0156 c 0.4404,0.0898 0.6709,0.3867 0.6709,0.7676 0,0.7441 -0.627,0.9082 -1.2296,0.9082 l -1.0664,0 0,-3.293 0.5138,0 0,1.4238 0.4336,0 z m 0.1631,-2.623 c 1.5517,0 2.7948,1.25 2.7948,2.8086 0,1.543 -1.2431,2.7949 -2.7948,2.7949 -1.5577,0 -2.8097,-1.2519 -2.8097,-2.7949 0,-1.5586 1.252,-2.8086 2.8097,-2.8086 z m 0,0.4902 c -1.2814,0 -2.3164,1.0371 -2.3164,2.3184 0,1.2656 1.035,2.3027 2.3164,2.3027 1.2754,0 2.3046,-1.0371 2.3046,-2.3027 0,-1.2813 -1.0292,-2.3184 -2.3046,-2.3184"
        id="path3466"
        style="fill:#ee2722;fill-opacity:1;fill-rule:nonzero;stroke:none" />
      <path
        d="m 777.6974,319.4397 -4.5009,0 0,-4.4961 4.5009,0 c 1.0683,0 1.9277,-0.8701 1.9277,-1.9321 0,-1.0694 -0.8594,-1.9287 -1.9277,-1.9287 l -4.5009,0 0,-4.5 4.5009,0 c 3.5518,0 6.4288,2.8798 6.4288,6.4287 0,3.5498 -2.877,6.4282 -6.4288,6.4282 z m -25.6503,-23.7915 c 5.3877,0 10.0311,3.1553 12.2002,7.7217 l 5.7373,0 0,-7.7217 3.2119,0 0,7.7217 4.5009,0 c 5.3292,0 9.6465,4.3173 9.6465,9.6416 0,5.3256 -4.3173,9.6445 -9.6465,9.6445 l -7.7128,0 0,-11.5732 -4.5773,0 c -0.9335,6.5405 -6.5595,11.5732 -13.3602,11.5732 l -15.8282,0 -15.7446,-27.0078 3.7559,0 4.5,7.7217 16.1801,0 0,-7.7217 7.1368,0 z m 39.7977,17.3633 c 0,-7.8106 -6.3349,-14.1416 -14.1474,-14.1416 l 0,-7.7139 -12.2119,0 0,6.0176 c -3.3037,-3.6934 -8.0957,-6.0176 -13.4384,-6.0176 l -11.6377,0 0,7.7139 -9.0957,0 -4.5,-7.7139 -14.2847,0 20.9971,36 18.521,0 c 5.3427,0 10.1347,-2.3306 13.4384,-6.0244 l 0,6.0244 12.2119,0 c 7.8125,0 14.1474,-6.336 14.1474,-14.1445 z m -51.4354,6.4282 0,-8.3569 -7.1792,0 -2.6221,-4.5 14.3022,0 0,12.8569 -4.5009,0 z m 21.9267,-10.2837 c 0,-5.6816 -4.6084,-10.2861 -10.289,-10.2861 l -3.923,0 0,4.5 3.923,0 c 3.1982,0 5.7899,2.5869 5.7899,5.7861 0,3.1924 -2.5917,5.7876 -5.7899,5.7876 l -3.923,0 0,4.4961 3.923,0 c 5.6806,0 10.289,-4.6045 10.289,-10.2837"
        id="path3468"
        style="fill:#ee2722;fill-opacity:1;fill-rule:nonzero;stroke:none" />
      <path
        d="m 777.6974,319.4397 -4.5009,0 0,-4.4961 4.5009,0 c 1.0683,0 1.9277,-0.8701 1.9277,-1.9321 0,-1.0694 -0.8594,-1.9287 -1.9277,-1.9287 l -4.5009,0 0,-4.5 4.5009,0 c 3.5518,0 6.4288,2.8798 6.4288,6.4287 0,3.5498 -2.877,6.4282 -6.4288,6.4282 z m -25.6503,-23.7915 c 5.3877,0 10.0311,3.1553 12.2002,7.7217 l 5.7373,0 0,-7.7217 3.2119,0 0,7.7217 4.5009,0 c 5.3292,0 9.6465,4.3173 9.6465,9.6416 0,5.3256 -4.3173,9.6445 -9.6465,9.6445 l -7.7128,0 0,-11.5732 -4.5773,0 c -0.9335,6.5405 -6.5595,11.5732 -13.3602,11.5732 l -15.8282,0 -15.7446,-27.0078 3.7559,0 4.5,7.7217 16.1801,0 0,-7.7217 7.1368,0 z m 39.7977,17.3633 c 0,-7.8106 -6.3349,-14.1416 -14.1474,-14.1416 l 0,-7.7139 -12.2119,0 0,6.0176 c -3.3037,-3.6934 -8.0957,-6.0176 -13.4384,-6.0176 l -11.6377,0 0,7.7139 -9.0957,0 -4.5,-7.7139 -14.2847,0 20.9971,36 18.521,0 c 5.3427,0 10.1347,-2.3306 13.4384,-6.0244 l 0,6.0244 12.2119,0 c 7.8125,0 14.1474,-6.336 14.1474,-14.1445 z m -51.4354,6.4282 0,-8.3569 -7.1792,0 -2.6221,-4.5 14.3022,0 0,12.8569 -4.5009,0 z m 21.9267,-10.2837 c 0,-5.6816 -4.6084,-10.2861 -10.289,-10.2861 l -3.923,0 0,4.5 3.923,0 c 3.1982,0 5.7899,2.5869 5.7899,5.7861 0,3.1924 -2.5917,5.7876 -5.7899,5.7876 l -3.923,0 0,4.4961 3.923,0 c 5.6806,0 10.289,-4.6045 10.289,-10.2837"
        id="path3470"
        style="fill:#ee2722;fill-opacity:1;fill-rule:nonzero;stroke:none" />
      <path
        d="m 777.6974,319.4397 -4.5009,0 0,-4.4961 4.5009,0 c 1.0683,0 1.9277,-0.8701 1.9277,-1.9321 0,-1.0694 -0.8594,-1.9287 -1.9277,-1.9287 l -4.5009,0 0,-4.5 4.5009,0 c 3.5518,0 6.4288,2.8798 6.4288,6.4287 0,3.5498 -2.877,6.4282 -6.4288,6.4282 z m -25.6503,-23.7915 c 5.3877,0 10.0311,3.1553 12.2002,7.7217 l 5.7373,0 0,-7.7217 3.2119,0 0,7.7217 4.5009,0 c 5.3292,0 9.6465,4.3173 9.6465,9.6416 0,5.3256 -4.3173,9.6445 -9.6465,9.6445 l -7.7128,0 0,-11.5732 -4.5773,0 c -0.9335,6.5405 -6.5595,11.5732 -13.3602,11.5732 l -15.8282,0 -15.7446,-27.0078 3.7559,0 4.5,7.7217 16.1801,0 0,-7.7217 7.1368,0 z m 39.7977,17.3633 c 0,-7.8106 -6.3349,-14.1416 -14.1474,-14.1416 l 0,-7.7139 -12.2119,0 0,6.0176 c -3.3037,-3.6934 -8.0957,-6.0176 -13.4384,-6.0176 l -11.6377,0 0,7.7139 -9.0957,0 -4.5,-7.7139 -14.2847,0 20.9971,36 18.521,0 c 5.3427,0 10.1347,-2.3306 13.4384,-6.0244 l 0,6.0244 12.2119,0 c 7.8125,0 14.1474,-6.336 14.1474,-14.1445 z m -51.4354,6.4282 0,-8.3569 -7.1792,0 -2.6221,-4.5 14.3022,0 0,12.8569 -4.5009,0 z m 21.9267,-10.2837 c 0,-5.6816 -4.6084,-10.2861 -10.289,-10.2861 l -3.923,0 0,4.5 3.923,0 c 3.1982,0 5.7899,2.5869 5.7899,5.7861 0,3.1924 -2.5917,5.7876 -5.7899,5.7876 l -3.923,0 0,4.4961 3.923,0 c 5.6806,0 10.289,-4.6045 10.289,-10.2837"
        id="path3472"
        style="fill:#ee2722;fill-opacity:1;fill-rule:nonzero;stroke:none" />
    </g>
  </g>
</svg>
