<svg
  viewBox="0 0 64 64"
  xmlns="http://www.w3.org/2000/svg"
>
  <path fill="#4386FA" fill-rule="evenodd" d="M14.4787 57.9383L0.557898 34.0617C0.192411 33.4348 0 32.7238 0 32C0 31.2762 0.192411 30.5652 0.557898 29.9383L14.4787 6.06167C14.8437 5.43569 15.3685 4.91571 16.0004 4.55387C16.6323 4.19202 17.3492 4.00102 18.0792 4H45.9358C46.6633 4.00362 47.3771 4.19586 48.0061 4.55757C48.6352 4.91929 49.1576 5.43787 49.5213 6.06167L63.4421 29.9383C63.8076 30.5652 64 31.2762 64 32C64 32.7238 63.8076 33.4348 63.4421 34.0617L49.5213 57.9383C49.1563 58.5643 48.6315 59.0843 47.9996 59.4461C47.3677 59.808 46.6508 59.999 45.9208 60H18.0717C17.343 59.9977 16.6276 59.8061 15.9971 59.4443C15.3666 59.0825 14.8431 58.5632 14.4787 57.9383ZM40.9899 38.8846L45.2669 43.1196C45.3291 43.1811 45.3785 43.2542 45.4122 43.3347C45.446 43.4152 45.4633 43.5014 45.4633 43.5885C45.4633 43.6756 45.446 43.7619 45.4122 43.8423C45.3785 43.9228 45.3291 43.9959 45.2669 44.0574L44.1469 45.1664C44.0847 45.2281 44.0109 45.277 43.9297 45.3104C43.8484 45.3437 43.7613 45.3609 43.6733 45.3609C43.5854 45.3609 43.4983 45.3437 43.417 45.3104C43.3357 45.277 43.2619 45.2281 43.1998 45.1664L38.9228 40.9314C38.8783 40.8873 38.8404 40.8372 38.8101 40.7826C36.4818 42.5917 33.5445 43.4538 30.5967 43.193C27.6489 42.9323 24.9124 41.5684 22.9449 39.3793C20.9773 37.1902 19.9268 34.3406 20.0074 31.4111C20.088 28.4817 21.2936 25.693 23.3785 23.6131C25.4635 21.5333 28.2709 20.3189 31.2286 20.2174C34.1864 20.1159 37.072 21.135 39.2973 23.0669C41.5227 24.9989 42.9203 27.6983 43.2055 30.6152C43.4906 33.5321 42.6418 36.4468 40.832 38.7655C40.8903 38.7973 40.9435 38.8374 40.9899 38.8846Z"/>
  <path fill="#4386FA" fill-rule="evenodd" d="M31.6392 40.3807C29.9087 40.3807 28.2171 39.8725 26.7783 38.9206C25.3395 37.9686 24.2181 36.6156 23.5558 35.0325C22.8936 33.4495 22.7204 31.7076 23.0579 30.027C23.3955 28.3465 24.2288 26.8028 25.4525 25.5912C26.6761 24.3796 28.2351 23.5544 29.9323 23.2202C31.6295 22.8859 33.3887 23.0574 34.9874 23.7132C36.5862 24.3689 37.9526 25.4793 38.914 26.904C39.8754 28.3287 40.3886 30.0037 40.3886 31.7172C40.3886 34.0149 39.4668 36.2185 37.8259 37.8432C36.1851 39.4679 33.9597 40.3807 31.6392 40.3807ZM26.0468 34.8357V31.2557L28.3845 31.2334V37.1877C27.4102 36.6206 26.6039 35.8094 26.0468 34.8357ZM30.4215 37.9617V28.286H32.7592V37.9617C31.9865 38.1027 31.1942 38.1027 30.4215 37.9617ZM37.1865 32.7071V34.8283C36.6283 35.7992 35.8221 36.6077 34.8488 37.1728V32.7071H37.1865Z"/>
  <path fill="#000000" opacity="0.1" d="M40.8483 24.7045C40.7554 24.4507 40.6968 24.3115 40.6968 24.3115L58.7517 42.1297L49.5363 57.9309C49.1713 58.5569 48.6466 59.0768 48.0146 59.4387C47.3827 59.8005 46.6658 59.9915 45.9359 59.9926H43.9515C38.6898 54.9165 23 39.5 23 39.5C23 39.5 23.0295 39.5118 23.0861 39.5336C25.0423 41.6324 27.7188 42.9385 30.5967 43.193C33.5445 43.4538 36.4818 42.5917 38.8101 40.7826C38.8404 40.8372 38.8783 40.8873 38.9228 40.9314L43.1998 45.1664C43.2619 45.2281 43.3357 45.277 43.417 45.3104C43.4983 45.3437 43.5854 45.3609 43.6733 45.3609C43.7613 45.3609 43.8484 45.3437 43.9297 45.3104C44.0109 45.277 44.0847 45.2281 44.1469 45.1664L45.2669 44.0574C45.3291 43.9959 45.3785 43.9228 45.4122 43.8423C45.446 43.7619 45.4633 43.6756 45.4633 43.5885C45.4633 43.5014 45.446 43.4152 45.4122 43.3347C45.3785 43.2542 45.3291 43.1811 45.2669 43.1196L40.9899 38.8846C40.9435 38.8374 40.8903 38.7973 40.832 38.7655C42.6418 36.4468 43.4906 33.5321 43.2055 30.6152C42.9938 28.4502 42.1693 26.405 40.8483 24.7045Z"/>
</svg>
