<svg
  xmlns="http://www.w3.org/2000/svg"
  viewBox="-4.5 0 34 34"
>
  <path
    fill="#FFFFFF"
    d="M 3.3156024,11.318946 H 21.659278 V 26.37017 H 3.3156024 Z"
  />
  <path
    fill="#188038"
    d="M 16.015064,9.4375293 22.599968,12.353712 24.481385,8.4968389 16.015064,0.03051852 13.663304,3.981468 Z"
  />
  <path
    fill="#188038"
    d="m 13.192958,19.785266 h 4.703523 v 2.822107 H 13.192958 Z M 6.6080543,15.081743 H 11.311542 V 17.90385 H 6.6080543 Z"
  />
  <path
    fill="#188038"
    d="M 16.070679,8.4792765 V 0.03051852 H 2.9281555 c -1.5958707,0 -2.81625279,1.22038208 -2.81625279,2.81625268 V 31.009297 c 0,1.595871 1.22038209,2.816253 2.81625279,2.816253 H 21.703184 c 1.595871,0 2.816253,-1.220382 2.816253,-2.816253 V 8.4792765 Z M 19.82567,24.438053 H 4.8056689 V 13.173043 H 19.82567 Z"
  />
  <path
    fill="#188038"
    d="m 6.6080543,19.785266 h 4.7034877 v 2.822107 H 6.6080543 Z m 6.5849037,-4.703523 h 4.703523 v 2.822107 h -4.703523 z"
  />
</svg>
