<svg xmlns="http://www.w3.org/2000/svg" viewBox="0 0 391 391" version="1.1">
  <g transform="translate(0, 94.5)">
    <path
       d="m 352.76544,201.41195 c -20.38155,-0.55253 -35.95043,1.34259 -49.26015,6.95565 -3.78249,1.59562 -9.81382,1.63693 -10.43089,6.3773 2.07843,2.17913 2.40117,5.43233 4.05359,8.11235 3.17832,5.14315 8.54352,12.03425 13.33037,15.64892 5.23094,3.94773 10.62195,8.17173 16.22985,11.59017 9.97389,6.08296 21.10965,9.55562 30.71433,15.64892 5.65953,3.59143 11.28292,8.11492 16.80561,12.16851 2.72908,2.00356 4.56481,5.11992 8.11235,6.37472 0,-0.19106 0,-0.3847 0,-0.57834 -1.86414,-2.37277 -2.34437,-5.6363 -4.05617,-8.11493 -2.50961,-2.50961 -5.02181,-5.0218 -7.534,-7.53399 -7.36617,-9.77767 -16.71783,-18.36509 -26.65816,-25.49889 -7.92645,-5.69052 -25.66929,-13.37685 -28.97671,-22.60199 -0.19365,-0.19364 -0.38471,-0.38728 -0.58093,-0.58093 5.6208,-0.63256 12.20208,-2.6671 17.38912,-4.05617 8.71393,-2.33662 16.50095,-1.73246 25.49889,-4.05617 4.05617,-1.15928 8.11234,-2.32113 12.1711,-3.47783 0,-0.77457 0,-1.54397 0,-2.31855 -4.54932,-4.66808 -7.79219,-10.84399 -12.75203,-15.06799 -12.97665,-11.05055 -27.14098,-22.09077 -41.72615,-31.29681 -8.08911,-5.10597 -18.08624,-8.42398 -26.65816,-12.75073 -2.88399,-1.45491 -7.94969,-2.2114 -9.85513,-4.63684 -4.50284,-5.74138 -6.95565,-13.01796 -10.42831,-19.70484 -7.27581,-14.00864 -14.41994,-29.308484 -20.86437,-44.045993 -4.39698,-10.05032 -7.26806,-19.961993 -12.74944,-28.978518 -26.31477,-43.2644526 -54.64084,-69.378606 -98.5203,-95.046349 -9.33617,-5.458662 -20.57778,-7.614552 -32.45712,-10.430893 -6.372141,-0.385736 -12.749444,-0.774055 -19.124166,-1.159791 -3.89093,-1.626342 -7.939355,-6.386856 -11.590168,-8.693788 -14.53612,-9.182981 -51.821399,-29.157444 -62.58794,-2.897155 -6.7981533,16.575567 10.159793,32.750422 16.224686,41.149099 4.25756,5.892421 9.70796,12.498481 12.749443,19.1246804 2.000976,4.3546396 2.346951,8.72167239 4.058754,13.3306296 4.213667,11.351342 7.87739,23.701106 13.327789,34.192674 2.754892,5.30762 5.791211,10.900025 9.2742,15.64763 2.135235,2.912388 5.793793,4.195594 6.37214,8.693788 -3.578519,5.007603 -3.78249,12.780942 -5.793793,19.124939 -9.05732,28.559737 -5.641461,64.058337 7.533996,85.195347 4.043262,6.48833 13.565325,20.40479 26.658159,15.068 11.45333,-4.6655 8.89466,-19.12159 12.1711,-31.87568 0.741,-2.89225 0.28659,-5.01767 1.73762,-6.9541 0,0.19158 0,0.38574 0,0.5799 3.47782,6.9541 6.95565,13.90794 10.43347,20.86075 7.7199,12.43445 21.42206,25.42918 33.03289,34.19732 6.021,4.54674 10.76137,12.40863 18.54582,15.068 0,-0.19365 0,-0.38471 0,-0.58093 -0.19623,0 -0.38729,0 -0.58093,0 -1.50784,-2.35212 -3.8677,-3.32549 -5.7938,-5.21545 -4.5364,-4.44604 -9.57886,-9.97389 -13.33037,-15.06799 -10.55999,-14.33732 -19.89357,-30.03013 -28.39578,-46.36455 -4.06134,-7.79864 -7.5908,-16.40412 -11.0144,-24.34167 -1.31936,-3.06085 -1.30387,-7.68762 -4.05359,-9.27343 -3.74893,5.81677 -9.27162,10.5192 -12.1711,17.38732 -4.637099,10.97826 -5.236101,24.36672 -6.953068,38.25014 -1.01727,0.36404 -0.565437,0.1136 -1.161856,0.57834 C 85.060703,167.58901 82.22319,159.27966 79.2256,152.1518 71.637383,134.12391 70.227663,105.09505 76.904468,84.344026 78.631762,78.975989 86.43944,62.065032 83.279189,57.105453 81.771357,52.155942 76.793446,49.29416 74.007571,45.512186 70.560729,40.837391 67.119051,34.682647 64.733371,29.284402 58.523892,15.227741 55.624413,-0.55130819 49.087032,-14.759269 45.962928,-21.552001 40.67777,-28.425288 36.337589,-34.463845 31.532665,-41.153043 26.151977,-46.08009 22.428871,-54.171004 c -1.324517,-2.874434 -3.124104,-7.476161 -1.159275,-10.431151 0.624821,-1.994521 1.50525,-2.82641 3.477825,-3.47705 3.361639,-2.591948 12.723624,0.862356 16.224686,2.317259 9.294855,3.860205 17.050895,7.53632 24.923121,12.750734 3.779908,2.506254 7.601126,7.35223 12.168515,8.693788 1.737621,0 3.477825,0 5.215446,0 8.158817,1.875753 17.298761,0.582477 24.920541,2.896896 13.47237,4.0949 25.54536,10.463941 36.51071,17.387576 33.40467,21.0915751 60.71605,51.116281 79.39871,86.932456 3.00534,5.766425 4.30662,11.270786 6.95307,17.387576 5.34196,12.334789 12.0704,25.02743 17.38396,37.08957 5.30323,12.03477 10.47221,24.18031 17.96747,34.19526 3.94257,5.2645 19.1629,8.08858 26.07982,11.01078 4.84881,2.05004 12.79333,4.18527 17.38654,6.95307 8.77331,5.29291 17.27294,11.59275 25.50147,17.38913 4.11297,2.89689 16.75398,9.25096 17.38396,14.48706 z"
       style="fill:#00618a;fill-rule:nonzero;stroke:none;stroke-width:2.24853;stroke-linecap:butt;stroke-linejoin:miter;stroke-dasharray:none" />
    <g
       transform="matrix(2.5819042,0,0,2.5819042,83.27919,-19.474393)"
       style="fill:#00618a;fill-rule:evenodd;stroke:none;stroke-width:0.87088;stroke-linecap:butt;stroke-linejoin:miter;stroke-dasharray:none">
      <path
         d="M 4.041,0.0303 C 2.395,0 1.231,0.21 0,0.4786 c 0,0.0751 0,0.1503 0,0.2246 0.075,0 0.15,0 0.225,0 C 1.01,2.3164 2.396,3.3545 3.367,4.7442 4.115,6.3155 4.863,7.8868 5.612,9.4571 5.686,9.3828 5.762,9.3077 5.836,9.2334 7.226,8.2539 7.863,6.6866 7.856,4.295 7.299,3.709 7.217,2.9737 6.734,2.2744 6.092,1.3428 4.85,0.8135 4.041,0.0303 Z" />
    </g>
  </g>
</svg>
