<?xml version="1.0" encoding="UTF-8" standalone="no"?>
<svg
   xmlns="http://www.w3.org/2000/svg"
   viewBox="0 -124 309 309"
   version="1.1"
   >
  <g
     fill="none"
     fill-rule="evenodd"
     transform="matrix(1.3728941,0,0,1.3728941,0.76606447,-75.869776)">
    <path
       d="m 3.592,61.606 h 9.783 L 25.21,86.453 V 61.606 h 6.288 V 93.178 H 22.195 L 9.967,66.977 V 93.178 H 3.592 Z m 35.023,0 H 59.75 v 5.151 H 45.383 v 7.512 H 58.835 V 79.42 H 45.383 v 8.517 h 14.85 v 5.242 H 38.615 V 61.605 Z m 34.623,5.239 h -9.39 v -5.238 h 25.593 v 5.238 h -9.39 v 26.334 h -6.813 z m 24.447,17.121 c 0.087,2.184 0.348,6.243 7.6,6.243 6.548,0 7.38,-4.059 7.38,-5.634 0,-3.537 -2.839,-4.236 -7.249,-5.325 -4.806,-1.182 -6.945,-1.707 -8.559,-2.796 -2.577,-1.749 -3.276,-4.107 -3.276,-6.2 0,-6.42 6.07,-9.217 12.01,-9.217 2.093,0 6.332,0.351 8.864,3.102 1.746,1.92 1.833,4.06 1.92,5.373 h -4.542 c -0.216,-3.933 -3.537,-4.806 -6.636,-4.806 -4.368,0 -6.987,1.965 -6.987,5.11 0,2.795 1.833,3.755 5.676,4.673 7.512,1.92 8.343,2.094 10.176,3.318 2.925,1.923 3.144,4.977 3.144,6.288 0,5.59 -4.368,9.825 -12.447,9.825 -2.4,0 -7.293,-0.39 -9.78,-3.579 -1.794,-2.313 -1.836,-4.848 -1.836,-6.375 z m 30.791,-22.318 v 19.524 c 0,3.36 0.744,4.758 1.398,5.673 1.965,2.622 5.022,3.105 7.206,3.105 8.514,0 8.514,-6.684 8.514,-8.955 V 61.648 h 4.236 v 19.437 c 0,1.7 -0.042,5.238 -2.577,8.382 -3.099,3.885 -7.902,4.368 -10.173,4.368 -2.97,0 -8.21,-0.831 -11.136,-5.022 -0.963,-1.398 -1.836,-3.231 -1.836,-7.95 V 61.648 Z m 30.422,31.534 V 61.65 h 4.368 v 31.533 h -4.368 z m 21.26,-0.002 V 65.361 H 169.59 v -3.714 h 25.46 v 3.714 H 184.482 V 93.18 h -4.323 z m 20.076,-31.532 h 19.782 v 3.71 h -15.414 v 9.829 h 14.673 v 3.669 h -14.673 v 10.479 h 15.762 v 3.846 h -20.13 z"
       fill="#000000"/>
  </g>
</svg>
