<svg version="1.1" xmlns="http://www.w3.org/2000/svg" viewBox="0 0 64 64">
<g>
	<g>
		<path d="M5.8,64c-2.7,0-4.4-1.9-5-3.2c-0.6-1-2.3-4.7,2.4-9.5c2-2.1,5.8-5.9,15.6-9.2c1.3-2.7,2.7-5.7,4.2-8.8
			c1.6-3.5,2.9-6.5,3.9-9.2c-4-6.4-4.7-11.1-4.6-16.4c0.1-6,4.1-7.6,6.2-7.6c0.1,0,5.8,0.2,6.2,8.9c0.1,3.2-0.4,6.9-3.3,14.6
			c2,3,4.8,6.4,8.3,10.3c1.2,1.4,2.4,2.6,3.4,3.7c1,0,2-0.1,3-0.1c8.6,0,12.9,1.9,14.7,3c3.8,2.4,3.6,6.2,2.9,7.8
			c-0.5,1.3-2.4,3.7-6.2,3.7c-0.9,0-1.9-0.1-2.9-0.4c-3.2-0.9-5.6-2.2-13-9.9c-3.4,0.3-7.2,0.8-11.2,1.6c-3.1,0.6-6.1,1.3-8.7,2.1
			C13.5,61.3,9.7,62.9,8.5,63.4C7.6,63.8,6.7,64,5.8,64z M16,47.4c-5.9,2.5-8.5,5.1-10,6.7c-2.9,3-1.9,4.6-1.9,4.6L4.4,59l0,0.1
			c0,0.1,0.5,0.9,1.4,0.9c0.3,0,0.7-0.1,1.1-0.3C7.7,59.4,10.5,57.5,16,47.4z M46.9,41.5c5,5.1,6.7,5.7,8.7,6.2
			c0.7,0.2,1.3,0.3,1.9,0.3c1.9,0,2.4-1.1,2.4-1.2c0.2-0.5,0.5-1.9-1.2-3C57.5,43.2,54.2,41.6,46.9,41.5z M24.2,40.3l-0.1,0.2
			c1.7-0.4,3.6-0.9,5.5-1.2c2.9-0.6,5.8-1,8.5-1.3l-0.1-0.1l0,0c-0.4-0.4-0.8-0.8-1.2-1.3c-2.9-3.1-5.2-6-7.1-8.5l-0.1,0.1l0,0
			c-0.9,2.1-1.8,4.3-2.9,6.8C25.8,36.8,24.9,38.6,24.2,40.3L24.2,40.3z M28.4,4c-0.6,0.1-2,0.5-2.1,3.6c-0.1,3.3,0.1,6.7,2.4,11.4
			c1.9-5.7,2-8.1,2-10C30.5,4.8,28.7,4.1,28.4,4z"/>
	</g>
</g>
</svg>
