<svg
     xmlns="http://www.w3.org/2000/svg"
     viewBox="0 -90 800 260">
  <polyline fill="#8e8b86" points="375.87 105.59 369 105.59 369 55.54 311.09 55.54 311.09 105.59 304.22 105.59 304.22 2.05 311.09 2.05 311.09 49.25 369 49.25 369 2.05 375.87 2.05 375.87 105.59"/>
  <path fill="#8e8b86" d="M428.92,53.68c16,0,26.6-5.72,26.6-24.6,0-17.73-11.73-21.16-28.89-21.16h-22V53.68Zm39,51.91h-7.58l-25.74-45.9h-30v45.9h-6.72V2.05h31.89c25.74,0,33,12.3,33,27.17,0,15.73-8.58,25.32-21.59,28.89Z"/>
  <path fill="#00dc00" d="M215.28,61.62c0-12.32,9.34-18.28,19.41-18.28s19.14,6.06,19.14,18.28Zm17.63-31.33c-20.52,0-33.95,14.08-33.95,37.3,0,28.81,20.54,37.08,35.21,37.08a40.33,40.33,0,0,0,29.18-12.49L253.9,82.7c-5,4.51-10.84,7.2-19.5,7.2-11.43,0-19.14-6.69-19.14-15.84h51S275.12,30.29,232.91,30.29Z"/>
  <path fill="#00dc00" d="M45.23,60.38c-6.52-.82-25.4-.09-25.4-8.69,0-5.1,7.91-7.85,15.21-7.85a38.59,38.59,0,0,1,21.59,6.21l9.8-9.79c-2.91-2.35-13.71-10-31.39-10-16.11,0-30.6,8.43-30.6,21.94C4.44,73,29.45,73,39.89,74c6.33.62,12.1,1,12.1,7.25,0,5.77-8.83,9-15.67,9C25.18,90.2,18.5,86.53,12,80.66L1.42,91.22a48.39,48.39,0,0,0,34,13.45c18.69,0,32.36-8.25,32.36-24.85,0-11-7.4-17.55-22.55-19.44"/>
  <path fill="#00dc00" d="M115.49,77.23c0,13.77-9.81,13-18.58,13S82.37,87.9,82.37,81.72c0-5.75,4.61-7.66,14.15-7.66h19ZM99.09,30.29a45.75,45.75,0,0,0-28.76,10l9.86,9.86a31,31,0,0,1,19-6.17c12.45,0,16.17,5,16.17,10.57v7H93.19c-8.21,0-24.35,2.07-24.35,20.13,0,13.27,7.61,23,25.77,23,9.12,0,16-3,20.77-8.65v7.2h16.11V55.57C131.49,38.91,121.28,30.29,99.09,30.29Z"/>
  <path fill="#00dc00" d="M181.24,67.44c0,5.55-.1,9.67-.54,11.76-1,4.62-6.25,10.7-15.79,10.7-2.39,0-14.63-1.37-16-12a78.72,78.72,0,0,1-.49-10.49c0-8.25.34-10.88.76-13,.85-4.16,6.28-10.27,15.73-10.27,11.56,0,15.28,7.88,15.82,10.92a93.18,93.18,0,0,1,.51,12.33m0-35.62v8c-5.49-6.38-12-9.53-21-9.53-15.27,0-23.13,8.57-25.8,17.69-1,3.39-1.33,9.86-1.33,19.43,0,9,.09,17.21,3.22,23.51,4.38,8.82,15,13.75,23.91,13.75,8.62,0,15.93-3.34,21-9.13V100c0,5.26-1.81,8.71-5.17,11.44s-7.6,4.42-13.47,4.42c-5.32,0-10.43-2.9-13.33-4.93l-10.83,10.83c7,5.69,15.41,9.57,24.47,9.64A36.85,36.85,0,0,0,187,123.26c6.48-5.09,10.56-14.67,10.56-24.83V31.82H181.24"/>
</svg>
