<svg
  height="200"
  xmlns="http://www.w3.org/2000/svg"
  viewBox="0 0 1796.69 1597.03"
>
  <path
    fill="#2b2929"
    d="M1020.59,813c-74.17-23.82-547.41,179.81-547.41,179.81s-77.05,54.71-3.48,169.24c61.1,95.09,520.68-195.42,529-158.93,19.89,87.13,189.41,254.29,189.41,254.29,28.31,9.28,91.32-28.52,91.32-28.52C1213.24,1128.32,1079.84,832,1020.59,813Z"
  />
  <path
    fill="#ed975d"
    d="M779.41,492.18S769,475.75,767.35,459.11s.94-63.49-10.79-74.42-48.88-38-62.28-32.19,30.57,32.84,31.89,46.54.5,15.21-4.63,16.12-22-19.23-22.11-12.83,16.46,41.66,24.69,48.72,20.46,61.36,20.46,61.36Z"
  />
  <path
    fill="#ebedf0"
    d="M779.41,469s-43.83,0-51.25,35.35c0,0,2.26,119.94,18,227.31-94.51-89.29-59.52-87.93-136.35-146.09-31.22-23.63-59.35,57.66-58.57,115.18s201.32,189,253,172.81C860.19,856,871.66,730.61,779.41,469Z"
  />
  <path
    fill="#2c3a64"
    d="M1586.84,1266.52c.24-.17,1.6-2,1.89-2.25l88.93-149.39a7.69,7.69,0,0,0-5-11.65,34.81,34.81,0,0,0-35.14,12.8c-17.8,23.11-56.24,59.09-94,51.37-1.2-.25-2.42-.55-3.64-.88-38.84-10.93-24.14,70.07-24.14,70.07s1.28.92,3.51,2.43C1531.33,1247.2,1575.66,1274.36,1586.84,1266.52Z"
  />
  <path
    fill="#2b2929"
    d="M388.75,1039.44s412.12-18.22,571.46,23.08c0,0,158.38,111.41,26.19,148.4-51.45,14.39-227.3,56.54-322.52,56.54-156.29,0-305.86,1-305.86,1-24.09-10.6-27.84-81.85-31.73-101C299.22,1034,388.75,1039.44,388.75,1039.44Z"
  />
  <path
    fill="#2b2929"
    d="M950.44,1060.13s432,82,599.69,108.18c0,0-18.24,70.45-45.5,86.07l-199.55,13.08c-123.18,8.09-244.69-7-318.56-36.68C819.71,1163.8,950.44,1060.13,950.44,1060.13Z"
  />
  <path
    fill="#ffb27d"
    d="M626.4,672.16c-76-3.39-175.19-120.37-175.19-120.37s56.16-17,93.53-80.85a219.92,219.92,0,0,0,19.09-42.67l25.25,41.9,37.22,61.76s-3.37,9-10.93,24.86h0c-2.52,5.29-5.49,11.35-9,18.07-4.18,8.09-9.07,17.15-14.71,27.07C615.07,628.73,626.4,672.16,626.4,672.16Z"
  />
  <path
    fill="#ed975d"
    d="M626.3,531.93s-3.37,9-10.93,24.86c-53.7-36.54-58.47-89.07-58.47-89.07s4.17-.62,32.18,2.45Z"
  />
  <path
    fill="#ffb27d"
    d="M648,545.3s-114.76-40-88.75-111.08S587.94,310.1,662.3,332.63s78.6,54.84,75.69,80.68S678.49,553.87,648,545.3Z"
  />
  <path
    fill="#2b2929"
    d="M538.25,304.7c-.85-1.54-3.21-3.13-8.9-4.64a23.46,23.46,0,0,1,11.38-.84c2.89-7.87,10.13-21.35,24.62-22,0,0-8.23,2.46-11,10.89,19.39-13.3,56-18.29,149,9C825.87,333,768,405.47,749.81,411.77S696.58,383.15,666,379.32s-45.45,39.07-56.9,43-5.22-5.94-17.7-15.14-18.62,13.73-17.77,29.65-26.35,29.58-26.35,29.58-2.71-9.33-10.7-22.62c-14.93-24.86-14.37-117.42-1.73-134.52C536,307.77,537.11,306.23,538.25,304.7Z"
  />
  <path
    fill="#f9ffff"
    d="M658.69,749.48c-8.64,222.63-83.34,188.27-44.49,254.17,24.75,42-27,75.1-83.76,117.89-1.67,1.25-3.33,2.52-5,3.79-16.29,12.39-33.53,24.51-50.76,35.53-26.73,17.09-53.49,31.6-76.83,40.5-23.81,9.11-44.06,12.43-57.09,6.76-.42-.17-.8-.32-1.17-.51-11.14-5.49-20.38-20.38-27.94-40.55-13.58-36-29-178.15-33.4-220.63-.77-7.63-1.21-12-1.21-12-25.21-310,232.11-418.83,232.11-418.83s22.52,67.28,95.26,63.15C604.54,578.81,662.35,655.13,658.69,749.48Z"
  />
  <path
    fill="#e4e5ee"
    d="M530.44,1121.54c-1.67,1.25-3.33,2.52-5,3.79-16.29,12.39-33.53,24.51-50.76,35.53-26.73,17.09-53.49,31.6-76.83,40.5-25.82,7.33-47.18,10.57-57.09,6.76-.42-.17-.8-.32-1.17-.51-11.14-5.49-20.38-20.38-27.94-40.55-13.58-36-29-178.15-33.4-220.63,31.58-90.88,75-193.6,123.18-239.61,95-90.73,124,47.45,124,47.45S451.91,935.57,530.44,1121.54Z"
  />
  <path
    fill="#f9ffff"
    d="M433,623.41C395.36,717.05,317.13,897.68,345,985.55c0,0,112.65,29.73,115.92-5.13,18.28-194.87,185.93-408,56.53-403.86C481.21,577.73,446.55,589.81,433,623.41Z"
  />
  <path
    fill="#f7c854"
    d="M594.94,589.84s89.84,271.29,37.81,533l-77.26,26.56-18.93-54.94s100.16-255.93,45.92-501.73Z"
  />
  <path
    fill="#ffb27d"
    d="M429.52,1204.53s29.36,40.09,65.35,34.41,49.24,4.74,65.35,13.26,20.52,13,14.76,15.26c-4.34,1.7-83,.84-121.58.31-12.68-.17-49-34-49-34Z"
  />
  <path
    fill="#f9ffff"
    d="M340.28,960.13c-5.47,146.38,45,246.26,58.7,297.43,0,0,16.65,7.9,29.59,3.64,28.31-9.33,28-31.79,28-31.79s.75-182.09,4.33-249C464.37,915.23,341.43,929.58,340.28,960.13Z"
  />
  <path
    fill="#f7c854"
    d="M525.4,498.43s-24.13,6.5-36.09,27.12c0,0,9.4,40.64,101.27,63.37l-3.47-10.62S534.63,552.51,525.4,498.43Z"
  />
  <path
    fill="#f7c854"
    d="M587.11,578.3s18.73-7,22.67-10.08c0,0,4.7,10.7,2.78,19.42,0,0-6.06,3.8-22,1.28S587.11,578.3,587.11,578.3Z"
  />
  <path
    fill="#f7c854"
    d="M594.94,578.2s-18.31-1.56-20.2.8,10.7,24,16.94,22.94S600,580.73,594.94,578.2Z"
  />
</svg>
