<svg
  height="300"
  xmlns="http://www.w3.org/2000/svg"
  viewBox="0 0 705.65 1312.14"
>
  <path
    fill="#ffcf4b"
    d="M168.86,496.37c10.79,33,69.64,90.18,77.77,95.88,0,0,13.69-22.82,11-35.6-2.24-10.43-25.15-47.62-33-65.89-.41-.95-.78-1.85-1.1-2.69-1.07-2.81-1.64-5-1.51-6.27.39-4,12.87-13.62,27.37-25.08,18.85-14.89,41.12-32.81,44.74-45.2,6.38-21.9,28.52-108.64,28.52-108.64s-55,11.89-70.51,25.58-82.15,127.79-84.89,157A27.29,27.29,0,0,0,168.86,496.37Z"
  />
  <path
    fill="#d9935c"
    d="M168.86,496.37c10.79,33,69.64,90.18,77.77,95.88,0,0,13.69-22.82,11-35.6-2.36-11-27.59-51.55-34.09-68.58C213.73,486.37,190.77,484.29,168.86,496.37Z"
  />
  <path
    fill="#d9935c"
    d="M322.6,295.26l0,6.73s-1.84,21.07,24.1,24.15,45.48-6.33,44.77-22.59c-2.33-12.58-4.78-23.12-4.95-33.53a72.7,72.7,0,0,1,.92-12.61l-50.27-1-14.8,2.42Z"
  />
  <path
    fill="#cb7d45"
    d="M322.41,258.82l.19,36.44a42.54,42.54,0,0,0,18.12,4c23.1,0,38-16.94,45.84-29.23a72.7,72.7,0,0,1,.92-12.61l-50.27-1Z"
  />
  <path
    fill="#ffa412"
    d="M366.91,1188.5s2.44-19,8.09-30.31,41.6-4.11,41.6-4.11,7.19,6.17,8.73,34.93Z"
  />
  <path
    fill="#ffa412"
    d="M243.9,1189c8.45-5.16,3.64-43.63,3.64-43.63s-39.36-31.49-44.78-7.38-37.4,34.94-55.6,37.89c-12.57,2-16.46,9-17.67,13.12Z"
  />
  <path
    fill="#2b478b"
    d="M326,904.36a180.17,180.17,0,0,0-2.89,21.26C319.4,997,263,1160.23,252.88,1164c-15.62,5.9-40.22-6.63-53.08-10.73-5.33-1.7-8.93-7.08-7.75-12.54,27.95-128.47,38.22-313.46,42-423,1.88-55.17,11.35-93.27,11.35-93.27S383,587.78,383.81,634.24C384.53,675.34,338.22,836.55,326,904.36Z"
  />
  <path
    fill="#233862"
    d="M326,904.36,234,717.78c1.88-55.17,11.35-93.27,11.35-93.27S383,587.78,383.81,634.24C384.53,675.34,338.22,836.55,326,904.36Z"
  />
  <path
    fill="#2b478b"
    d="M295.33,634.4l72.75,527.32s31.95,7.7,56.8,1.54c0,0,21.3-280.45,19.53-348.25s15.29-181.43-3.89-194S295.33,634.4,295.33,634.4Z"
  />
  <path
    fill="#ffcf4b"
    d="M241.4,635.37s37.18,21.68,91,21.07a404.3,404.3,0,0,0,54.76-4.12c43.19-6.4,65-18.46,64.81-23-.15-4-.43-17.52-.94-23.3-6.86-79.16-3.31-140.72-12.55-187-.11-.56-.22-1.12-.34-1.66C426,358.64,406.79,324.86,397.28,311c-3.48-5.05-5.66-7.45-5.77-7.45,0,11-23.36,20.45-42.41,19.21-16.05-1.05-26.46-13.25-26.46-19.86l0,0c-1.32,0-72.38,49.4-72.45,95.3C249.93,603.89,237.46,635.45,241.4,635.37Z"
  />
  <path
    fill="#e2a947"
    d="M387.09,651.65c0,.23.06.45.1.67,43.19-6.4,65-18.46,64.81-23-.15-4-.43-17.52-.94-23.3-6.86-79.16-3.31-140.72-12.55-187C415.84,449.4,369.23,528.77,387.09,651.65Z"
  />
  <path
    fill="#e9f3fe"
    d="M268.78,553.26l5.8,19.31,5.77,19.17L530.9,516.37a2.75,2.75,0,0,0,1-.12,3.23,3.23,0,0,0,1-.47c3.16-2.24,3.73-10.42,1.3-19.65-.13-.51-.27-1-.43-1.54-2.93-9.93-8.26-17.26-12.35-17.33a3.2,3.2,0,0,0-1,.13,3.28,3.28,0,0,0-.92.45Z"
  />
  <path
    fill="#bed4f4"
    d="M274.58,572.57l5.77,19.17L530.9,516.37a2.75,2.75,0,0,0,1-.12,3.23,3.23,0,0,0,1-.47c3.16-2.24,3.73-10.42,1.3-19.65-10.24,7.68-59.15,41.68-142.64,58.22C305.26,571.45,278.55,572.52,274.58,572.57Z"
  />
  <path
    fill="#afcdfb"
    d="M268.29,553.15c4.19-1.24,10.16,6.46,13.33,17.19S284,590.78,279.77,592s-10.15-6.46-13.32-17.2S264.1,554.38,268.29,553.15Z"
  />
  <path
    fill="#e9f3fe"
    d="M517.71,470.76,547.25,466a3.16,3.16,0,0,1,1-.32,2.93,2.93,0,0,1,1,0c4,.6,8.37,8.57,10,18.79.09.54.16,1.06.22,1.59a40.46,40.46,0,0,1-.11,12.07c-.65,3.58-1.92,6.19-3.66,7.17l-.1.07a3.07,3.07,0,0,1-1,.34,2.81,2.81,0,0,1-1,0L295.21,547.57,292,527.82l-3.23-19.91Z"
  />
  <path
    fill="#bed4f4"
    d="M410.36,525.07c55.24-3.55,84.52-32.76,107.35-54.31L547.25,466a3.16,3.16,0,0,1,1-.32,2.93,2.93,0,0,1,1,0c4,.6,8.37,8.57,10,18.79.09.54.16,1.06.22,1.59a40.46,40.46,0,0,1-.11,12.07c-1.38,3.92-2.81,6.59-3.66,7.17l-.1.07a3.07,3.07,0,0,1-1,.34,2.81,2.81,0,0,1-1,0L295.21,547.57,292,527.82C296,528.28,322.56,530.72,410.36,525.07Z"
  />
  <path
    fill="#afcdfb"
    d="M288.32,507.73c4.31-.68,9.22,7.74,11,18.79s-.36,20.57-4.67,21.25-9.22-7.73-11-18.79S284,508.41,288.32,507.73Z"
  />
  <path
    fill="#d9935c"
    d="M380.2,583.73C440.1,574.2,479.69,549.1,496,537c5.55-4.14,8.38-6.78,8.38-6.78,30.69-64.53-24.84-177.68-35-196.85-10.95-20.69-77.83-29.78-77.83-29.78a364,364,0,0,1,14.85,72.38c4.17,40.95,48.68,120.78,46.85,127.48-.45,1.69-5.83,5.23-13.67,9.7-23.25,13.24-68.17,34.58-70.9,39.59C365,559.39,380.2,583.73,380.2,583.73Z"
  />
  <path
    fill="#d9935c"
    d="M368.64,552.7s-33.47-13.39-41.69-7.92-21.9,13.7-21.9,19.17S322.39,584,337,588.6s43.21-4.87,43.21-4.87Z"
  />
  <path
    fill="#ffcf4b"
    d="M406.36,375.93c4.17,40.95,48.68,120.78,46.85,127.48-.45,1.69-5.83,5.23-13.67,9.7a12.6,12.6,0,0,0,1.51,0c35-1.54,50.86,17.83,54.9,23.82,5.55-4.14,8.38-6.78,8.38-6.78,30.69-64.53-24.84-177.68-35-196.85-10.95-20.69-77.83-29.78-77.83-29.78A364,364,0,0,1,406.36,375.93Z"
  />
  <path
    fill="#d9935c"
    d="M319.48,276.53s64.37,13,71.85-27.21,20.83-65.63-19.95-75.63-51.65,3.85-57.42,16.67S302.92,272.11,319.48,276.53Z"
  />
  <path
    fill="#233862"
    d="M390.05,260.91s12.44-26.56,22.82-38.36,4.72-70.76-40.1-68.88-60.86,34-61.33,40.11,35.85,1.41,45.76,9.43.47,21.23,11.8,25.95,20.28,4.72,18.4,15.1S390.05,260.91,390.05,260.91Z"
  />
  <path
    fill="#ffcf4b"
    d="M376.22,126.29c12.82,3.22,22.44,8.37,29.62,14.57.72.61,1.41,1.24,2.08,1.88h0c26.58,25.34,16,65.69,16,65.69s-3.54,10.19-6,14.14-37.72-.6-39.55-8.21-8.82-15.52-8.82-15.52-37.2-2.55-39.71-2.74c-8.4-.6-32.39-9-32.39-9C297.73,184.81,311.23,110,376.22,126.29Z"
  />
  <path
    fill="#e2a947"
    d="M275.42,179.26c4.46-1.1,12.07-2.31,24.61-2.77,0,0,10.53,8.72,31.46,15.37,9.84-12.4,37.86-42.27,74.35-51l.32-.09c.78,1,1.22,1.31,1.76,2h0a6.67,6.67,0,0,1,.53.7c-29.7,5.17-57.94,38.54-67.63,51a165.78,165.78,0,0,0,28.73,4.37s-65,1.22-94.74-14.43A2.78,2.78,0,0,1,275.42,179.26Z"
  />
  <path
    fill="#e2a947"
    d="M209.21,474.5c1.2,6.83,4.88,14,15.39,16.26-.41-.95-.78-1.85-1.1-2.69-1.07-2.81-1.64-5-1.51-6.27.39-4,12.87-13.62,27.37-25.08,1.2-6.5,4.12-25.78,0-41.09C244.35,396.92,207.84,466.74,209.21,474.5Z"
  />
  <path
    fill="#e2a947"
    d="M446.52,508.5s44.73-3.65,59.33,22.36c0,0-1.24,8.78-9.9,6.1,0,0-37.83-25.86-56.41-23.85C439.54,513.11,442.42,508.58,446.52,508.5Z"
  />
  <path
    fill="#e2a947"
    d="M224.6,490.76s-23.21,1-52.41,13.69c0,0-6.49-6.37-3.9-10S212,477.65,224.6,490.76Z"
  />
</svg>
