<svg
  xmlns="http://www.w3.org/2000/svg"
  viewBox="0 0 3018.13 2158.15"
>
  <defs>
    <style>
      .cls-1{fill:#c4d7e4;}.cls-2{fill:#e1f1fd;}.cls-3{fill:#fff;}.cls-4{fill:#d1e6f5;}.cls-5{fill:url(#linear-gradient);}.cls-6{fill:#ffcf61;}.cls-7{fill:#2e2d33;}.cls-8{fill:#1d191b;}.cls-9{fill:url(#linear-gradient-2);}.cls-10{fill:url(#linear-gradient-3);}.cls-11{fill:#ffdd67;}.cls-12{fill:url(#linear-gradient-4);}.cls-13{fill:#2d2d33;}.cls-14{fill:#606167;}.cls-15{fill:url(#linear-gradient-5);}.cls-16{fill:url(#linear-gradient-6);}.cls-17{fill:url(#linear-gradient-7);}.cls-18{fill:url(#linear-gradient-8);}.cls-19{fill:#362421;}.cls-20{fill:url(#linear-gradient-9);}
    </style>
    <linearGradient id="linear-gradient" x1="-289.2" y1="944.88" x2="-88.62" y2="1476.42"
                    gradientTransform="translate(2234.16)" gradientUnits="userSpaceOnUse">
      <stop offset="0" stop-color="#febbba"/>
      <stop offset="1" stop-color="#ff928e"/>
    </linearGradient>
    <linearGradient id="linear-gradient-2" x1="7322.77" y1="1938.53" x2="7379.26" y2="1938.53"
                    gradientTransform="matrix(-1, 0, 0, 1, 9976.71, 0)" xlink:href="#linear-gradient"/>
    <linearGradient id="linear-gradient-3" x1="8238.52" y1="1932.96" x2="8288.95" y2="1932.96"
                    gradientTransform="matrix(-1, 0, 0, 1, 10569.27, 0)" xlink:href="#linear-gradient"/>
    <linearGradient id="linear-gradient-4" x1="8389.08" y1="679.06" x2="8413.92" y2="525.87"
                    gradientTransform="matrix(-1, 0, 0, 1, 10569.27, 0)" xlink:href="#linear-gradient"/>
    <linearGradient id="linear-gradient-5" x1="-158.59" y1="-1098.22" x2="-235.15" y2="-1440.5"
                    xlink:href="#linear-gradient"/>
    <linearGradient id="linear-gradient-6" x1="-430.28" y1="998.12" x2="-229.7" y2="1529.66"
                    xlink:href="#linear-gradient"/>
    <linearGradient id="linear-gradient-7" x1="198.6" y1="1026.31" x2="426.86" y2="1356.02"
                    xlink:href="#linear-gradient"/>
    <linearGradient id="linear-gradient-8" x1="-4542.67" y1="-3728.45" x2="-4701.83" y2="-3517.89"
                    gradientTransform="matrix(-0.88, -0.48, -0.48, 0.88, -3657.45, 1459.58)"
                    xlink:href="#linear-gradient"/>
    <linearGradient id="linear-gradient-9" x1="1765.74" y1="1230.72" x2="2163.98" y2="1080.34"
                    gradientTransform="translate(99.02 -321.67) rotate(-11.51)" xlink:href="#linear-gradient"/>
  </defs>
  <title>bonhommeclemolette</title>
  <path class="cls-1"
        d="M225.65,1646.8a45.22,45.22,0,0,0,45.11,45.06h2439a45.22,45.22,0,0,0,45.11-45.06l20.29-1401.64c0-24.79-29.2-73.17-82.71-69.53L308.78,114A113.64,113.64,0,0,0,192.16,230.2Z"/>
  <path class="cls-2"
        d="M270.18,1603.57a42.79,42.79,0,0,0,42.67,42.67H2651a42.8,42.8,0,0,0,42.68-42.67l19.15-1272.42c-2.26-76.58-69.39-104.1-110.08-102.47L318.16,167.39a79.88,79.88,0,0,0-82,81.74Z"/>
  <rect class="cls-1" x="112.35" y="1685.06" width="2764.95" height="135.68" rx="5.65"
        transform="translate(2989.64 3505.8) rotate(180)"/>
  <path class="cls-3"
        d="M870.35,1575.75l-475.46-7a55.68,55.68,0,0,1-55.32-54.87L321.3,455a55.7,55.7,0,0,1,56.93-56.5l500.63,11.19a55.69,55.69,0,0,1,54.44,55.9l-6.9,1054.72A55.68,55.68,0,0,1,870.35,1575.75Z"/>
  <path class="cls-3"
        d="M2547.93,1578.29l-1503.66-8.87c-30.3-.2-54.9-21.94-55.37-48.94l8.74-1056.95c-.49-28.13,25.33-51,56.89-50.31l1510.61,20.9c30.35.63,54.58,22.8,54.48,49.86l-15.68,1044.91C2603.84,1556.35,2578.74,1578.49,2547.93,1578.29Z"/>
  <polygon class="cls-2" points="861.08 573.3 405.54 570.36 404.78 514.5 861.44 517.04 861.08 573.3"/>
  <polygon class="cls-2" points="861.08 664.27 405.54 661.34 404.78 605.48 861.44 608.02 861.08 664.27"/>
  <polygon class="cls-2" points="859.91 759.91 404.37 756.98 403.61 701.12 860.27 703.66 859.91 759.91"/>
  <polygon class="cls-2" points="859.91 853.22 404.37 850.29 403.61 794.43 860.27 796.97 859.91 853.22"/>
  <polygon class="cls-2" points="858.75 947.7 403.2 944.76 402.45 888.9 859.11 891.44 858.75 947.7"/>
  <polygon class="cls-2" points="858.75 1039.46 403.2 1036.52 402.45 980.66 859.11 983.2 858.75 1039.46"/>
  <polygon class="cls-2" points="860.2 1129.47 404.66 1126.54 403.9 1070.68 860.56 1073.22 860.2 1129.47"/>
  <polygon class="cls-2" points="860.7 1227.17 405.16 1224.24 404.4 1168.37 861.06 1170.92 860.7 1227.17"/>
  <path class="cls-3"
        d="M321,252.83l.34,53.31c0,21.92,18.66,39.8,41.95,40.19l2210,36.06c23.4.38,42.77-17.05,43.42-39.07l-1.78-38.26c.66-22.24-18-40.76-41.63-41.3L364.69,212.65C340.7,212.09,321,230.25,321,252.83Z"/>
  <polygon class="cls-2" points="853.77 307.49 398.29 299.97 397.54 277.53 854.15 284.91 853.77 307.49"/>
  <polygon class="cls-2" points="1251.66 581.22 1079.69 578.49 1080.01 556.42 1251.98 558.64 1251.66 581.22"/>
  <polygon class="cls-2" points="1250.37 661.03 1078.4 658.29 1078.72 636.23 1250.69 638.45 1250.37 661.03"/>
  <polygon class="cls-2" points="1249.58 744.72 1077.61 741.99 1077.92 719.92 1249.89 722.14 1249.58 744.72"/>
  <polygon class="cls-2" points="1248.65 828.02 1076.68 825.29 1076.99 803.22 1248.96 805.44 1248.65 828.02"/>
  <polygon class="cls-2" points="1247.71 915.48 1075.74 912.75 1076.06 890.68 1248.03 892.9 1247.71 915.48"/>
  <polygon class="cls-2" points="1246.52 1002.33 1074.55 999.6 1074.87 977.53 1246.83 979.75 1246.52 1002.33"/>
  <polygon class="cls-2" points="1245.56 1095.75 1073.59 1093.02 1073.9 1070.95 1245.87 1073.17 1245.56 1095.75"/>
  <polygon class="cls-2" points="1244.61 1186.51 1072.64 1183.77 1072.95 1161.7 1244.92 1163.92 1244.61 1186.51"/>
  <polygon class="cls-2" points="1243.76 1275.38 1071.79 1272.65 1072.11 1250.58 1244.08 1252.8 1243.76 1275.38"/>
  <polygon class="cls-2" points="1242.91 1362.99 1070.94 1360.26 1071.26 1338.19 1243.23 1340.41 1242.91 1362.99"/>
  <polygon class="cls-2" points="1241.94 1458.02 1069.97 1455.28 1070.29 1433.21 1242.25 1435.43 1241.94 1458.02"/>
  <polygon class="cls-2" points="1553.55 581.9 1332.58 578.49 1332.89 556.42 1553.86 559.32 1553.55 581.9"/>
  <polygon class="cls-2" points="1552.15 661.71 1331.17 658.29 1331.49 636.23 1552.46 639.13 1552.15 661.71"/>
  <polygon class="cls-2" points="1551.38 745.4 1330.41 741.99 1330.72 719.92 1551.69 722.82 1551.38 745.4"/>
  <polygon class="cls-2" points="1550.48 828.7 1329.51 825.29 1329.83 803.22 1550.8 806.12 1550.48 828.7"/>
  <polygon class="cls-2" points="1549.58 916.16 1328.61 912.75 1328.93 890.68 1549.9 893.58 1549.58 916.16"/>
  <polygon class="cls-2" points="1548.35 1003.01 1327.37 999.6 1327.69 977.53 1548.66 980.43 1548.35 1003.01"/>
  <polygon class="cls-2" points="1547.42 1096.43 1326.45 1093.02 1326.76 1070.95 1547.73 1073.85 1547.42 1096.43"/>
  <polygon class="cls-2" points="1546.5 1187.18 1325.53 1183.78 1325.85 1161.7 1546.82 1164.61 1546.5 1187.18"/>
  <polygon class="cls-2" points="1545.69 1276.06 1324.71 1272.65 1325.03 1250.58 1546 1253.48 1545.69 1276.06"/>
  <polygon class="cls-2" points="1544.87 1363.67 1323.89 1360.26 1324.21 1338.19 1545.18 1341.09 1544.87 1363.67"/>
  <polygon class="cls-2" points="1543.93 1458.7 1322.95 1455.29 1323.27 1433.22 1544.24 1436.12 1543.93 1458.7"/>
  <polygon class="cls-2" points="1840.91 581.9 1619.93 578.49 1620.25 556.42 1841.22 559.32 1840.91 581.9"/>
  <polygon class="cls-2" points="1839.51 661.71 1618.53 658.29 1618.85 636.23 1839.82 639.13 1839.51 661.71"/>
  <polygon class="cls-2" points="1838.74 745.4 1617.77 741.99 1618.08 719.92 1839.05 722.82 1838.74 745.4"/>
  <polygon class="cls-2" points="1837.84 828.7 1616.87 825.29 1617.18 803.22 1838.15 806.12 1837.84 828.7"/>
  <polygon class="cls-2" points="1836.94 916.16 1615.97 912.75 1616.29 890.68 1837.26 893.58 1836.94 916.16"/>
  <polygon class="cls-2" points="1835.71 1003.01 1614.73 999.6 1615.05 977.53 1836.02 980.43 1835.71 1003.01"/>
  <polygon class="cls-2" points="1834.78 1096.43 1613.81 1093.02 1614.12 1070.95 1835.09 1073.85 1834.78 1096.43"/>
  <polygon class="cls-2" points="1833.86 1187.18 1612.89 1183.78 1613.21 1161.7 1834.17 1164.61 1833.86 1187.18"/>
  <polygon class="cls-2" points="1833.05 1276.06 1612.07 1272.65 1612.39 1250.58 1833.36 1253.48 1833.05 1276.06"/>
  <polygon class="cls-2" points="1832.23 1363.67 1611.25 1360.26 1611.57 1338.19 1832.54 1341.09 1832.23 1363.67"/>
  <polygon class="cls-2" points="1831.29 1458.7 1610.31 1455.29 1610.63 1433.22 1831.6 1436.12 1831.29 1458.7"/>
  <polygon class="cls-2" points="2204.23 585.72 1899.5 581.15 1899.83 559.09 2204.54 563.14 2204.23 585.72"/>
  <polygon class="cls-2" points="2202.64 665.53 1897.91 660.96 1898.23 638.89 2202.95 642.95 2202.64 665.53"/>
  <polygon class="cls-2" points="2201.92 749.22 1897.19 744.65 1897.51 722.58 2202.23 726.64 2201.92 749.22"/>
  <polygon class="cls-2" points="2201.08 832.52 1896.35 827.95 1896.67 805.88 2201.39 809.94 2201.08 832.52"/>
  <polygon class="cls-2" points="2200.24 919.98 1895.51 915.41 1895.83 893.34 2200.55 897.4 2200.24 919.98"/>
  <polygon class="cls-2" points="2198.93 1006.83 1894.2 1002.26 1894.52 980.2 2199.24 984.25 2198.93 1006.83"/>
  <polygon class="cls-2" points="2198.06 1100.26 1893.33 1095.68 1893.65 1073.62 2198.37 1077.67 2198.06 1100.26"/>
  <polygon class="cls-2" points="2197.2 1191.01 1892.47 1186.44 1892.79 1164.37 2197.51 1168.43 2197.2 1191.01"/>
  <polygon class="cls-2" points="2196.43 1279.88 1891.71 1275.31 1892.03 1253.24 2196.75 1257.3 2196.43 1279.88"/>
  <polygon class="cls-2" points="2195.67 1367.5 1890.94 1362.93 1891.26 1340.86 2195.98 1344.92 2195.67 1367.5"/>
  <polygon class="cls-2" points="2194.79 1462.52 1890.06 1457.95 1890.38 1435.88 2195.1 1439.94 2194.79 1462.52"/>
  <polygon class="cls-2" points="2542.22 595.93 2269.27 591.8 2269.59 569.73 2542.53 573.35 2542.22 595.93"/>
  <polygon class="cls-2" points="2540.7 675.73 2267.75 671.6 2268.07 649.53 2541.01 653.15 2540.7 675.73"/>
  <polygon class="cls-2" points="2539.96 759.42 2267.01 755.3 2267.34 733.23 2540.27 736.85 2539.96 759.42"/>
  <polygon class="cls-2" points="2539.1 842.72 2266.15 838.59 2266.47 816.52 2539.41 820.14 2539.1 842.72"/>
  <polygon class="cls-2" points="2538.23 930.18 2265.29 926.05 2265.61 903.98 2538.55 907.6 2538.23 930.18"/>
  <polygon class="cls-2" points="2536.95 1017.04 2264.01 1012.91 2264.33 990.84 2537.26 994.46 2536.95 1017.04"/>
  <polygon class="cls-2" points="2536.06 1110.46 2263.12 1106.33 2263.44 1084.26 2536.38 1087.88 2536.06 1110.46"/>
  <polygon class="cls-2" points="2535.18 1201.21 2262.24 1197.08 2262.56 1175.01 2535.49 1178.63 2535.18 1201.21"/>
  <polygon class="cls-2" points="2534.4 1290.08 2261.45 1285.95 2261.77 1263.88 2534.71 1267.5 2534.4 1290.08"/>
  <polygon class="cls-2" points="2533.61 1377.7 2260.66 1373.57 2260.99 1351.5 2533.92 1355.12 2533.61 1377.7"/>
  <polygon class="cls-2" points="2532.71 1472.72 2259.76 1468.59 2260.08 1446.52 2533.02 1450.14 2532.71 1472.72"/>
  <path class="cls-4"
        d="M997.53,494.88l.74-34.54A48.09,48.09,0,0,1,1047,413.28l1525.6,20.4a48.08,48.08,0,0,1,47.45,48.24l-.11,36.24Z"/>
  <path class="cls-5"
        d="M1892.77,1036.94l39.41,38.86c55.94-5.38,99.06-22.78,132.17-44.86-19.92-49.56-40.16-79-56.07-96.18C1956.2,1008,1892.77,1036.94,1892.77,1036.94Z"/>
  <path class="cls-6"
        d="M2167.09,891.51l-93-145.42c-6.1,82-33.82,143.69-65.8,188.67,15.91,17.22,36.15,46.62,56.07,96.18C2147,975.84,2167.09,891.51,2167.09,891.51Z"/>
  <path class="cls-7"
        d="M2266,2040.85c-46.37,2.14-91.25.8-121.22-.74,27.28-19.43,90.15-61.68,142.75-78.51l36.11-2.16s12.24,18.61,16.6,61.2C2334.26,2028.11,2316.77,2038.52,2266,2040.85Z"/>
  <path class="cls-8"
        d="M2144.4,2040.37l.38-.26c30,1.54,74.85,2.88,121.22.74,50.77-2.33,68.26-12.74,74.24-20.21.2,2,.41,3.91.58,6a16.91,16.91,0,0,1-15.54,18.26c-38,2.87-132.14,9.37-177.55,7A6.34,6.34,0,0,1,2144.4,2040.37Z"/>
  <path class="cls-7"
        d="M2602.66,2028.44c3.4-21.77,8.84-53.24,13.05-61.28,6.6-12.63,29.2,0,29.2,0s15.86,7.39,23.16,19.72c4.65,7.86,17.52,30.22,26.24,45.4a10.17,10.17,0,0,1,1.37,5.41l-90.48,3.16A18,18,0,0,1,2602.66,2028.44Z"/>
  <path class="cls-8" d="M2695.68,2037.69a10.3,10.3,0,0,1-10,10l-64.45,1.77a18.21,18.21,0,0,1-16-8.62Z"/>
  <path class="cls-9"
        d="M2597.76,1902.24c3.35-24.67,47.56-14.71,47.56-14.71.06,2.72,5.95,60.24,8.54,85.48.72,7-3.37,13.48-9.65,15.31-3.44,1-7.46,2-11.76,2.9-7.62,1.54-15.16-3.1-17.83-11C2607.66,1959.8,2595.34,1920.13,2597.76,1902.24Z"/>
  <path class="cls-10"
        d="M2330.74,1911c-5-.16,2,25.89-5.58,51.49-1.71,5.78-6,10.31-12.06,10.39-3.9,0-8.52,0-13.22-.41a14.52,14.52,0,0,1-13.39-13.1l-6.17-66.41Z"/>
  <path class="cls-8"
        d="M2190.49,1205.1c2.23,10.89,81.23,471.66,86,710.09a8.13,8.13,0,0,0,7,7.9c10,1.4,29.55,3.19,48.49-.32a5.71,5.71,0,0,0,4.71-5.25c2.76-44.43,25-420.09-2.23-596.94,0,0,224.62,472.73,258.66,603.08a6.85,6.85,0,0,0,7,5.13c9.62-.5,29.62-2.24,45.51-8.08a11.91,11.91,0,0,0,7.5-14c-19-78-152.34-615.46-242.85-733.88Z"/>
  <path class="cls-11"
        d="M2062.09,628.22c57.7-15.12,164.12-38.78,248.84-33.73a38.35,38.35,0,0,1,36.16,36c12.79,225.64,30.28,425.87,63.22,542.36-74,29.3-147.42,42.89-219.82,32.25q-81.37-174.27-142.19-402.63s-23.77-121.49-.69-162C2051.21,634.17,2056,629.83,2062.09,628.22Z"/>
  <path class="cls-12"
        d="M2200.87,470.16s14.57,86.92,18.91,127.11a15.76,15.76,0,0,1-8.55,15.72c-15.93,8.19-49.92,21.4-87,9.28a14.68,14.68,0,0,1-10-14.31l2.54-116Z"/>
  <path class="cls-13"
        d="M2781.4,1141.6l38,9.59c65.15,16.47,109,65.43,97.85,109.35l-13.2,52.22c-11.1,43.93-72.91,66.18-138.06,49.72l-38-9.6q-3.76-.95-7.5-2.07l-1113.2-333.08L1636,904l1137.78,235.89Q2777.62,1140.65,2781.4,1141.6Zm-16.35,52.12c-49.05-12.4-94.78,1.17-102.15,30.32s26.42,62.82,75.47,75.21,94.78-1.17,102.15-30.32S2814.09,1206.11,2765.05,1193.72Z"/>
  <path class="cls-13"
        d="M1265.92,749.38l220.28,55.68a52.11,52.11,0,0,1,35.07,29.83l33,76.09a52.14,52.14,0,0,1-15.6,61.7L1473.48,1024a52.15,52.15,0,0,1-45,9.59l-220.29-55.68c-33.23-8.4-61.45,26.28-45.77,56.75,37.53,72.89,106.39,130.55,194,152.7,158.41,40,298.61-55.94,337.12-208.31s-39.23-303.45-197.65-343.49c-87.64-22.15-175.63-4.14-243.29,42.17C1224.33,697.05,1232.69,741,1265.92,749.38Z"/>
  <path class="cls-14"
        d="M1260.67,770.14,1481,825.82A52.11,52.11,0,0,1,1516,855.65l33,76.1a52.13,52.13,0,0,1-15.59,61.69l-65.16,51.29a52.15,52.15,0,0,1-45,9.59l-220.29-55.68c-33.22-8.4-61.45,26.28-45.77,56.75,37.53,72.89,106.39,130.55,194,152.7,158.41,40,298.61-55.94,337.13-208.31s-39.24-303.44-197.66-343.49c-87.64-22.15-175.63-4.14-243.29,42.17C1219.08,717.81,1227.44,761.74,1260.67,770.14Z"/>
  <path class="cls-14"
        d="M2777.21,1158.16l38,9.59c65.15,16.47,109,65.43,97.86,109.35l-13.2,52.22c-11.11,43.93-72.92,66.18-138.06,49.72l-38-9.6q-3.77-.95-7.49-2.07L1603.1,1034.29l28.76-113.77,1137.77,235.89Q2773.44,1157.21,2777.21,1158.16Zm-16.35,52.12c-49.05-12.4-94.78,1.17-102.14,30.32s26.42,62.82,75.47,75.21,94.77-1.17,102.14-30.32S2809.91,1222.67,2760.86,1210.28Z"/>
  <path class="cls-15"
        d="M2496.39,928.73c28.53,80,12.46,165.87,12.46,165.87l37.61,10s48.58-57.79,37.47-186C2549.21,913.31,2516.7,921.45,2496.39,928.73Z"/>
  <path class="cls-11"
        d="M2583.93,918.61c-1.25-14.42-3.22-29.68-6.13-45.9-25.41-141.43-206.73-250.22-249.39-274a5.82,5.82,0,0,0-8.65,5.31l6.06,192.26c101,13.57,148.77,71.35,170.57,132.49C2516.7,921.45,2549.21,913.31,2583.93,918.61Z"/>
  <path class="cls-16"
        d="M1813.44,1107.47a24.36,24.36,0,0,1-15.76-13.63c-5.77-12.94-12.28-33.67,1.61-40,20.69-9.4,58.3,29.15,58.3,29.15l18.37,29.78,16.81,8.17C1877.37,1125.2,1847.69,1118.14,1813.44,1107.47Z"/>
  <path class="cls-17"
        d="M2511.36,1075.8h-46.5s37.72,22.62,39,46.41-15,73.07-22.56,86.49c-8.3,14.67,105.29-21.85,65.19-132.9Z"/>
  <path class="cls-18"
        d="M2090.67,356.23c-1,1.84-22.64,138.86-22.64,138.86l78.5,10.69L2186.33,379S2107.54,325.42,2090.67,356.23Z"/>
  <path class="cls-19"
        d="M2157.24,391.57a11.4,11.4,0,0,1,2.27,9.77L2144,468.76a10.91,10.91,0,0,1-1.1,2.91c-2.81,5.06-13.05,20.45-28.53,9.06-13.2-9.7-25.46-18.43-36.14-20.21a11.39,11.39,0,0,0-13,9.56c-2,12.86-5.45,38.9-5.29,62.47a11.34,11.34,0,0,0,10.57,11.17c15.55,1.1,46,2.33,71.15-2.18a11.37,11.37,0,0,0,8.82-7.68c5.75-17.57,22.06-66.76,28.8-79.94,6.26-12.24,24.49-14.32,32.92-14.62a11.43,11.43,0,0,0,8.28-3.94c6.28-7.25,16.11-23.41-2.83-39.21a11.39,11.39,0,0,1-1.43-15.8c6.86-8.58,12.83-22.44-1.87-37-14.88-14.69-31.71-11-42.38-6a11.82,11.82,0,0,1-13.92-2.72,7.54,7.54,0,0,0-7-2.59,11,11,0,0,1-12.51-9.57c-1.3-10.63-7-23.14-25.81-26.72-34.51-6.58-51.63,28-51,52.25s38.5,29.26,59.94,25.18C2137.43,370.22,2151.09,384,2157.24,391.57Z"/>
  <path class="cls-20"
        d="M2173.29,478.77s.63-42.32,17.75-46.35,35.63,8.32,21.05,33.7C2194,497.68,2173.29,478.77,2173.29,478.77Z"/>
</svg>
