<svg
  xmlns="http://www.w3.org/2000/svg"
  viewBox="0 0 1898 1029"
>
  <defs>
    <style>
      .cls-1{fill:none;stroke:#c4d7e4;stroke-miterlimit:10;stroke-width:12px;}
      .cls-2{fill:#b1bfdc;}
      .cls-3{fill:#2c2b33;}
      .cls-4{fill:url(#linear-gradient);}
      .cls-5{fill:#212027;}
      .cls-6{fill:url(#linear-gradient-2);}
      .cls-7{fill:#ffdd67;}
      .cls-8{fill:url(#linear-gradient-3);}
      .cls-9{fill:url(#linear-gradient-4);}
      .cls-10{fill:#eda71b;}
      .cls-11{fill:url(#linear-gradient-5);}
      .cls-12{fill:url(#linear-gradient-6);}
      .cls-13{fill:#362421;}
      .cls-14{fill:url(#linear-gradient-7);}
      .cls-15{fill:#bbcde1;}
      .cls-16{fill:#ffbf00;}
      .cls-17{fill:#d1e6f5;}
      .cls-18{fill:#00a1e0;}
      .cls-19{fill:#28a165;}
      .cls-20{fill:#fefefe;}
      .cls-21{fill:#1e8666;}
      .cls-22{fill:#1e8f68;}
      .cls-23{fill:#8ac0a8;}
      .cls-24{fill:#87c2a6;}
      .cls-25{fill:#73b99d;}
      .cls-26{fill:#7ebfa2;}
      .cls-27{fill:#80baa4;}
      .cls-28{fill:#eaeeef;}
      .cls-29{fill:#289e64;}
      .cls-30{fill:#289963;}
      .cls-31{fill:#289762;}
      .cls-32{fill:#249464;}
      .cls-33{fill:#209067;}
      .cls-34{fill:#78c59f;}
      .cls-35{fill:#90d0b1;}
      .cls-36{fill:#6abf95;}
      .cls-37{fill:#71c29a;}
      .cls-38{fill:#4eb381;}
      .cls-39{fill:#47af7b;}
      .cls-40{fill:#7fc8a5;}
      .cls-41{fill:#41ad77;}
      .cls-42{fill:#5cb98b;}
      .cls-43{fill:#86ccaa;}
      .cls-44{fill:#64bc91;}
      .cls-45{fill:#57b788;}
      .cls-46{fill:#3aaa72;}
      .cls-47{fill:#8bcead;}
      .cls-48{fill:#60bb8e;}
      .cls-49{fill:#54b585;}
      .cls-50{fill:#33a66c;}
      .cls-51{fill:#2ea469;}
      .cls-52{fill:#36a86f;}
      .cls-53{fill:#13846f;}
      .cls-54{fill:#1b8569;}
      .cls-55{fill:#18856b;}
      .cls-56{fill:#16866d;}
      .cls-57{fill:#19896b;}
      .cls-58{fill:#15846d;}
      .cls-59{fill:#1d8d69;}
      .cls-60{fill:#1b8b6b;}
      .cls-61{fill:#1f8b66;}
      .cls-62{fill:#218763;}
      .cls-63{fill:#1d8867;}
      .cls-64{fill:#228963;}
      .cls-65{fill:#219166;}
      .cls-66{fill:#1c8e6a;}
      .cls-67{fill:#1e9068;}
      .cls-68{fill:#1a8d6c;}
      .cls-69{fill:#288a5f;}
      .cls-70{fill:#28885e;}
      .cls-71{fill:#288e60;}
      .cls-72{fill:#248861;}
      .cls-73{fill:#289160;}
      .cls-74{fill:#289461;}
      .cls-75{fill:#259463;}
      .cls-76{fill:#239365;}
      .cls-77{fill:#289a63;}
      .cls-78{fill:#289662;}
      .cls-79{fill:#289060;}
      .cls-80{fill:#289562;}
      .cls-81{fill:#289c64;}
      .cls-82{fill:#289361;}
      .cls-83{fill:#288f60;}
      .cls-84{fill:#289d64;}
      .cls-85{fill:#288c5f;}
      .cls-86{fill:#289b63;}
      .cls-87{fill:#259062;}
      .cls-88{fill:#239064;}
      .cls-89{fill:#208d66;}
      .cls-90{fill:#1b8969;}
      .cls-91{fill:#1c8b69;}
      .cls-92{fill:#248d63;}
      .cls-93{fill:#248a61;}
      .cls-94{fill:#fff;}
      .cls-95{fill:#ffe0d8;}
      .cls-96{fill:#ffb29f;}
      .cls-97{fill:#ffd8ce;}
      .cls-98{fill:#ffe1da;}
      .cls-99{fill:#ff9277;}
      .cls-100{fill:#ff9075;}
      .cls-101{fill:#ffdfd7;}
      .cls-102{fill:#ffb6a3;}
      .cls-103{fill:#ffb9a7;}
      .cls-104{fill:#ff7a59;}
      .cls-105{fill:#72c31d;}
      .cls-106{fill:#96d256;}
      .cls-107{fill:#b8e08d;}
      .cls-108{fill:#97d357;}
      .cls-109{fill:#95d255;}
      .cls-110{fill:#bce293;}
      .cls-111{fill:#dbefc5;}
      .cls-112{fill:#73c31d;}
      .cls-113{fill:#005cb8;}
      .cls-114{fill:#f08803;}
      .cls-115{fill:#663c00;}
    </style>
    <linearGradient id="linear-gradient" x1="521.5" y1="851.62" x2="562.48" y2="851.62" gradientUnits="userSpaceOnUse">
      <stop offset="0" stop-color="#ff928e"/>
      <stop offset="1" stop-color="#feb3b1"/>
    </linearGradient>
    <linearGradient id="linear-gradient-2" x1="491.87" y1="889.43" x2="530.33" y2="889.43"
                    xlink:href="#linear-gradient"/>
    <linearGradient id="linear-gradient-3" x1="805.57" y1="125.17" x2="733.57" y2="311.19"
                    xlink:href="#linear-gradient"/>
    <linearGradient id="linear-gradient-4" x1="577.84" y1="169.23" x2="449.84" y2="361.23"
                    xlink:href="#linear-gradient"/>
    <linearGradient id="linear-gradient-5" x1="790.84" y1="203.56" x2="688.84" y2="273.56"
                    xlink:href="#linear-gradient"/>
    <linearGradient id="linear-gradient-6" x1="890.01" y1="35.28" x2="648.01" y2="149.28"
                    xlink:href="#linear-gradient"/>
    <linearGradient id="linear-gradient-7" x1="821.1" y1="-1079.43" x2="910.35" y2="-1171.01"
                    gradientTransform="translate(-74.48 1551.48) rotate(-14.47)" xlink:href="#linear-gradient"/>
  </defs>
  <title>connectorsillustrationn</title>
  <g id="Illustration">
    <path class="cls-1"
          d="M1570,213H1399.19a9.18,9.18,0,0,1-9.19-9.19V179.54A15.54,15.54,0,0,0,1374.46,164H1336l-448.53,2.82a18,18,0,0,0-17.79,17.64l-2.18,118"/>
    <path class="cls-1"
          d="M905.5,302V281.56a8,8,0,0,1,8.06-8l313.93,1.06a15.68,15.68,0,0,1,15.77,15.91l-.56,36.75a12.94,12.94,0,0,0,13,13.13l130,.11a11.38,11.38,0,0,1,11.37,11.25l.25,21.78a10.06,10.06,0,0,0,10.1,9.93L1779,381.5"/>
    <path class="cls-1"
          d="M899,374.5l270.28-1.84a12.05,12.05,0,0,1,12.22,12.06v105a17.58,17.58,0,0,0,17.81,17.58L1614,504.5"/>
    <path class="cls-1"
          d="M871,445.5l109.07-1.76a12,12,0,0,1,12.26,12.19l-1.51,151.19a16.56,16.56,0,0,0,16.69,16.79L1473.09,621"/>
    <path class="cls-1"
          d="M857,484.5l56.91-.83a10.24,10.24,0,0,1,10.4,10.42l-3.48,190.58a17.33,17.33,0,0,0,17.5,17.66l394.22-1.72a11.84,11.84,0,0,1,12,11.84V745A13.33,13.33,0,0,0,1358,758.38l209.55-1.88"/>
    <rect class="cls-2" x="401.56" y="660.4" width="23.3" height="252.02"/>
    <path class="cls-2" d="M311.16,917.27H515.27V906.43a4.33,4.33,0,0,0-4.34-4.33H315.83a4.67,4.67,0,0,0-4.67,4.67Z"/>
    <rect class="cls-2" x="272.56" y="600.38" width="272.73" height="77.35" rx="26.63"/>
    <path class="cls-3" d="M543,867.77s66.54,48,55,80.19c0,0-72.81-31.42-81.61-56.16s1.49-35.68,1.49-35.68Z"/>
    <path class="cls-4"
          d="M533,827.57,522.13,859a11,11,0,0,0,4.24,12.84,28.75,28.75,0,0,0,9,3.48A12.73,12.73,0,0,0,549.47,869l13-24.51Z"/>
    <path class="cls-5"
          d="M427.12,544.43s136.68,23.69,195.31,77.85-53.81,226.94-53.81,226.94-18.43-.12-40.75-19.25c0,0,66.67-129.94,9.21-167.84-64.6-42.6-139-52.19-139-52.19l27.76-61.33Z"/>
    <path class="cls-5"
          d="M586.44,930.13c-14.64-6.77-56.08-35.77-63.06-37s-19.1,6.92-19.1,6.92-2.95,5.3.2,14.55c9.73,11.77,31.33,34.2,60.36,42.56,21.35,6.15,36.29.42,45.59-6.29A61.78,61.78,0,0,0,586.44,930.13Z"/>
    <path class="cls-3"
          d="M564.84,957.11c-29-8.36-50.63-30.79-60.36-42.56,2.13,6.24,7,14.29,17.54,23.72,26,23.4,75.74,31.83,86.33,30.21,8.48-1.31,7.68-9.13,2.08-17.66C601.13,957.53,586.19,963.26,564.84,957.11Z"/>
    <path class="cls-6"
          d="M491.87,879.53c.16,4,8.4,17.86,13.22,25.62a12.55,12.55,0,0,0,10.64,6,32.39,32.39,0,0,0,8.79-1.05A8.15,8.15,0,0,0,530,899.91l-9.42-32.14Z"/>
    <path class="cls-3"
          d="M295.55,503.4s-30.35,81.17,0,105.85,102.77,52.48,118.94,101.64,43.63,144.71,80.37,178.54c0,0,25.81-2.5,35.47-12.78,0,0-20.92-142.64-34.72-179.23-11.95-31.7-29.56-77.45-63.3-103-9.66-7.32-8-18.92-3.5-30.18L437,543.72Z"/>
    <path class="cls-7"
          d="M612.13,439.79c-50.89,3.07-35-78.24-34.12-81.48l-77.24,54.56s4.09,43.49,68.31,66.3a79.84,79.84,0,0,0,44.23,3.2A70.29,70.29,0,0,1,612.13,439.79Z"/>
    <path class="cls-8"
          d="M710.55,415.32c-19-13.2-40.46,0-40.46,0-25.36,16.58-44.12,23.63-58,24.47a70.29,70.29,0,0,0,1.18,42.58c28.41-6.11,48.73-26.67,57.57-37.22a9.18,9.18,0,0,1,12.69-1.39c3.95,3.12,7.79,7.39,7.09,11.89-1.37,8.86,8.91,11.68,9.69,8.46s-3.52-22.27-3.52-22.27,20.57,20.69,28.6,28.64,18.13,0,18.13,0S729.51,428.51,710.55,415.32Z"/>
    <path class="cls-7"
          d="M374.81,232.74s74.05-29.65,211.85,84.12c0,0,11.51,23.82-1,45S453.41,486.42,437,543.72c0,0-71.28,23.16-145-31.76C292,512,298.48,352.49,374.81,232.74Z"/>
    <path class="cls-9"
          d="M521.19,206.28l-36.45,44.19a14.5,14.5,0,0,0-1.91,15.6c5.06,10.32,17.06,25.34,43.68,23.26a22.36,22.36,0,0,0,18.4-12.54l25.48-52.69Z"/>
    <path class="cls-7"
          d="M317.48,422c-8.59-35,78.48-113,78.48-113l-21.15-76.2S186.8,357.9,234.72,458.55c6.86,14.42,16,24.53,26.56,31.29C276.42,449.09,300.55,430.4,317.48,422Z"/>
    <path class="cls-10"
          d="M317.42,416.89a2,2,0,0,1-2-1.56c-8.79-35.8,75.5-111.85,79.09-115.08a2.06,2.06,0,1,1,2.75,3.07c-.86.77-86,77.61-77.85,111a2,2,0,0,1-1.5,2.48A1.71,1.71,0,0,1,317.42,416.89Z"/>
    <path class="cls-11"
          d="M449.36,419s-103.23,40.08-128.43,9.93a16.91,16.91,0,0,1-3.45-6.92c-16.93,8.41-41.06,27.1-56.2,67.85,54.3,34.69,147.1-19.3,172.19-35.22a18.7,18.7,0,0,1,13.87-2.54c9.67,2,26.39,5,35.41,3.57,13.19-2,32.14,44.5,53.52,30.14C536.27,485.79,518,404.91,449.36,419Z"/>
    <path class="cls-12" d="M600.5,141.38c.37,1.42-8.54,98-8.54,98l-55.05-6.26-5.15-92.81S594.36,117.59,600.5,141.38Z"/>
    <path class="cls-13"
          d="M546.09,159.56,545,208.62a7.27,7.27,0,0,0,.21,1.86c1,3.73,5.2,16.32,17.82,11.2,11.45-4.64,22-8.71,29.72-7.24a6.86,6.86,0,0,1,5.55,7.36c-.82,8.78-3,28.52-7.54,45.38a6.82,6.82,0,0,1-7.81,4.92c-10.51-1.85-32.57-6.37-49.47-14.17a6.87,6.87,0,0,1-4-5.77c-.83-12.27-3.47-49.54-5.82-59.81-2.2-9.64-14.82-14.18-20.26-15.7a6.76,6.76,0,0,1-4.14-3.33c-3.07-5.78-7.93-19.4,9.06-27.06a6.87,6.87,0,0,0,3.35-9.3c-3.4-7-5.72-18,7.24-25.55,13.17-7.73,24.33-1.48,30.58,3.91a6.86,6.86,0,0,0,8.8.07,5.42,5.42,0,0,1,6.15-.47,6.75,6.75,0,0,0,9.19-3.92c2.57-7.17,8.54-15.21,22.35-14.38,24.53,1.48,30.18,27.86,25.55,44.18s-31.13,13.21-45,6.76c-10.52-4.91-22.61,2.77-27.81,6.73A6.84,6.84,0,0,0,546.09,159.56Z"/>
    <path class="cls-14"
          d="M523.43,210.22s6.85-28.79-4.06-34.46-25.58-.5-20.06,19.21C506.17,219.49,523.43,210.22,523.43,210.22Z"/>
    <path class="cls-2" d="M502.24,498h.5l216.59-.23a9.7,9.7,0,1,0,0-19.39l-216.59.23a9.7,9.7,0,0,0-.48,19.38Z"/>
    <path class="cls-15"
          d="M914,301.36H733.66a34.36,34.36,0,0,0-31.09,19.72L619.18,497.9H843.34a20.89,20.89,0,0,0,19.43-13.22l64.66-163.62A14.4,14.4,0,0,0,914,301.36Z"/>
    <path class="cls-16"
          d="M787,392c-3.91,12.15-1,23.94,6.45,26.35s16.69-5.49,20.6-17.64,1-23.94-6.45-26.34S790.87,379.88,787,392Z"/>
    <path class="cls-2"
          d="M884.79,962.55a9.36,9.36,0,0,0,3.6-.72,8.7,8.7,0,0,0,4.76-11.57L702.27,520.66a9.22,9.22,0,0,0-12-4.61,8.71,8.71,0,0,0-4.77,11.57l190.89,429.6A9.11,9.11,0,0,0,884.79,962.55Z"/>
    <path class="cls-2"
          d="M669.75,962.55a9.11,9.11,0,0,0,8.37-5.33L869,527.62a8.69,8.69,0,0,0-4.76-11.57,9.21,9.21,0,0,0-12,4.61L661.4,950.26a8.69,8.69,0,0,0,4.76,11.57A9.28,9.28,0,0,0,669.75,962.55Z"/>
    <path class="cls-2"
          d="M293.93,962.55a9.28,9.28,0,0,0,3.59-.72,8.69,8.69,0,0,0,4.76-11.57L111.4,520.66a9.22,9.22,0,0,0-12-4.61,8.69,8.69,0,0,0-4.76,11.57l190.88,429.6A9.11,9.11,0,0,0,293.93,962.55Z"/>
    <path class="cls-2"
          d="M78.89,962.55a9.1,9.1,0,0,0,8.36-5.33l190.89-429.6a8.71,8.71,0,0,0-4.77-11.57,9.2,9.2,0,0,0-11.95,4.61L70.53,950.26a8.71,8.71,0,0,0,4.77,11.57A9.28,9.28,0,0,0,78.89,962.55Z"/>
    <path class="cls-17"
          d="M56.5,507.39a10.46,10.46,0,0,1,1.81-7.94,8.27,8.27,0,0,1,6.62-3.5H933.31a9.7,9.7,0,0,1,8.33,5.11,12.21,12.21,0,0,1,.65,10.6l-9.41,22.8c-2.16,5.22-6.83,8.57-12,8.57h-850c-4.78,0-8.89-3.8-9.8-9Z"/>
    <path class="cls-18"
          d="M1570.5,193s-12.52-29.44,17.56-46.66c0,0,25.44-11.65,44,10.62,0,0,11.09-12.77,30.6-9.17A33.92,33.92,0,0,1,1684,163.9s33.61-15.94,52.56,21.49c0,0,10.77,22.5-6,41.1,0,0-13.7,18.63-38.44,13.51,0,0-4.61,10-17.93,14.05a28.9,28.9,0,0,1-20.1-2S1646,272,1622.78,272c0,0-22.27,0-30.62-21.34,0,0-22.27,4.64-31.55-13.92C1560.61,236.74,1544.2,213.24,1570.5,193Z"/>
    <g id="zgY6oz.tif">
      <path class="cls-19"
            d="M1618.13,432h60.11a2.14,2.14,0,0,1,.28.39c.23,2.73.06,5.47.1,8.2,0,1.81,0,3.62,0,5.43-.17.94-1,1.45-1.56,2q-17.5,17.58-35.07,35.12c-.52.53-1.13,1-1.64,1.54a20.89,20.89,0,0,1-4,.16c-2.88.07-4.45,1.42-5,4.22a23,23,0,0,0-.22,3.41,3.81,3.81,0,0,1-.23,1.74c-1.84,1.9-3.72,3.78-5.59,5.65-4,4-8,8.07-12.09,12.07a3.46,3.46,0,0,0-1.12,2.68c0,4.94,0,9.88,0,14.81a13.29,13.29,0,0,0,0,2.89c-.08,5.52,0,11-.07,16.55a12.52,12.52,0,0,1,0,2.37,13.77,13.77,0,0,1,0,2.13c0,.5,0,1-.53,1.27a.4.4,0,0,1-.34-.45c0-.38,0-.76,0-1.15q0-55.71,0-111.42c0-1.14.14-2.28.17-3.42.08-2.67,2.72-5.93,5.83-6.07A1.71,1.71,0,0,0,1618.13,432Z"/>
      <path class="cls-20"
            d="M1678.28,432.24a.78.78,0,0,0,0-.21c9.18,0,18.35,0,27.52,0,.76,0,.91.15.91.91,0,9.35,0,18.7,0,28.05-.44.1-.57-.22-.71-.52a11.57,11.57,0,0,0-3.36-5.91c-1-1-2-2-3.06-3a2,2,0,0,0-.5-.64,3.52,3.52,0,0,0-.53-.56,3.39,3.39,0,0,0-.51-.56c-.15-.21-.43-.3-.57-.53a7.17,7.17,0,0,0-.66-.69c-.26-.28-.57-.5-.81-.8s-.57-.33-.73-.64l-.3-.37a3.64,3.64,0,0,0-.45-.43,2.42,2.42,0,0,0-.55-.51c-.16-.21-.39-.34-.54-.55a2.84,2.84,0,0,0-.5-.59,6.17,6.17,0,0,1-.69-.66c-.25-.28-.54-.51-.77-.81a9.94,9.94,0,0,1-.8-.79,7.39,7.39,0,0,1-.7-.67c-.16-.23-.42-.35-.58-.58s-.57-.53-.81-.83a37.93,37.93,0,0,1-3.52-3.42,17.67,17.67,0,0,0-6.49-4.41A1.49,1.49,0,0,1,1678.28,432.24Z"/>
      <path class="cls-20"
            d="M1618.13,432c-.14.29-.43.2-.67.27a8.09,8.09,0,0,0-6,7.08c-.06.63-.07,1.26-.07,1.9q0,56-.05,112.05a3.07,3.07,0,0,0,.14,1.38c.51.15.44.69.68,1a1.78,1.78,0,0,1,.25.83c0,.58.55.94.7,1.46.3.62,1,.87,1.31,1.52a19.42,19.42,0,0,0,2.34,1.56,15,15,0,0,0,3.4.31h77.51a11.61,11.61,0,0,0,4-.66c.53-.36,1.11-.64,1.6-1,.5-.6,1.3-.93,1.53-1.76a10.87,10.87,0,0,0,1-2.22c.16-.37.35-.71.85-.57,0,2.12,0,4.23,0,6.35,0,.63-.15.78-.78.78-5.5,0-11,0-16.49,0H1611q0-64.54,0-129.09c0-.95.21-1.21,1.17-1.17C1614.15,432.09,1616.14,432,1618.13,432Z"/>
      <path class="cls-21"
            d="M1706.65,555.15c-.43.1-.15.61-.45.78-.67.7-1.55.57-2.38.58h-20.2a12.73,12.73,0,0,0-2.14.08,29.83,29.83,0,0,1-8.29-1.3,1.39,1.39,0,0,1-.82-.56.52.52,0,0,1,0-.47c.51-.57,1.25-.42,1.88-.61,4.15.66,8.31.1,12.47.12,5.73,0,11.46,0,17.19,0a4.59,4.59,0,0,1,2.23.27,1.37,1.37,0,0,1,.47.57Z"/>
      <path class="cls-22"
            d="M1706.35,460.2c.13.24-.06.62.3.77v.25c-.3.49,0,1.06-.2,1.57a.85.85,0,0,1-.51.29,5,5,0,0,0-2.6.31c-2.42,1-5.12.84-7.55,1.83a.9.9,0,0,1-.62.06c-1.86-.77-3.42.35-5.08.79a10.71,10.71,0,0,1-1.34.38c-.57.08-1.11,0-1.29-.67.15-.85.86-.92,1.5-1.13,3.64-1.18,7.26-2.42,10.84-3.79-2.34-.07-4.66-.07-7-.05a2.49,2.49,0,0,0-1.23-.19,78.1,78.1,0,0,1-8.79.17c-.73,0-1.53.07-2.06-.64,0-.44.33-.49.63-.6s.61,0,.92,0a6.57,6.57,0,0,0,1.53-.16,2.83,2.83,0,0,0,1.5,0,2.56,2.56,0,0,0,1.26.05,2.93,2.93,0,0,0,1.25,0c.28,0,.56.09.84.09a6.46,6.46,0,0,0,1.08,0c.46.08.92,0,1.38,0,4.55-.31,9.1-.11,13.65-.13C1705.44,459.38,1706.06,459.48,1706.35,460.2Z"/>
      <path class="cls-23"
            d="M1706.65,502.86v49a.34.34,0,0,1-.43-.08,1.48,1.48,0,0,1-.25-.67,7.82,7.82,0,0,1-.17-2.26c0-7-.12-14.06.09-21.09a3,3,0,0,0-.06-.51c0-4.73-.17-9.46.09-14.19a1.68,1.68,0,0,0-.07-.5c-.1-2.77,0-5.55,0-8.32a1.68,1.68,0,0,1,.36-1.3A.38.38,0,0,1,1706.65,502.86Z"/>
      <path class="cls-24"
            d="M1706.65,502.86h-.21c-.68-.33-.58-1-.62-1.54-.1-1.43.07-2.86,0-4.29,0-4.72-.17-9.45.09-14.17a2.07,2.07,0,0,0-.06-.5,73.57,73.57,0,0,1,.16-10,1.3,1.3,0,0,1,.2-.43.33.33,0,0,1,.43-.08Z"/>
      <path class="cls-25"
            d="M1706.36,462.75c.15-.5-.17-1.09.29-1.53v5.84a.35.35,0,0,1-.43-.05c-.41-.37-.26-.87-.31-1.33C1705.88,464.68,1705.52,463.62,1706.36,462.75Z"/>
      <path class="cls-26"
            d="M1706.44,467.07h.21v4.83h-.21c-1-.85-.48-2-.56-3C1705.94,468.22,1705.65,467.48,1706.44,467.07Z"/>
      <path class="cls-27"
            d="M1706.44,551.85h.21v2.79l-.3-.25a1.41,1.41,0,0,1-.43-1.3C1705.89,552.59,1705.89,552.1,1706.44,551.85Z"/>
      <path class="cls-28"
            d="M1630.6,494.22c0-1.47.05-2.94.08-4.42.08-3.42,2.16-5.45,5.6-5.48l4.17,0a2.81,2.81,0,0,1,1.9-.54c3.92,0,7.84-.05,11.76,0,2.05,0,4.1-.1,6.15,0,4.67-.06,9.34,0,14,0,.76,0,1.52,0,2.28,0a36.41,36.41,0,0,0,4.9,0,5.85,5.85,0,0,1,6.37,5.83,2.73,2.73,0,0,0,.12.75c.08,3.43,0,6.86,0,10.29,0,4.68.16,9.37-.08,14.06a3.29,3.29,0,0,0,.07.63c.06,5.11.13,10.23,0,15.34a44.79,44.79,0,0,1-.15,8.43,5.59,5.59,0,0,1-5.71,5,10.12,10.12,0,0,1-2.13,0c-3.44.13-6.87,0-10.31.11a4.45,4.45,0,0,0-1.5-.08c-5.23,0-10.46.07-15.7,0-3.1,0-6.2.06-9.3,0-2.64,0-5.29.16-7.93-.14a6,6,0,0,1-3.76-1.86,3,3,0,0,1-1-3c0-12.46,0-24.92,0-37.37,0-1.24-.48-2.41-.44-3.64S1629.57,495.39,1630.6,494.22Z"/>
      <path class="cls-29"
            d="M1654.14,484.28h-13.69c.09-.54.52-.85.87-1.21L1677,447.38a2.34,2.34,0,0,1,1.21-.88c.53.34.41.89.41,1.37,0,1.44,0,2.87,0,4.31V454a12.32,12.32,0,0,0,.46,4.1,5.62,5.62,0,0,1,.19.58.81.81,0,0,1,0,.38,6,6,0,0,1-1.25,1.58q-11.34,11.36-22.66,22.72A7.69,7.69,0,0,1,1654.14,484.28Z"/>
      <path class="cls-29"
            d="M1630.6,494.22a15.1,15.1,0,0,1,0,3.68,10.71,10.71,0,0,1,.1,2.77c0,4.18,0,8.37,0,12.55,0,.94-.68,1.51-1.25,2.09q-7.87,8-15.82,15.84c-.54.53-1,1.29-2,.88l-.06-18.5a1.58,1.58,0,0,1,.53-1.22l17.3-17.27A2.13,2.13,0,0,1,1630.6,494.22Z"/>
      <path class="cls-30"
            d="M1611.59,532a12.05,12.05,0,0,0,2.13-1.78q7.72-7.75,15.48-15.5c.38-.38.7-.85,1.29-1,.38.39.18.88.18,1.32,0,5,0,10.09,0,15.13a2.85,2.85,0,0,1-1.17,2q-8,8.09-16.09,16.12c-.49.48-1,1.14-1.83.69Z"/>
      <path class="cls-31"
            d="M1611.59,549a5.14,5.14,0,0,0,1.58-1.24l16-16a2.74,2.74,0,0,1,1.29-1c.38.48.17,1,.18,1.56,0,2.22,0,4.43,0,6.64a3,3,0,0,1-1,2c-2.8,2.81-5.65,5.58-8.4,8.44-1.42,1.47-3.29,1.67-5.08,2-1.15.2-2.33.34-3.5.47a1.19,1.19,0,0,1-1.12-.51Z"/>
      <path class="cls-32"
            d="M1611.59,551.35h1.21c2-.26,4.08-.25,6.12-.46a37.42,37.42,0,0,1,8.53-.28,2.23,2.23,0,0,0,1.44.22c1.07,0,2.19-.36,3.16.38.06,1.1-.82,1-1.45,1-1.19.09-2.43-.14-3.5.62a90.9,90.9,0,0,0-11.53,1.11c-.88,0-1.77,0-2.65,0a1.49,1.49,0,0,1-1.33-.56Z"/>
      <path class="cls-33"
            d="M1611.59,553.38h4a1,1,0,0,1,.35-.12c4.37,0,8.72-.42,13.08-.38.5,0,1-.11,1.45.28.4.6,0,.92-.44,1.23a2,2,0,0,1-1.21.31c-3.31-.1-6.53.64-9.79,1.07-2.42.46-4.86.15-7.29.25a2.16,2.16,0,0,1-.25-1.3Z"/>
      <path class="cls-34"
            d="M1678.27,452.34c0-1.95,0-3.89-.07-5.84q0-7.12.08-14.26a.46.46,0,0,1,.21.05c.64.48.59,1.18.59,1.85,0,5.18.17,10.36-.12,15.54,0,.13,0,.25,0,.38.08.46-.16.92,0,1.39a1,1,0,0,1-.29.84A.36.36,0,0,1,1678.27,452.34Z"/>
      <path class="cls-35"
            d="M1678.5,450.31q0-9,0-18a6.5,6.5,0,0,1,4.19,1.79,64.59,64.59,0,0,1,6.18,6.09c.1.56-.31.84-.63,1.16l-8.46,8.46C1679.42,450.13,1679.12,450.64,1678.5,450.31Z"/>
      <path class="cls-19"
            d="M1706.35,460.2a3.45,3.45,0,0,0-1.74-.24h-13.69c-.43-.51-.05-.85.28-1.18l7.35-7.35c.32-.32.63-.76,1.17-.35a34.11,34.11,0,0,1,5.27,5.54A7.38,7.38,0,0,1,1706.35,460.2Z"/>
      <path class="cls-36"
            d="M1678.77,458.43c-.86-1.36-.43-2.87-.5-4.32a.32.32,0,0,1,.37,0,1,1,0,0,1,.23.31c.21.4-.06.86.16,1.25.63.48.78-.23,1-.48,3.6-3.56,7.17-7.16,10.76-10.73.43-.43.8-1.06,1.59-.73l.76.75a1.09,1.09,0,0,1-.45.87q-6.36,6.4-12.77,12.77C1679.63,458.44,1679.3,458.84,1678.77,458.43Z"/>
      <path class="cls-37"
            d="M1692.41,443.73l-12,11.85-1.69,1.67c-.39-.52-.21-1-.26-1.36a6.72,6.72,0,0,1,1.69-2.34c3.3-3.27,6.57-6.57,9.87-9.85.43-.43.8-1.06,1.59-.74Z"/>
      <path class="cls-38"
            d="M1683.82,460h-1.52c-.28-.59.21-.86.51-1.16q5.75-5.79,11.53-11.53c.29-.29.56-.66,1.07-.5l.8.76c.12.59-.28.93-.63,1.29-3.36,3.36-6.72,6.71-10.06,10.09A8.34,8.34,0,0,1,1683.82,460Z"/>
      <path class="cls-34"
            d="M1691.65,443l-11.84,11.74c-.42.42-.87.79-1.31,1.19v-1.52a4.84,4.84,0,0,1,1-1.7c3.29-3.27,6.56-6.56,9.84-9.83.41-.4.78-.95,1.5-.64Z"/>
      <path class="cls-39"
            d="M1683.82,460c2.3-2.34,4.59-4.69,6.9-7,1.81-1.82,3.66-3.6,5.49-5.4l.76.76c.11.56-.3.84-.62,1.16-3.15,3.16-6.31,6.3-9.44,9.47a6.65,6.65,0,0,1-1.57,1Z"/>
      <path class="cls-40"
            d="M1690.89,442.2l-11,10.89c-.45.44-.93.85-1.4,1.28,0-.09,0-.17,0-.25-.24-.35-.07-.74-.12-1.1a5,5,0,0,1,1.19-1.76q4.61-4.59,9.21-9.19c.36-.37.67-.94,1.36-.63Z"/>
      <path class="cls-41"
            d="M1685.34,460c2.61-2.65,5.21-5.31,7.83-7.94,1.24-1.26,2.53-2.48,3.8-3.72l.76.76c0,.48-.43.71-.72,1-2.91,2.93-5.84,5.84-8.74,8.78a6.55,6.55,0,0,1-1.66,1.12Z"/>
      <path class="cls-42"
            d="M1694.18,445.5l.51.5c-.12.44-.5.68-.79,1q-5.93,5.91-11.83,11.85a3.65,3.65,0,0,1-1.88,1.19.65.65,0,0,1-.56-.44c-.05-.51.36-.74.65-1,4.18-4.18,8.33-8.38,12.54-12.54C1693.18,445.64,1693.51,445.08,1694.18,445.5Z"/>
      <path class="cls-43"
            d="M1690.13,441.44q-5.12,5.07-10.24,10.13c-.45.44-.93.85-1.39,1.28a.35.35,0,0,1,0-.51v-.77a5.64,5.64,0,0,1,1.31-1.83c2.79-2.76,5.56-5.55,8.34-8.32.39-.4.75-1,1.47-.49Z"/>
      <path class="cls-44"
            d="M1678.77,458.43c.6-.1.92-.57,1.31-.95l12-12c.36-.35.75-.68,1.12-1l.46.5a4.26,4.26,0,0,1-1.06,1.4q-5.71,5.72-11.42,11.44c-.39.39-.83.71-1.23,1.08s-.58.36-.89,0Z"/>
      <path class="cls-45"
            d="M1680.27,459.7c.6-.09.93-.55,1.31-.94l11.81-11.8c.38-.38.7-.86,1.3-1l.51.51c-4.19,4.26-8.45,8.46-12.65,12.7a4.86,4.86,0,0,1-1,.74l-.74,0a.41.41,0,0,1-.52,0,.23.23,0,0,1-.06-.22C1680.23,459.74,1680.25,459.7,1680.27,459.7Z"/>
      <path class="cls-46"
            d="M1686.61,460c3.4-3.67,7-7.11,10.56-10.64a1.61,1.61,0,0,1,.56-.26l.51.51c0,.6-.46.88-.81,1.22-2.68,2.69-5.37,5.36-8,8.07a5.68,5.68,0,0,1-1.52,1.1Z"/>
      <path class="cls-47"
            d="M1689.62,440.93c-.6.09-.92.57-1.3.95l-9.82,9.69v-1.26q4-3.94,8-7.87c.78-.77,1.58-1.51,2.37-2.27Z"/>
      <path class="cls-48"
            d="M1679,458.94a7.29,7.29,0,0,0,2.31-1.7c3.92-4,8.07-7.86,11.85-12a1.32,1.32,0,0,1,.44-.23l.55.52c-.6.09-.92.57-1.3.95l-12,12c-.36.36-.75.67-1.13,1-.55.28-.77,0-.81-.51Z"/>
      <path class="cls-49"
            d="M1681.54,460c2.36-2.4,4.71-4.81,7.08-7.21,1.78-1.8,3.57-3.58,5.37-5.37.35-.35.66-.78,1.21-.86l.21.26c-4.41,4.35-8.85,8.68-13.11,13.19Z"/>
      <path class="cls-50"
            d="M1689.66,460h-1c-.21-.41.12-.62.35-.84q4.35-4.38,8.71-8.72c.28-.28.55-.72,1-.32l.5.5a57.1,57.1,0,0,1-4.18,4.34c-1.29,1.33-2.62,2.61-3.91,3.93A4.92,4.92,0,0,1,1689.66,460Z"/>
      <path class="cls-51"
            d="M1689.66,460l8.93-9a2.42,2.42,0,0,1,.66-.34.78.78,0,0,1,.47.5,1.94,1.94,0,0,0-.92.62l-7.21,7.22a1.86,1.86,0,0,0-.67,1Z"/>
      <path class="cls-52"
            d="M1698.75,450.07a2,2,0,0,0-.57.25c-3.2,3.2-6.48,6.3-9.54,9.63h-.76c3.35-3.57,6.83-7,10.36-10.39Z"/>
      <path class="cls-53"
            d="M1702.33,561c-1.83,1.15-3.88,1-5.93,1h-76.56a6.27,6.27,0,0,1-3.74-.8c-.25-.73.25-.89.78-1a9.4,9.4,0,0,1,1.76-.09c5.06,0,10.11,0,15.17,0,3.07,0,6.13-.26,9.2-.39a62.16,62.16,0,0,0,10.74.34c15.63-.24,31.26,0,46.89-.1C1701.37,560,1702.25,559.8,1702.33,561Z"/>
      <path class="cls-54"
            d="M1681.29,555.91l24.91,0a4.42,4.42,0,0,1-1,2.3,3.46,3.46,0,0,1-2.17.56c-9.41,0-18.82.16-28.23-.07-4.55-.11-9.11-.08-13.66-.17a9.6,9.6,0,0,0-2.27.15,7.58,7.58,0,0,1-2.71-.43c-.43-.12-.92-.27-.76-.92.33-.49.86-.45,1.36-.48a12,12,0,0,1,1.89.07,48.83,48.83,0,0,0,11.06-.94c.46-.07.92-.11,1.38-.14,3-.19,6,.4,9,.18C1680.46,556,1680.89,556.15,1681.29,555.91Z"/>
      <path class="cls-55"
            d="M1658.71,558.2a3.54,3.54,0,0,1,1.73-.26c3.71,0,7.43-.13,11.14,0,11.21.5,22.42,0,33.63.26a3.4,3.4,0,0,1-1.6,1.72c-15.72.06-31.43,0-47.15,0a14.94,14.94,0,0,0-1.77,0,6.39,6.39,0,0,0-2.57-.31c-2,.11-4-.21-6-.19a1.37,1.37,0,0,1-1.35-.52c0-.7.52-.81,1-.8,3,0,6-.39,9.07-.31A21,21,0,0,1,1658.71,558.2Z"/>
      <path class="cls-56"
            d="M1644.76,559a81.6,81.6,0,0,1,9.89.51c-.35,1.11-1.34.84-2.09.86-2.78.06-5.56,0-8.34,0a2.29,2.29,0,0,0-1.24.12c-8.51.35-17,.24-25.55.26-.49,0-1-.14-1.33.47a4.52,4.52,0,0,1-2.07-1.42c0-.89.7-.84,1.26-.88,4-.23,8-.68,12-.58,5.14.13,10.28,0,15.42,0C1643.4,558.38,1644.23,558.19,1644.76,559Z"/>
      <path class="cls-57"
            d="M1644.76,559c-7.8,0-15.61-.13-23.41.08a37.81,37.81,0,0,0-7.32.75,3.46,3.46,0,0,1-1.27-1.51c0-.93.76-.83,1.36-.91a48.8,48.8,0,0,1,8.2-.21c4.34.18,8.68-.12,13-.1,2.68,0,5.36.15,8.05-.11,2-.2,4,.26,6,.13a31,31,0,0,1,4.52-.22c.54,0,1.13,0,1.44.58a2.35,2.35,0,0,0,1.86.51,2.2,2.2,0,0,1,1.44.25l-13.12.52A3.71,3.71,0,0,0,1644.76,559Z"/>
      <path class="cls-58"
            d="M1643,560.48a2.28,2.28,0,0,1,1.47-.25c2.44,0,4.89,0,7.33,0a4.89,4.89,0,0,0,2.87-.77q23.63,0,47.25,0c.59,0,1.31-.29,1.71.47a2.46,2.46,0,0,1-1.28,1c-.49-.67-1.22-.47-1.87-.47Z"/>
      <path class="cls-59"
            d="M1611.74,556c.24-.69.83-.58,1.37-.61,1.92-.09,3.87.25,5.78-.25,2.29-.27,4.6-.18,6.9-.3,3.24-.17,6.49-.06,9.73,0,.65,0,1.37-.14,1.87.48.1.86-.54.79-1.07.85-1.93.23-3.87.05-5.8.11-2.23.06-4.44.45-6.68.29-.72,0-1.26.43-1.9.6a54.17,54.17,0,0,0-7.75.1,2.85,2.85,0,0,1-2.25-.55Z"/>
      <path class="cls-60"
            d="M1611.94,556.71l10,0a1.63,1.63,0,0,1,1-.24c3.7.11,7.4-.35,11.11-.09a2.48,2.48,0,0,1,1.46.31c.3.3.26.56-.1.79-3.5-.13-7,.42-10.49.25-1.51-.07-3,0-4.54-.2a24,24,0,0,0-7.58.79A2.79,2.79,0,0,1,1611.94,556.71Z"/>
      <path class="cls-61"
            d="M1672.41,554.39v.25c-.32.61-.91.54-1.45.58-6.77.44-13.55.68-20.34.57a12.7,12.7,0,0,0-3,.23c-2.48-.07-5,.21-7.44,0a2.13,2.13,0,0,1-1.43-.39c-.31-.8.24-1.14.82-1.2,3.34-.3,6.55-1.38,9.9-1.6,3.52,0,7-.19,10.55.12,1.47,1.35,3.27.89,4.92.72a43.76,43.76,0,0,1,6.68.23A.88.88,0,0,1,1672.41,554.39Z"/>
      <path class="cls-62"
            d="M1706.36,553.12c0,.42,0,.85,0,1.27h-32.17c0-.79.66-.77,1.18-.81,2.58-.17,5.13-.81,7.74-.6a6.33,6.33,0,0,0,2.06-.49c6.33.08,12.65,0,19,0C1704.91,552.54,1705.77,552.36,1706.36,553.12Z"/>
      <path class="cls-63"
            d="M1647.55,555.66a2.61,2.61,0,0,1,1.23-.25q6.27.09,12.52-.26c3.7-.21,7.4-.52,11.11-.51,1.25.32,2.66,0,3.75,1.1.43.46,1.3.16,2,.17,1.06,0,2.11,0,3.17,0a1.44,1.44,0,0,1-1,.25c-3.07,0-6.12.44-9.19.26-.08,0-.15.11-.23.11-4.05-.14-8.07.73-12.12.37a39.15,39.15,0,0,0-5.41-.39,13.14,13.14,0,0,0-1.77.11,12,12,0,0,0-3-.35C1648.14,556.28,1647.6,556.33,1647.55,555.66Z"/>
      <path class="cls-64"
            d="M1685.09,553.12a4.67,4.67,0,0,1-1.36.23c-3-.41-5.94.95-9,.82-.19,0-.38.14-.58.22h-1.77c-3.6,0-7.19-.4-10.8-.26a1.75,1.75,0,0,1-1.63-.76c.83-1,1.94-.53,2.93-.54a4.63,4.63,0,0,0,2.44-.34,2.23,2.23,0,0,1,1-.19c4.45.15,8.88-.37,13.32-.2,1.35.47,2.75,0,4.12.21C1684.32,552.37,1685,552.25,1685.09,553.12Z"/>
      <path class="cls-65"
            d="M1706.36,462.75v3a5.41,5.41,0,0,1-3.54,1.74c-3.38.71-6.53,2.25-10,2.82-.69.12-1.4.21-2.1.34-.46,0-.75-.33-1.14-.46-.51-.61-1.44-1-1-2.09.09-.09.17-.21.29-.23,3.36-.53,6.09-2.85,9.43-3.38a42.45,42.45,0,0,0,6.48-1.85,1,1,0,0,1,1.07.07Z"/>
      <path class="cls-66"
            d="M1693.21,460.21h8.6l0,.37a49,49,0,0,1-6,2.42c-2.77.86-5.49,1.86-8.22,2.79-.35.57-.91.35-1.4.4a3.32,3.32,0,0,1-2.54-2.76c.33-.72,1.07-.75,1.69-.93A68.79,68.79,0,0,1,1693.21,460.21Z"/>
      <path class="cls-67"
            d="M1686.1,465.79h1.53c.43.37.87.18,1.31,0,1.32-.46,2.63-.91,3.94-1.38.61-.22,1.18-.51,1.73.13a.74.74,0,0,0,.83.14c2.79-1,5.89-.75,8.63-2,.31-.13.64-.21,1-.31a.67.67,0,0,1,.86.34,4.5,4.5,0,0,0-1.84.42,46.72,46.72,0,0,1-5.66,1.84,14.31,14.31,0,0,0-3.65,1.39,13.43,13.43,0,0,1-6.1,1.93A2.62,2.62,0,0,1,1686.1,465.79Z"/>
      <path class="cls-68"
            d="M1693.21,460.21a40.85,40.85,0,0,1-7.31,2.77c-.67.23-1.39.36-2.08.53-1.18.39-1.41-.8-2.07-1.26-.61-.71-1.84-1-1.47-2.36l.52.1a2.49,2.49,0,0,0,1.47.22Z"/>
      <path class="cls-69"
            d="M1680,543.5l1.89,0a5.12,5.12,0,0,0,5.32-5.23c.09-2.48.07-5,.1-7.45a17.26,17.26,0,0,1,2.91-3.3c4.73-4.76,9.49-9.48,14.23-14.23.49-.49.93-1.33,1.89-.74v14.73a6.72,6.72,0,0,1-1.44,1.91c-6.54,6.5-13,13.05-19.56,19.56a2.2,2.2,0,0,0-.26.27c-.21.25-.62.43-.47.82s.52.21.8.24c.48.06,1,.17,1.09.71s-.19.87-.67,1.07c-1.63.06-3.23.41-4.86.33a9,9,0,0,0-4.09-.35,14,14,0,0,1-4.74-.06c-.62-.45-.39-.94.09-1.22,2.59-1.47,4.24-3.95,6.41-5.88A11.4,11.4,0,0,1,1680,543.5Z"/>
      <path class="cls-70"
            d="M1686.1,551.34c.31-.91-.4-.68-.85-.76s-1.45.36-1.7-.35.55-1.06,1-1.5q10.15-10.18,20.32-20.35a4.93,4.93,0,0,1,1.5-1.14v24.1a1.72,1.72,0,0,1-1.6.58q-8.54.06-17.08,0C1687.11,551.91,1686.46,552,1686.1,551.34Z"/>
      <path class="cls-71"
            d="M1706.36,512.51c-.6.1-.92.58-1.3,1q-8.16,8.14-16.31,16.31c-.41.41-.76.92-1.42,1q-.19-7.74,0-15.48a17.37,17.37,0,0,1,2.92-3.31q7.07-7.11,14.18-14.17c.52-.51,1-1.26,1.92-.79l.09,5.83Q1706.4,507.67,1706.36,512.51Z"/>
      <path class="cls-72"
            d="M1686.1,551.34h20.26l.08.51c0,.42,0,.85-.08,1.27h-21.27c-1.84-.54-3.72-.12-5.58-.25-.11-1.17,1-.84,1.52-1.27A50.63,50.63,0,0,1,1686.1,551.34Z"/>
      <path class="cls-73"
            d="M1706.35,497a5.39,5.39,0,0,0-1.58,1.23q-8,8-16,16c-.41.42-.76.93-1.42,1q-.19-7.36,0-14.73a16.87,16.87,0,0,1,2.9-3.3c4.73-4.76,9.49-9.48,14.23-14.23.49-.48.93-1.33,1.89-.74Q1706.34,489.67,1706.35,497Z"/>
      <path class="cls-74"
            d="M1706.36,482.3c-.6.1-.92.58-1.3,1q-8.16,8.14-16.31,16.31c-.41.41-.76.93-1.41,1q-.21-5.2,0-10.41a15.52,15.52,0,0,1,2.64-3c3.65-3.69,7.34-7.33,11-11a9.68,9.68,0,0,0,1-1.05c-.9.46-1.47,1.08-2.31,1.19-.49.07-1,.08-1.21-.41a.79.79,0,0,1,.35-1.09c.37-.24.4-.74.77-1,1.8-.68,3.64-1.23,5.45-1.86a1.12,1.12,0,0,1,1.38.21Z"/>
      <path class="cls-75"
            d="M1706.36,472.14l-5.11,1.67a4.5,4.5,0,0,1-1.7.36,6.46,6.46,0,0,1-2.53,1.35,3.55,3.55,0,0,1-4.24-2.95,3.16,3.16,0,0,1,2.43-1.4,53.09,53.09,0,0,0,7.6-2.37c1.12-.42,2.38-1.06,3.55,0,0,1,.05,2,.08,3.05Z"/>
      <path class="cls-76"
            d="M1706.36,468.84a8.21,8.21,0,0,0-4.17.84c-2.94,1.42-6.28,1.61-9.24,3a2.2,2.2,0,0,1-2.28-2.29q5.57-1.58,11.12-3.17c1.53-.44,3-.93,4.56-1.4l.09,1.28C1706.41,467.66,1706.38,468.25,1706.36,468.84Z"/>
      <path class="cls-77"
            d="M1682.05,462l1.77,1.52a12.31,12.31,0,0,0,2.28,2.28,14.89,14.89,0,0,0,2.54,2.54l1.27,1.52a1.34,1.34,0,0,1-.22,1.92c-3.89,3.91-7.8,7.8-11.69,11.7a4.87,4.87,0,0,1-1.28.81h-16.48c-.44-.87.21-1.34.7-1.83q5.58-5.62,11.18-11.22c2.77-2.78,5.56-5.55,8.34-8.32C1680.91,462.46,1681.33,462,1682.05,462Z"/>
      <path class="cls-78"
            d="M1676.72,484.28a5.43,5.43,0,0,1,1.24-1.58q5.55-5.55,11.1-11.1a2.05,2.05,0,0,0,.85-1.75l.76.51a12.36,12.36,0,0,0,2.28,2.29s0,.07.07.1c2.2,2.67,2.2,2.67,5.43,1.66.36-.11.73-.16,1.1-.24,0,.12-.08.24-.11.36-.12.47-1,.78-.6,1.2s1.13-.08,1.59-.4a5.58,5.58,0,0,1,2.11-1.08c.22-.05.45-.07.58.12s0,.4-.16.56-.35.37-.53.55l-13.77,13.77c-.38.39-.72.85-1.33.91a12,12,0,0,0-.46-2.59,5,5,0,0,0-4.71-3.23C1680.35,484.28,1678.53,484.3,1676.72,484.28Z"/>
      <path class="cls-79"
            d="M1671.17,535.81c-2,0-4.05,0-6.08,0-1.64,0-2.29-.68-2.31-2.32s0-3.54,0-5.32c0-1.48.7-2.18,2.17-2.18,4.18,0,8.36,0,12.53,0a1.86,1.86,0,0,1,2.1,2.11c0,1.86,0,3.72,0,5.57,0,1.49-.68,2.12-2.21,2.14C1675.3,535.83,1673.23,535.81,1671.17,535.81Z"/>
      <path class="cls-80"
            d="M1646.75,535.81c-2,0-4,0-6.08,0-1.67,0-2.31-.63-2.32-2.28,0-1.82,0-3.63,0-5.45a1.86,1.86,0,0,1,2.12-2.09q6.26,0,12.52,0c1.47,0,2.14.71,2.16,2.2,0,1.82,0,3.63,0,5.45a1.93,1.93,0,0,1-2.2,2.17C1650.88,535.83,1648.81,535.81,1646.75,535.81Z"/>
      <path class="cls-81"
            d="M1682.05,462c-.25.68-.89,1-1.36,1.46q-9.59,9.65-19.22,19.25a5.57,5.57,0,0,0-1.23,1.58h-6.1a2.76,2.76,0,0,1,.81-1.4l23.71-23.7a2.31,2.31,0,0,1,.29-.24,1,1,0,0,0,.81.51l.51.25a1.28,1.28,0,0,1,0,.19C1680.69,460.74,1681.58,461.19,1682.05,462Z"/>
      <path class="cls-82"
            d="M1671.17,518.34h-6.09c-1.64,0-2.28-.67-2.3-2.32,0-1.48,0-3,0-4.44s.69-2.12,2.1-2.12q6.27,0,12.55,0c1.46,0,2.12.63,2.15,2.05q.06,2.41,0,4.83a1.82,1.82,0,0,1-2.07,2C1675.39,518.36,1673.28,518.34,1671.17,518.34Z"/>
      <path class="cls-83"
            d="M1652.37,543.5h17.24a1,1,0,0,1-.2,1.29c-2.45,2.48-4.67,5.22-7.72,7.05-1.75.25-3.52-.06-5.27.23a62.09,62.09,0,0,0-10.11-.47,9,9,0,0,1-2.29-.6c-.71-.61-.27-1.06.33-1.13,1.49-.18,2.35-1.21,3.34-2.14C1649.22,546.3,1650.48,544.54,1652.37,543.5Z"/>
      <path class="cls-82"
            d="M1652.37,543.5c-.15.73-.77,1.09-1.23,1.57-.82.86-1.7,1.65-2.5,2.53-1.34,1.47-2.72,2.87-4.9,3a2.08,2.08,0,0,1-2,.81c-2.86,0-5.71.3-8.57.41a1.1,1.1,0,0,1-1.09-.46c-1.52-.12-3.07.28-4.57-.25-.23-.49,0-.81.39-1.08a82.61,82.61,0,0,0,6.45-6.24,1.14,1.14,0,0,1,.53-.33Z"/>
      <path class="cls-31"
            d="M1678.29,501.61c-.41.31-.89.19-1.34.2h-11.51c-2.06,0-2.66-.59-2.66-2.61,0-1.73,0-3.46,0-5.19a1.82,1.82,0,0,1,1.93-2c4.34,0,8.69,0,13,0a1.88,1.88,0,0,1,.58.19c-2.73,2.9-5.56,5.71-8.41,8.53.42.47.87.29,1.26.3,1.9,0,3.8,0,5.7,0C1677.41,501,1678,501,1678.29,501.61Z"/>
      <path class="cls-80"
            d="M1634.88,543.44a2,2,0,0,1-.84,1.49,70.38,70.38,0,0,1-6.53,6.16c-4.9,0-9.8.42-14.71.25,1.32-.56,2.75-.08,4.1-.47a9.34,9.34,0,0,0,4.5-2.38c3-3.08,6.1-6.06,9.16-9.08.06-.18.13-.18.2,0C1631.11,541.8,1632.94,542.68,1634.88,543.44Z"/>
      <path class="cls-84"
            d="M1653.9,501.59a2,2,0,0,1-1.35.22h-11.66c-2,0-2.54-.59-2.55-2.59,0-1.74,0-3.47,0-5.21,0-1.25.64-2,1.8-2,4.44,0,8.87,0,13.31,0,.15,0,.31.13.46.19a.84.84,0,0,1-.92.54,3.23,3.23,0,0,0-2.57,1.34c-1.87,1.94-3.82,3.81-5.7,5.74-.28.28-.83.54-.62,1s.76.22,1.16.22c2.36,0,4.72,0,7.08,0C1652.91,501,1653.57,500.9,1653.9,501.59Z"/>
      <path class="cls-85"
            d="M1662,551.34l5.75-5.62a11.55,11.55,0,0,0,1.85-2.22H1680c-.07.2-.08.46-.21.59-2.34,2.44-4.32,5.26-7.4,6.89a5.88,5.88,0,0,0-.51.36c-.35.65-1,.56-1.55.58-2.46.05-4.92.22-7.38,0A1.25,1.25,0,0,1,1662,551.34Z"/>
      <path class="cls-86"
            d="M1653.9,501.59h-10.14c-.36,0-.85.17-1-.25s.29-.65.53-.9q3.81-3.9,7.64-7.77c.87-.88,2-.3,3-.48a1.63,1.63,0,0,1,1.22,1.81c0,1.94,0,3.87,0,5.8A1.63,1.63,0,0,1,1653.9,501.59Z"/>
      <path class="cls-30"
            d="M1643,518.3c-.88,0-1.77.06-2.65,0a1.77,1.77,0,0,1-2-1.85c-.06-1.73,0-3.46,0-5.2a1.7,1.7,0,0,1,1.85-1.82c3.63,0,7.26,0,10.89,0,.46.6.08,1.05-.3,1.44-2.17,2.2-4.36,4.37-6.53,6.56C1643.9,517.86,1643.37,518,1643,518.3Z"/>
      <path class="cls-31"
            d="M1643,518.3a2.39,2.39,0,0,1,.87-1.2l6.39-6.4a2.38,2.38,0,0,0,.86-1.21c3.8-.21,4.05,0,4.05,3.79,0,1,0,2,0,3a1.85,1.85,0,0,1-2.06,2C1649.71,518.35,1646.35,518.31,1643,518.3Z"/>
      <path class="cls-80"
            d="M1678.29,501.61h-9.59c-.09-.67.37-.85.64-1.13,2-2,3.93-3.94,5.9-5.92a5.71,5.71,0,0,0,1.37-1.64c.34-.79,1.05-.72,1.72-.75a2.66,2.66,0,0,1,1.29,2.64c-.09,1.64,0,3.28,0,4.92C1679.58,500.64,1679.31,501.39,1678.29,501.61Z"/>
      <path class="cls-19"
            d="M1630.76,539.41h-.2c0-2.88,0-5.75-.07-8.63q.15-8.5,0-17,0-7.95.08-15.88c0,.54.11,1.08.11,1.63q0,18.29,0,36.59C1630.69,537.22,1630.74,538.31,1630.76,539.41Z"/>
      <path class="cls-37" d="M1678.49,452.34v.51c0,.42,0,.84,0,1.27h-.22v-1.77Z"/>
      <path class="cls-87"
            d="M1632.08,551.34l11.66-.76a86.91,86.91,0,0,0,12.69.76c0,.79-.67.79-1.19.81-3.28.13-6.52.71-9.8.71h-16.85c-.57,0-1.21.16-1.59-.5.43-.65,1.09-.47,1.7-.51C1629.84,551.78,1631,552.09,1632.08,551.34Z"/>
      <path class="cls-88"
            d="M1627,552.36h18.52c.28.74-.2,1-.76,1.24a9.45,9.45,0,0,1-2.75.36c-3.21,0-6.41,0-9.62,0-.65,0-1.39.11-1.84-.58h-15c.19-.07.39-.23.58-.21,2.81.27,5.53-.74,8.34-.57A16.13,16.13,0,0,0,1627,552.36Z"/>
      <path class="cls-89"
            d="M1630.55,553.38H1645c1.44-.72,2.88-1,4.32,0-.2.07-.41.24-.58.21-3.16-.47-6,1.45-9.07,1.34a1.37,1.37,0,0,0-1,.48.78.78,0,0,1-1.27,0c-6.17,0-12.34.07-18.51-.26.11-.06.23-.18.33-.17,3,.3,5.86-1.12,8.87-.85A3,3,0,0,0,1630.55,553.38Z"/>
      <path class="cls-90"
            d="M1651.61,555.91c6.51.26,13,.74,19.53.51-1.09.5-2.24.19-3.36.24a4.17,4.17,0,0,0-2.42.54,2.35,2.35,0,0,1-1.48.23h-8.47c-6.68.31-13.36,0-20,0l.26-.51c.14-.62.6-.75,1.15-.76,3.65-.06,7.3-.22,11,0A10.35,10.35,0,0,0,1651.61,555.91Z"/>
      <path class="cls-91"
            d="M1651.61,555.91a3.2,3.2,0,0,1-2.17.51c-4.2-.18-8.39.37-12.59.27a5.37,5.37,0,0,0-1.22.24c-4.56-.32-9.13-.25-13.7-.26.43-.65,1.11-.51,1.72-.5,4.32.1,8.6-.72,12.92-.53a2.78,2.78,0,0,0,.83-.23h1.27c3,.09,5.91.38,8.88.25C1648.87,556.19,1650.26,555.79,1651.61,555.91Z"/>
      <path class="cls-92"
            d="M1649.33,553.38H1645l.51-1a5.38,5.38,0,0,1,1.35-.23c2.94.27,5.79-.8,8.73-.55a2.43,2.43,0,0,0,.83-.24H1662a1.12,1.12,0,0,1,.76.26c.54.52,1.22.33,1.86.38s1,.15.68.89c-.64.65-1.46.49-2.23.5-1,0-2.07,0-3.1,0Z"/>
      <path class="cls-93"
            d="M1665.31,552.87c-.5-.93-1.49-.26-2.14-.68-.22-.13-.93,0-.4-.59,3,.08,6.08-.44,9.13-.26a35.37,35.37,0,0,0,5.54-.22,7,7,0,0,1,3.59.48c-.32.65-1,.91-1.52,1.27a8.43,8.43,0,0,0-3.63-.23C1672.36,553.07,1668.83,552.76,1665.31,552.87Z"/>
    </g>
    <path class="cls-94"
          d="M1717.57,278.11a16,16,0,0,0-14.16,12.72c-.07.36-.12.74-.18,1.11-.13.09.1.41-.23.38V278h14.57s.06.05,0,.07S1717.58,278.11,1717.57,278.11Z"/>
    <path class="cls-95" d="M1759.53,432.84V433h-1.89v-.13Z"/>
    <path class="cls-96" d="M1720,278.11h-1.78s0-.05,0-.08l0,0H1720s0,0,0,.07S1720,278.11,1720,278.11Z"/>
    <path class="cls-97" d="M1703,292.32c.16-.08.09-.29.23-.38a1.79,1.79,0,0,1-.23,1.13Z"/>
    <path class="cls-98" d="M1850.9,366h.1v.75c0,.06-.08,0-.11,0Z"/>
    <path class="cls-99" d="M1851,368.17c-.22-.22-.1-.5-.12-.76,0-.05.08-.05.12,0Z"/>
    <path class="cls-100" d="M1850.88,370.44c0-.25-.1-.53.12-.76v.75C1851,370.49,1850.93,370.49,1850.88,370.44Z"/>
    <path class="cls-98" d="M1851,371.81h-.11v-.75c0-.06.07-.07.11,0Z"/>
    <path class="cls-95" d="M1718.2,278a.37.37,0,0,1,0,.11h-.62V278Z"/>
    <path class="cls-101" d="M1720,278.11s0-.07,0-.11h.63a.31.31,0,0,0,0,.1Z"/>
    <path class="cls-102" d="M1851,367.42h-.12c0-.21,0-.42,0-.63h.11Z"/>
    <path class="cls-103" d="M1851,371.06h-.11v-.63h.12Z"/>
    <path class="cls-104"
          d="M1851,368.17c-.14-.25,0-.52-.06-.78v-1.32a20,20,0,0,0-.23-3.37,41.35,41.35,0,0,0-4.68-13.51A40.42,40.42,0,0,0,1817.74,329c-.87-.15-.87-.16-.87-1.09,0-5.38,0-10.76,0-16.14a1.64,1.64,0,0,1,1-1.66,13.9,13.9,0,0,0,6-6.76,14.73,14.73,0,0,0,1.05-7.68,14,14,0,0,0-5.17-9.44,14.33,14.33,0,0,0-11.16-3.15,14.59,14.59,0,0,0-5,27.31.93.93,0,0,1,.55.94c0,5.61,0,11.22,0,16.83,0,.51-.16.74-.69.82a32,32,0,0,0-5.79,1.44,40.2,40.2,0,0,0-11.87,6.29c-.65.5-.65.49-1.28,0-2.88-2.26-5.78-4.51-8.67-6.75q-9.68-7.52-19.32-15-10.56-8.22-21.11-16.42a1.13,1.13,0,0,1-.49-1.34,13,13,0,0,0,.26-4.92,15.73,15.73,0,0,0-7-11.6,13.44,13.44,0,0,0-7.62-2.59h-2.89a10.77,10.77,0,0,0-3.14.48,16,16,0,0,0-9.59,7.77,13.7,13.7,0,0,0-1.77,5.64,3.86,3.86,0,0,1-.13,1.12v2a.91.91,0,0,1,.11.22c.1.64.17,1.28.31,1.92a15.74,15.74,0,0,0,7.33,10.43,15.41,15.41,0,0,0,11.26,2.08,14.48,14.48,0,0,0,4.58-1.66.54.54,0,0,1,.72.06c.44.39.91.73,1.38,1.09L1747,323.48l27.7,21.55,2,1.58c-.11.19-.19.34-.28.48a40.07,40.07,0,0,0-4.69,10.16,39.2,39.2,0,0,0-1.66,9.42,40.21,40.21,0,0,0,.33,7.83,41,41,0,0,0,2.16,8.49,39.37,39.37,0,0,0,4.5,8.66c.28.4.27.4-.08.76l-.27.27-12.12,12.12c-.71.71-1.43,1.42-2.13,2.14a.51.51,0,0,1-.6.15,12.2,12.2,0,0,0-5.34-.37,12.65,12.65,0,0,0-7.82,4.14,12.49,12.49,0,0,0-3.15,11.41,12.78,12.78,0,0,0,9.34,10.09,19,19,0,0,0,2.71.49,9.44,9.44,0,0,0,1.68.06.75.75,0,0,0,.21,0,3.07,3.07,0,0,1,.68,0,3.64,3.64,0,0,0,.56-.05,13.21,13.21,0,0,0,10.56-16.15,1.1,1.1,0,0,1,.32-1.17q6.93-6.89,13.81-13.8c.4-.41.68-.39,1.12-.07a40.65,40.65,0,0,0,7.69,4.46,41.25,41.25,0,0,0,15.34,3.45,38.89,38.89,0,0,0,7.62-.56,39.84,39.84,0,0,0,14.88-5.63,40.47,40.47,0,0,0,17.4-22.87,29.24,29.24,0,0,0,1.42-8.7v-1.3c0-.26-.08-.53.06-.78Zm-41,21.46a20.71,20.71,0,1,1,20.5-20.43A20.65,20.65,0,0,1,1810,389.63Z"/>
    <path class="cls-95" d="M1760.17,432.74c-.19.18-.42.11-.64.1A.94.94,0,0,1,1760.17,432.74Z"/>
    <g id="_7dPX2o.tif">
      <path class="cls-105"
            d="M1469,624.87v-.3c.16-.29,0-.6.08-.9s.08-.62-.08-.91v-4.37a1.49,1.49,0,0,0,0-1.06v-1.05c.22-1.34.2-2.7.29-4a39.67,39.67,0,0,1,1.26-6.93,58.17,58.17,0,0,1,5.1-13.1,61.39,61.39,0,0,1,7.47-11,61,61,0,0,1,25.74-17.8,62.61,62.61,0,0,1,11.91-2.93,35,35,0,0,1,4.69-.27c2.84,0,5.67,0,8.5,0a45.67,45.67,0,0,1,11.09,1.7,61.15,61.15,0,0,1,28.18,16.69,60.49,60.49,0,0,1,9.93,13.86,58.27,58.27,0,0,1,5,12.9,43.31,43.31,0,0,1,1.47,9.41c.08,2.68.12,5.35.14,8a52.34,52.34,0,0,1-3.69,19.51,60.9,60.9,0,0,1-38,36.07,50.87,50.87,0,0,1-9.75,2.24c-1.89.21-3.8.25-5.7.29h-6.48a50.73,50.73,0,0,1-20-4.21,61.26,61.26,0,0,1-29.84-26.62,59.08,59.08,0,0,1-6.79-19.38c-.28-1.76-.25-3.55-.37-5.32C1469.08,625.21,1469.14,625,1469,624.87Z"/>
      <path class="cls-20"
            d="M1532.67,680.86a59.49,59.49,0,0,0,38.84-17.11,57.86,57.86,0,0,0,17.34-33.2c3-19.19-2-36.22-15-50.68a57.2,57.2,0,0,0-33.26-18.56c-19.54-3.45-36.93,1.39-51.79,14.62a58.69,58.69,0,0,0-18.53,32.22,59.49,59.49,0,0,0-1.09,7.52c0,.2.11.47-.17.61q0-27.82,0-55.65c0-.49.07-.63.61-.63q59.82,0,119.66,0c.47,0,.58.11.57.58q0,59.91,0,119.81c0,.55-.14.61-.63.61q-28.28,0-56.55,0C1532.56,680.94,1532.56,680.89,1532.67,680.86Z"/>
      <path class="cls-20"
            d="M1469,624.87a12.78,12.78,0,0,1,.42,3,60.48,60.48,0,0,0,48.53,52,57.43,57.43,0,0,0,8.06,1c.11,0,.11.08,0,.13q-28.18,0-56.37,0c-.55,0-.66-.11-.66-.65Q1469,652.6,1469,624.87Z"/>
      <path class="cls-106" d="M1528.13,680.85h2.44c.1,0,.1.1,0,.14h-2.42C1528,681,1528,680.9,1528.13,680.85Z"/>
      <path class="cls-107" d="M1528.13,680.85a.61.61,0,0,1,0,.14h-1.2c-.12,0-.13-.08,0-.13Z"/>
      <path class="cls-107" d="M1530.56,681a.61.61,0,0,1,0-.14h1.2c.11,0,.11.1,0,.13Z"/>
      <path class="cls-108" d="M1469,617.33a.92.92,0,0,1,0,1.06Z"/>
      <path class="cls-109" d="M1469,622.76c.23.29.14.61.13.93-.05.1-.1.09-.13,0Z"/>
      <path class="cls-110" d="M1469,623.67l.13,0c0,.29.17.62-.13.88Z"/>
      <path class="cls-111" d="M1526.92,680.86a.69.69,0,0,0,0,.13H1526a.53.53,0,0,0,0-.13Z"/>
      <path class="cls-111" d="M1531.76,681a.62.62,0,0,0,0-.13h.9V681Z"/>
      <path class="cls-20"
            d="M1525.7,616c6.52-7.54,20.08-8.18,28-.42,5.91,5.76,8,12.71,5.64,20.64s-7.82,12.82-16,14.34a20,20,0,0,1-18-5.07A18.16,18.16,0,0,1,1519.7,634a26.11,26.11,0,0,1-.16-3.31q0-19,0-37.92c0-.69.18-.88.86-.86,1.48,0,3,0,4.45,0,.66,0,.89.14.88.86,0,6.15,0,12.31,0,18.47Z"/>
      <path class="cls-20"
            d="M1516.53,618c-4.38-.63-8.66-1.22-12.57-3.21a20.69,20.69,0,0,1-6-5c-1.91-2.14-3.61-4.45-5.69-6.43-1.81-1.72-3.62-3.42-5.5-5.05a2.52,2.52,0,0,1-.62-.74c10.74,1.74,19.81,6.43,26.7,15.09a82.61,82.61,0,0,0-5.34-10.69,60.34,60.34,0,0,0-7-9.59.38.38,0,0,1,.41,0,24.34,24.34,0,0,1,10.25,9.8,47.94,47.94,0,0,1,2.94,7.89C1514.94,612.66,1515.71,615.28,1516.53,618Z"/>
      <path class="cls-112"
            d="M1554,630.89c-.14,5.11-1.85,9.49-6.37,12.27-8.54,5.24-20.46,1-22.26-9.85-.93-5.61,1.16-12,6.56-15.28,7.73-4.63,19.95-1.89,21.89,10.45A17.41,17.41,0,0,1,1554,630.89Z"/>
    </g>
    <path class="cls-113" d="M1614.55,826a61.77,61.77,0,1,1,61.8-60.14A61.76,61.76,0,0,1,1614.55,826Z"/>
    <path class="cls-20"
          d="M1599.48,800.11c.51-2.6.78-5.15,1.43-7.64q4-14.93,7.94-29.86a2.39,2.39,0,0,1,2.32-2,56.22,56.22,0,0,1,7,0c1.6.1,2.19.72,2.62,2.29q4,15,8.08,29.93c.63,2.35.9,4.77,1.33,7.17a9.45,9.45,0,0,0,.53-2.68c.89-6.42,2.56-12.68,3.91-19,1.09-5.16,2.28-10.3,3.42-15.44.35-1.62.9-2.17,2.56-2.28,1.5-.09,3-.06,4.53,0,2,0,2.62.8,2.08,2.8q-3.6,13.39-7.21,26.77c-1.13,4.23-2.27,8.47-3.41,12.69a2.42,2.42,0,0,1-2.71,2.13q-4,0-8,0a1.9,1.9,0,0,1-2.19-1.59q-3.89-14.54-7.75-29.07c-.63-2.39-.82-4.86-1.36-7.32-.16,1.19-.31,2.38-.49,3.56-.73,4.82-2.28,9.44-3.49,14.15-1.57,6.06-3.23,12.1-4.85,18.15a2.41,2.41,0,0,1-2.79,2.13h-7.82c-1.6,0-2.09-.37-2.5-1.87q-5.44-20-10.87-39.92c-.43-1.58.13-2.51,1.68-2.57,1.82-.08,3.64-.06,5.45,0a2,2,0,0,1,2.22,1.86q3.68,15.22,7.3,30.46a42.07,42.07,0,0,1,.74,5.71A2.37,2.37,0,0,0,1599.48,800.11Z"/>
    <path class="cls-114"
          d="M1581.6,744.36a3.55,3.55,0,0,1,.3-1.52c5.12-12.13,13.89-19.87,27-22.16a34.54,34.54,0,0,1,36.72,18.65c.51,1,1,2,1.42,3.08,1,2.48.31,4.59-1.88,5.51a4.43,4.43,0,0,1-5.94-2.28,28.71,28.71,0,0,0-5-8.22,25.23,25.23,0,0,0-22.5-8.61c-10.45,1.14-17.58,6.92-21.64,16.51a4.6,4.6,0,0,1-7.36,1.79A3.63,3.63,0,0,1,1581.6,744.36Z"/>
  </g>
  <g id="Calque_3">
    <path class="cls-115"
          d="M808.48,405.35a1.5,1.5,0,0,1-.63,1,1.4,1.4,0,0,1-1.1.28,1.2,1.2,0,0,1-.68-.36,1.59,1.59,0,0,1-.41-.83l-.81-4L796.37,400l-2.08,3.54a1.53,1.53,0,0,1-.65.66,1.35,1.35,0,0,1-.79.12,1.49,1.49,0,0,1-.94-.62,1.55,1.55,0,0,1-.27-1.18,1.93,1.93,0,0,1,.27-.71l9.44-15.64a1.75,1.75,0,0,1,.8-.75,1.66,1.66,0,0,1,1-.13,1.61,1.61,0,0,1,.9.45,1.74,1.74,0,0,1,.52,1l3.89,17.86A2.11,2.11,0,0,1,808.48,405.35Zm-10.58-8,6.36,1.06-1.78-8.91Z"/>
  </g>
</svg>
