<svg xmlns="http://www.w3.org/2000/svg" viewBox="0 0 241.75 359.04"><defs><style>.cls-1{fill:#e0e0e0;}.cls-2{fill:#ffbf9d;}.cls-3{fill:#c8c7cd;}.cls-4{opacity:0.3;}.cls-5{fill:#ffbf00;}.cls-6{fill:#263238;}.cls-7{fill:#455a64;}.cls-8{fill:#ff9a6c;}.cls-9{fill:#fff;}.cls-10{fill:#ff725e;}.cls-11{fill:#eef0ec;}</style></defs><title>illuswitchplan</title><g id="Character"><rect class="cls-1" x="11.33" y="46.77" width="230.42" height="98" rx="49"/><path class="cls-2" d="M193.57,121.16c-.34.26-8.54,5.08-8.54,5.08l-5.9,5,2.71-8s-.55-2.05-2.09.29-6.92,11.32-6.92,11.32l-4.74,6.73,6.26,9.06s4.62-2.67,6.78-3.55,6.89-1.66,8.27-1.32,8-.16,8.26-.94-.74-1.49-2.52-1.35-7.89-.17-8.11-1.36,11.13-2.83,12-3.54,1-2-2-1.9-9,1.42-10,.28,1.74-1.83,2.08-2.09,6.67-2.59,8-3.94c.84-.87-.06-2.61-1.85-2.1s-8.65,3.95-9.95,3.76c-1.46-.22,1.81-3,2.3-3.33,3.31-2.23,6.8-3.9,6.85-6.13A2.3,2.3,0,0,0,193.57,121.16Z" transform="translate(-34.63 -21.94)"/><polygon class="cls-2" points="139.72 128.64 122.95 136.29 121.54 122.52 133.46 119.58 139.72 128.64"/><path class="cls-3" d="M156.46,161.44c-6.17,3.16-10.74,1.21-13.18-2.25-2.69-3.8-11.72-55.65-11.72-55.65L133,98.07s7.16,2.3,9,6.14,13.56,33.35,13.56,33.35l9.83-1.38a111.3,111.3,0,0,0,8.43,14.69Z" transform="translate(-34.63 -21.94)"/><g class="cls-4"><circle cx="185.27" cy="96.52" r="46.43"/></g><circle class="cls-5" cx="191.34" cy="95.77" r="46.43"/><path class="cls-6" d="M115.68,34.45c-2.45-1.55-3-5.16-1.71-7.74a9.45,9.45,0,0,1,7-4.61,13.37,13.37,0,0,1,11.51,3.81c1.58,1.63,2.86,3.76,5,4.5,1.88.66,4,.07,5.95.32a9,9,0,0,1,6.28,4.54A19.15,19.15,0,0,1,152,42.91c.29,2.44.48,5.12,2.17,6.9s4.26,2.1,6.31,3.33A8.64,8.64,0,0,1,163,64.94c-.81,1.18-2,2.27-2.07,3.7s.76,2.47,1.16,3.72a5.83,5.83,0,0,1-5,7.24c-1.7.1-3.52-.57-5.05.2s-2.08,2.58-3.05,4a7.27,7.27,0,0,1-8.88,2.29c-1.25-.61-2.44-1.63-3.83-1.53s-2.48,1.28-3.84,1.54c-1.79.35-3.49-1-4.55-2.45s-1.81-3.22-3.17-4.43c-1.78-1.58-4.28-2-6.54-2.75A18.45,18.45,0,0,1,107.79,50.6" transform="translate(-34.63 -21.94)"/><path class="cls-7" d="M141.61,66.5a5,5,0,0,1,2-1.31h-.15a3.07,3.07,0,0,1,.42-.07,2,2,0,0,1,1.56.19h0a3.67,3.67,0,0,1,2,1.75,4.35,4.35,0,0,1-.52,4.49,3.32,3.32,0,0,1-6.1-1.15A4.1,4.1,0,0,1,141.61,66.5Z" transform="translate(-34.63 -21.94)"/><path class="cls-2" d="M109.28,92.56l-2.61-47.8a4.06,4.06,0,0,1,3.51-4.22l21.38-6c6.87-.93,11.69,7.43,12.33,14.34.7,7.67,1.25,17.07.51,22.83-1.51,11.58-11,13.34-11,13.34s-.07,11.79,0,16L136,114Z" transform="translate(-34.63 -21.94)"/><path class="cls-6" d="M140.91,58.91a1.48,1.48,0,0,1-1.39,1.53A1.41,1.41,0,0,1,138,59.15a1.47,1.47,0,0,1,1.38-1.53A1.42,1.42,0,0,1,140.91,58.91Z" transform="translate(-34.63 -21.94)"/><path class="cls-6" d="M142,53.78c-.17.2-1.32-.6-2.91-.55s-2.73.88-2.91.69.09-.44.59-.83a4.11,4.11,0,0,1,2.32-.79,3.94,3.94,0,0,1,2.33.68C141.9,53.34,142.07,53.69,142,53.78Z" transform="translate(-34.63 -21.94)"/><path class="cls-6" d="M127.18,58.91a1.48,1.48,0,0,1-1.38,1.53,1.41,1.41,0,0,1-1.56-1.29,1.47,1.47,0,0,1,1.38-1.53A1.41,1.41,0,0,1,127.18,58.91Z" transform="translate(-34.63 -21.94)"/><path class="cls-6" d="M126.35,54.52c-.18.2-1.32-.6-2.91-.55s-2.74.88-2.92.69.09-.44.59-.82a4,4,0,0,1,2.32-.79,3.85,3.85,0,0,1,2.33.67C126.26,54.09,126.44,54.43,126.35,54.52Z" transform="translate(-34.63 -21.94)"/><path class="cls-6" d="M132.46,66.16a10.45,10.45,0,0,1,2.57-.54c.41-.06.79-.15.85-.43a2,2,0,0,0-.31-1.19c-.41-1-.83-2-1.28-3.06-1.8-4.36-3.11-7.95-2.93-8s1.77,3.4,3.56,7.76c.44,1.08.85,2.1,1.24,3.08a2.35,2.35,0,0,1,.26,1.59,1,1,0,0,1-.65.61,2.78,2.78,0,0,1-.69.12A10.61,10.61,0,0,1,132.46,66.16Z" transform="translate(-34.63 -21.94)"/><path class="cls-8" d="M133.4,85a27.75,27.75,0,0,1-14.87-3.72s3.34,8.58,14.85,7.17Z" transform="translate(-34.63 -21.94)"/><path class="cls-8" d="M132.33,70a3.91,3.91,0,0,0-3.27-1.62,2.55,2.55,0,0,0-2.06,1.2A2.34,2.34,0,0,0,129.72,73a5.82,5.82,0,0,0,2.3-1.52,1.94,1.94,0,0,0,.49-.61.84.84,0,0,0-.09-.81" transform="translate(-34.63 -21.94)"/><path class="cls-6" d="M127.81,67.39c.26,0,.31,1.71,1.82,2.89s3.35.94,3.37,1.18-.4.35-1.18.39A4.27,4.27,0,0,1,129,71a3.68,3.68,0,0,1-1.41-2.42C127.51,67.82,127.69,67.39,127.81,67.39Z" transform="translate(-34.63 -21.94)"/><path class="cls-6" d="M126.87,48c-.15.43-1.74.27-3.6.55s-3.36.83-3.62.45c-.12-.18.14-.6.73-1a6.33,6.33,0,0,1,5.5-.77C126.57,47.41,126.93,47.74,126.87,48Z" transform="translate(-34.63 -21.94)"/><path class="cls-6" d="M141.27,48.32c-.27.37-1.38,0-2.7,0s-2.42.31-2.69-.06c-.12-.18.05-.55.52-.9a3.71,3.71,0,0,1,2.18-.66,3.78,3.78,0,0,1,2.17.67C141.22,47.77,141.39,48.14,141.27,48.32Z" transform="translate(-34.63 -21.94)"/><path class="cls-6" d="M151.66,46.4a7.94,7.94,0,0,0-3-4.36,29.64,29.64,0,0,1-2.57-1.49C144.38,39.2,144,36.86,143,35a8.72,8.72,0,0,0-6.64-4.4c-2.28-.24-4.64.45-6.86-.11-1.65-.42-3.09-1.48-4.76-1.8-3.25-.62-6.27,1.71-8.62,4,0,2.33,1.84,3.88,3.63,5.38a8.06,8.06,0,0,0,6.53,1.72c1.77-.32,3.72-1.22,5.25-.28s1.69,3.43,3.12,4.68c2,1.78,5.3.11,7.9.88,2,.59,3.26,2.51,4.6,4.13s3.33,3.15,5.34,2.55A23.62,23.62,0,0,0,151.66,46.4Z" transform="translate(-34.63 -21.94)"/><path class="cls-6" d="M127.27,36.58c-1.46-.42-4.44-1.36-5.22-2.63a8.93,8.93,0,0,0-7.74-4.45,7.36,7.36,0,0,0-6.62,5.81,10.57,10.57,0,0,0-9.08,5.85A12.46,12.46,0,0,0,98,42.51a8,8,0,0,0-.53,6.75c.5,1.31,1.36,2.78.68,4S95.75,54.57,94.4,55A5.32,5.32,0,0,0,91,61a6.67,6.67,0,0,1,.42,2.62,5.71,5.71,0,0,1-1.57,2.27A6.64,6.64,0,0,0,93.78,76.7a8.66,8.66,0,0,1,3.06.7c1,.63,1.48,1.87,2.21,2.83a5.7,5.7,0,0,0,6.2,2,5.24,5.24,0,0,0,1.25-.63,4.12,4.12,0,0,0,3.65,1.62l-.43-24.32A2,2,0,0,0,111.19,60c3.91.89,4.48-7.16,3.6-9.34a22.46,22.46,0,0,0,3.92-4.11,16.38,16.38,0,0,0,1.8-7.9C121.91,38.74,127.91,36.76,127.27,36.58Z" transform="translate(-34.63 -21.94)"/><path class="cls-2" d="M110.79,60.83c-.12-2.48-3.14-3-5.29-1.77-1.17.68-2.07,2-2,4.68.28,7,7.25,5.26,7.25,5.06S110.94,63.72,110.79,60.83Z" transform="translate(-34.63 -21.94)"/><path class="cls-8" d="M108.55,66.24s-.12.09-.32.19a1.23,1.23,0,0,1-.91.06,3,3,0,0,1-1.51-2.65,3.87,3.87,0,0,1,.27-1.76,1.44,1.44,0,0,1,.88-1,.61.61,0,0,1,.73.31c.1.19.06.33.1.34s.15-.12.08-.41a.83.83,0,0,0-.3-.43,1,1,0,0,0-.68-.15,1.73,1.73,0,0,0-1.23,1.14,4.23,4.23,0,0,0-.34,2c.1,1.41.88,2.7,1.9,2.95a1.31,1.31,0,0,0,1.11-.23C108.54,66.41,108.57,66.25,108.55,66.24Z" transform="translate(-34.63 -21.94)"/><path class="cls-7" d="M117.63,34.69a4.12,4.12,0,0,0-1.39,1.16,6.43,6.43,0,0,0-.52,4.84l0,.18-.17,0a6.76,6.76,0,0,0-4.51,4,4.92,4.92,0,0,0-.36,1.7,9.24,9.24,0,0,0,.22,1.85,13.85,13.85,0,0,1,.26,2,3.28,3.28,0,0,1-.55,2.07,8.61,8.61,0,0,1-3.47,2.61,11.79,11.79,0,0,0-3.25,2.12,8.77,8.77,0,0,0-2.62,5.87,9.15,9.15,0,0,0,.93,4.32c.46,1,.85,1.41.81,1.44a2,2,0,0,1-.3-.31,8,8,0,0,1-.69-1,8.86,8.86,0,0,1,1.55-10.6A11.88,11.88,0,0,1,107,54.68a8.15,8.15,0,0,0,3.27-2.45c.78-1.06.43-2.45.23-3.7a10.59,10.59,0,0,1-.22-2,5.73,5.73,0,0,1,.41-1.86,7.06,7.06,0,0,1,4.85-4.16l-.13.22a6.48,6.48,0,0,1,.7-5,2.83,2.83,0,0,1,1.1-.9A1.45,1.45,0,0,1,117.63,34.69Z" transform="translate(-34.63 -21.94)"/><path class="cls-7" d="M105.93,68.86a4.91,4.91,0,0,1,2-1.31h-.15a2,2,0,0,1,.43-.07,1.94,1.94,0,0,1,1.55.19h0a3.63,3.63,0,0,1,2,1.75,4.34,4.34,0,0,1-.52,4.48,3.32,3.32,0,0,1-6.1-1.14A4.13,4.13,0,0,1,105.93,68.86Z" transform="translate(-34.63 -21.94)"/><path class="cls-2" d="M120.7,353.87,143,355.49a59.24,59.24,0,0,0-2.78,9.8c-6.25,2.14-14.13,1.57-20.82-.92Z" transform="translate(-34.63 -21.94)"/><path class="cls-6" d="M140.62,362l0,1.33s22.59,8.76,22.88,13l-44.63.31.5-14.86C126.05,364.87,133,365.17,140.62,362Z" transform="translate(-34.63 -21.94)"/><path class="cls-9" d="M123.94,366.56a1.81,1.81,0,0,0-1.24,2.09,1.74,1.74,0,0,0,2.06,1.25,1.92,1.92,0,0,0,1.3-2.22,1.82,1.82,0,0,0-2.28-1.07" transform="translate(-34.63 -21.94)"/><path class="cls-6" d="M118.89,376.7l.12-3.58,42.73,1s2,.86,1.78,2.26Z" transform="translate(-34.63 -21.94)"/><path class="cls-6" d="M140.8,363.49c0,.22-1.09.33-2.16,1s-1.63,1.62-1.83,1.54.11-1.35,1.42-2.18S140.85,363.29,140.8,363.49Z" transform="translate(-34.63 -21.94)"/><path class="cls-6" d="M145.5,365.4c.05.21-.89.58-1.63,1.51s-.94,1.9-1.16,1.9-.36-1.24.57-2.38S145.49,365.19,145.5,365.4Z" transform="translate(-34.63 -21.94)"/><path class="cls-6" d="M148.19,371c-.2,0-.51-1,.05-2.24s1.56-1.67,1.66-1.49-.54.82-1,1.81S148.41,371,148.19,371Z" transform="translate(-34.63 -21.94)"/><path class="cls-2" d="M44.39,340c-1.39,5.81-6.82,23.34-6.82,23.34l19.82,2c.48-2.92,8.25-15,9.49-18.73Z" transform="translate(-34.63 -21.94)"/><path class="cls-6" d="M58.77,362.52l-.23,1.31S79,376.74,78.5,381l-43.87-8.23,4.14-13.4C42.11,362.57,50.68,364.13,58.77,362.52Z" transform="translate(-34.63 -21.94)"/><path class="cls-9" d="M41.53,363.77a1.82,1.82,0,0,0-1.62,1.81,1.75,1.75,0,0,0,1.78,1.62,1.92,1.92,0,0,0,1.71-1.93,1.82,1.82,0,0,0-2-1.48" transform="translate(-34.63 -21.94)"/><path class="cls-6" d="M34.63,372.75l.8-3.48,41.76,9.16S79,379.64,78.5,381Z" transform="translate(-34.63 -21.94)"/><path class="cls-6" d="M58.67,364c-.05.21-1.14.11-2.32.6s-1.92,1.29-2.1,1.17.37-1.3,1.81-1.87S58.75,363.79,58.67,364Z" transform="translate(-34.63 -21.94)"/><path class="cls-6" d="M62.91,366.75c0,.21-1,.4-1.88,1.17s-1.29,1.69-1.5,1.64-.12-1.28,1-2.22S62.94,366.54,62.91,366.75Z" transform="translate(-34.63 -21.94)"/><path class="cls-6" d="M64.49,372.74c-.2,0-.3-1.11.47-2.18s1.86-1.35,1.92-1.16-.68.71-1.3,1.6S64.71,372.76,64.49,372.74Z" transform="translate(-34.63 -21.94)"/><path class="cls-10" d="M110.07,107.42c.47.85,17.24,38.64,17.24,38.64L159,134.84l8.32,14.68s-35.87,23.6-45.37,23-11.11-2.41-14.61-9.86C103.05,153.5,90,119.94,90,119.94s-4.11-18.54,8.38-19.8C106.19,99.35,110.07,107.42,110.07,107.42Z" transform="translate(-34.63 -21.94)"/><path class="cls-6" d="M136.7,185.54s32.68,86,31,97.06-21.58,76.75-21.58,76.75l-28.68-1.94L132.78,281l-25.84-53,4.45-53.74,27,2.78Z" transform="translate(-34.63 -21.94)"/><path class="cls-6" d="M89.17,170l-2.28,6c-4.31,5.72-11.4,16.54-13.59,23.13-3.09,9.32-1.37,38.69-1.37,38.69L68.88,281s-8.43,16.83-12.95,26.27C52,315.46,39.57,352,39.57,352l24.78,7.35S98.89,299.72,102,292s9.8-69.76,9.8-69.76L123,175.48Z" transform="translate(-34.63 -21.94)"/><path class="cls-7" d="M81.18,187c0-.11,1.51.31,4,.49a25.47,25.47,0,0,0,4.32-.07,28.31,28.31,0,0,0,5.17-1.06,27.75,27.75,0,0,0,4.85-2.09,26.66,26.66,0,0,0,3.58-2.42c1.91-1.56,2.89-2.76,3-2.68a4.43,4.43,0,0,1-.64.88,10.76,10.76,0,0,1-.85.94c-.36.35-.74.77-1.23,1.17a22.78,22.78,0,0,1-3.58,2.57,26.35,26.35,0,0,1-4.93,2.18,26.62,26.62,0,0,1-5.3,1,22.53,22.53,0,0,1-4.4-.06,15.72,15.72,0,0,1-1.67-.25,9.6,9.6,0,0,1-1.24-.29A4.3,4.3,0,0,1,81.18,187Z" transform="translate(-34.63 -21.94)"/><path class="cls-7" d="M133.21,283.18a18.64,18.64,0,0,1,5.8-3.46,18.9,18.9,0,0,1,6.52-1.75c0,.18-2.9.83-6.3,2.28S133.31,283.32,133.21,283.18Z" transform="translate(-34.63 -21.94)"/><path class="cls-7" d="M69.46,280.85A8.29,8.29,0,0,1,73.18,282a8.56,8.56,0,0,1,3.13,2.33c-.11.14-1.52-.85-3.4-1.82A33.78,33.78,0,0,1,69.46,280.85Z" transform="translate(-34.63 -21.94)"/><path class="cls-7" d="M131.86,178.69a5.56,5.56,0,0,1-.19.72c-.15.51-.36,1.19-.62,2l-2.39,7.45-3.6,11c-.35,1-.66,2.1-1.08,3.19a17.41,17.41,0,0,1-1.64,3.14,15.78,15.78,0,0,1-2.35,2.82l-2.64,2.64c-1.56,1.57-3.08,3.1-4.55,4.56l.07-.15c-1,8.47-2,15.91-2.63,21.31-.35,2.62-.63,4.75-.83,6.27l-.24,1.69a3.2,3.2,0,0,1-.12.58,2.39,2.39,0,0,1,0-.59c0-.43.1-1,.16-1.7.17-1.53.39-3.66.68-6.29.62-5.4,1.48-12.86,2.45-21.33V216l.07-.07,4.54-4.56,2.63-2.64a15.21,15.21,0,0,0,2.3-2.74,16.76,16.76,0,0,0,1.61-3c.41-1,.73-2.13,1.09-3.16l3.7-11,2.55-7.41c.3-.83.53-1.5.71-2A3.24,3.24,0,0,1,131.86,178.69Z" transform="translate(-34.63 -21.94)"/><g class="cls-4"><path d="M193.6,140.74a1.79,1.79,0,0,0-1.29-.62l-7.63-1.29a4.16,4.16,0,0,1,3-2.32,22.87,22.87,0,0,0,3.85-1,3.1,3.1,0,0,0,2-3.1,22.66,22.66,0,0,1-10.87-.88l8.19-3.1a5.24,5.24,0,0,0,1.69-.88,1.8,1.8,0,0,0,.66-1.7c-.28-1.17-1.87-1.39-3-1.15-1.5.32-2.9,1-4.37,1.37a6.07,6.07,0,0,1-4.46-.22,21.21,21.21,0,0,0,4.86-2.65,7.17,7.17,0,0,0,2.8-4.63c-5.13,1.73-9.34,5.43-13.16,9.26s-7.46,8-12,10.86l2.87,9.81c5-2.45,10.2-5,15.77-5.24,3.18-.17,6.45.38,9.52-.47a2.77,2.77,0,0,0,1.34-.68A1.18,1.18,0,0,0,193.6,140.74Z" transform="translate(-34.63 -21.94)"/></g><path class="cls-2" d="M189.46,115.13c-.34.26-8.54,5.07-8.54,5.07l-5.89,5,2.7-8s-.55-2-2.09.29-6.91,11.33-6.91,11.33L164,135.48l6.26,9.07s4.62-2.67,6.78-3.56,6.89-1.65,8.27-1.31,8-.16,8.26-.94-.74-1.49-2.52-1.35-7.89-.17-8.11-1.36,11.13-2.84,12-3.54,1.05-2-2-1.9-9,1.42-10,.28,1.73-1.83,2.07-2.09,6.68-2.59,8-4c.83-.86-.07-2.6-1.86-2.09s-8.64,4-10,3.75c-1.46-.21,1.81-3,2.3-3.32,3.31-2.23,6.8-3.9,6.85-6.14A2.29,2.29,0,0,0,189.46,115.13Z" transform="translate(-34.63 -21.94)"/><polygon class="cls-2" points="135.61 122.61 118.85 130.26 117.44 116.49 129.35 113.54 135.61 122.61"/><path class="cls-11" d="M108.68,86.26c.71.36,19.67,9.66,19.67,9.66l6.07,8.34s8.57,39.35,7.5,45.6-7.87,27.64-8.58,27.46L89.17,170l0-.1a12.62,12.62,0,0,1,1.18-8.36l4-7.74-7.47-35.72s-1.43-10.41,3.32-15.34c5-5.13,16-11.72,16-11.72Z" transform="translate(-34.63 -21.94)"/><path class="cls-11" d="M132.54,103.42a11.23,11.23,0,0,1-1.27-1.47L128,97.86l.37-.07c-.36,1.37-.77,2.88-1.2,4.5l-.07.26-.25-.1c-1.7-.66-3.54-1.44-5.42-2.32a87.42,87.42,0,0,1-11-6.09c-1.34-.87-2.39-1.63-3.12-2.16a7.61,7.61,0,0,1-1.08-.88,7,7,0,0,1,1.2.71c.76.48,1.84,1.19,3.2,2a109.42,109.42,0,0,0,11,5.93c1.87.87,3.69,1.66,5.38,2.33l-.33.17c.46-1.61.88-3.12,1.27-4.48l.11-.41.25.34,3.09,4.2A13.54,13.54,0,0,1,132.54,103.42Z" transform="translate(-34.63 -21.94)"/><path class="cls-11" d="M133.64,104.41l.06,5.72-4.36,66.93h9s12.28-28.86,11.92-38c-.26-6.62-5.37-18.91-7.85-26.55a82.14,82.14,0,0,0-3.6-8.68c-1.92-1.7-2.29-2-2.29-2.42l.81-3.68-4-3.67,0,6.89Z" transform="translate(-34.63 -21.94)"/><path class="cls-11" d="M135.85,175.13a3.82,3.82,0,0,1,.27-.7l.87-2c.4-.84.85-1.9,1.34-3.13l.82-2,.81-2.24a62.71,62.71,0,0,0,3.86-25.61,80.18,80.18,0,0,0-2.44-14.13,116.89,116.89,0,0,0-3.74-11.13c-.63-1.54-1.2-2.94-1.7-4.19s-1-2.23-1.4-3.11l-.87-2a4,4,0,0,1-.27-.71,3.21,3.21,0,0,1,.37.66l1,1.93,1.49,3.07c.53,1.24,1.13,2.63,1.78,4.17a106.93,106.93,0,0,1,3.88,11.14,78,78,0,0,1,2.51,14.24,61.19,61.19,0,0,1-4.06,25.78l-.85,2.23-.86,2c-.53,1.23-1,2.27-1.43,3.11l-1,1.93A2.91,2.91,0,0,1,135.85,175.13Z" transform="translate(-34.63 -21.94)"/><path class="cls-11" d="M141,108.73a5.17,5.17,0,0,1,.66,1c.4.68.92,1.69,1.53,2.95A69.87,69.87,0,0,1,147.09,123a60.48,60.48,0,0,1,2.2,10.75,32.34,32.34,0,0,1,.15,3.33,5.27,5.27,0,0,1-.1,1.22c-.1,0-.08-1.74-.46-4.5a72.76,72.76,0,0,0-2.34-10.64,88.09,88.09,0,0,0-3.71-10.25C141.72,110.32,140.92,108.78,141,108.73Z" transform="translate(-34.63 -21.94)"/><path class="cls-11" d="M110.07,107.42c.47.85,17.24,38.64,17.24,38.64L159,134.84l8.32,14.68s-35.87,23.6-45.37,23-11.11-2.41-14.61-9.86c-3.2-6.79-12.16-25.59-16.54-34.76A27,27,0,0,1,88.28,113c.7-5.82,3.09-12.22,10.11-12.89C106.19,99.39,110.07,107.42,110.07,107.42Z" transform="translate(-34.63 -21.94)"/><path class="cls-6" d="M107.83,104.26a21,21,0,0,0-2.61-1.78A15.57,15.57,0,0,0,97.85,101a13.31,13.31,0,0,0-6.91,2.82,18.34,18.34,0,0,0-2.22,2.24,2.16,2.16,0,0,1,.4-.77,8.62,8.62,0,0,1,1.59-1.75,12.75,12.75,0,0,1,7.11-3.06,14.58,14.58,0,0,1,7.58,1.65,8.94,8.94,0,0,1,1.88,1.43A2.57,2.57,0,0,1,107.83,104.26Z" transform="translate(-34.63 -21.94)"/><path class="cls-6" d="M119.7,156.86a6.21,6.21,0,0,1,.61-1.91A24.48,24.48,0,0,1,125.8,147a6.46,6.46,0,0,1,1.58-1.25c.11.12-2.18,2.15-4.3,5.24S119.85,156.93,119.7,156.86Z" transform="translate(-34.63 -21.94)"/><path class="cls-6" d="M90.81,127.86s.09.15.25.46l.68,1.37L94.31,135c2.21,4.62,5.41,11.27,9.35,19.48l3.09,6.45a46.58,46.58,0,0,0,3.63,6.8,9.14,9.14,0,0,0,2.91,2.69,12.32,12.32,0,0,0,3.92,1.3,39.41,39.41,0,0,0,4.28.51,11.89,11.89,0,0,0,4.32-.54,58.42,58.42,0,0,0,8.57-3.39c2.85-1.34,5.7-2.83,8.58-4.39,5.76-3.14,11.59-6.61,17.5-10.29,2.28-1.42,4.53-2.85,6.73-4.28l-.08.34L158.79,135l.31.11-31.71,11.18-.19.07-.08-.18L114.66,118c-1.47-3.36-2.63-6-3.43-7.81-.38-.89-.67-1.58-.88-2.06s-.28-.71-.28-.71.12.22.34.68l.93,2c.83,1.8,2,4.42,3.53,7.76,3,6.74,7.38,16.39,12.64,28.08l-.27-.11,31.69-11.25.2-.07.1.18c2.69,4.74,5.47,9.65,8.33,14.68l.12.21-.21.13q-3.3,2.16-6.74,4.3c-5.91,3.67-11.76,7.15-17.52,10.29-2.89,1.56-5.75,3-8.62,4.39a57.65,57.65,0,0,1-8.65,3.4,12.19,12.19,0,0,1-4.48.55,38.68,38.68,0,0,1-4.34-.53,13,13,0,0,1-4.05-1.36,9.57,9.57,0,0,1-3-2.82,47.75,47.75,0,0,1-3.64-6.89q-1.61-3.37-3.06-6.47c-3.88-8.23-7-14.91-9.21-19.54l-2.48-5.33L91,128.34C90.87,128,90.81,127.86,90.81,127.86Z" transform="translate(-34.63 -21.94)"/><g class="cls-4"><polygon points="192.36 109.89 175.61 97.91 179.79 92.06 191.02 100.09 205.89 81.65 211.48 86.16 192.36 109.89"/></g></g></svg>